<?xml version="1.0" encoding="UTF-8" standalone="no"?>
<!-- Created with Inkscape (http://www.inkscape.org/) -->

<svg
   width="105"
   height="125"
   viewBox="0 0 27.781249 33.072916"
   version="1.1"
   id="svg5"
   inkscape:version="1.2.2 (b0a8486541, 2022-12-01)"
   sodipodi:docname="auto.svg"
   xmlns:inkscape="http://www.inkscape.org/namespaces/inkscape"
   xmlns:sodipodi="http://sodipodi.sourceforge.net/DTD/sodipodi-0.dtd"
   xmlns:xlink="http://www.w3.org/1999/xlink"
   xmlns="http://www.w3.org/2000/svg"
   xmlns:svg="http://www.w3.org/2000/svg">
  <sodipodi:namedview
     id="namedview7"
     pagecolor="#ff0cff"
     bordercolor="#eeeeee"
     borderopacity="1"
     inkscape:showpageshadow="0"
     inkscape:pageopacity="0"
     inkscape:pagecheckerboard="0"
     inkscape:deskcolor="#d1d1d1"
     inkscape:document-units="px"
     showgrid="false"
     inkscape:zoom="3.9055547"
     inkscape:cx="58.122346"
     inkscape:cy="72.07683"
     inkscape:window-width="1920"
     inkscape:window-height="1043"
     inkscape:window-x="0"
     inkscape:window-y="0"
     inkscape:window-maximized="1"
     inkscape:current-layer="layer1"
     inkscape:lockguides="true" />
  <defs
     id="defs2">
    <linearGradient
       inkscape:collect="always"
       id="linearGradient190028">
      <stop
         style="stop-color:#ffffff;stop-opacity:1;"
         offset="0"
         id="stop190024" />
      <stop
         style="stop-color:#ffffff;stop-opacity:0;"
         offset="1"
         id="stop190026" />
    </linearGradient>
    <rect
       x="447.80301"
       y="522.68451"
       width="226.12675"
       height="109.94807"
       id="rect22711" />
    <filter
       style="color-interpolation-filters:sRGB"
       inkscape:label="Drop Shadow"
       id="filter26032"
       x="-0.035373695"
       y="-0.028412441"
       width="1.0854864"
       height="1.0686634">
      <feFlood
         flood-opacity="1"
         flood-color="rgb(0,0,0)"
         result="flood"
         id="feFlood26022" />
      <feComposite
         in="flood"
         in2="SourceGraphic"
         operator="out"
         result="composite1"
         id="feComposite26024" />
      <feGaussianBlur
         in="composite1"
         stdDeviation="1"
         result="blur"
         id="feGaussianBlur26026" />
      <feOffset
         dx="1"
         dy="1"
         result="offset"
         id="feOffset26028" />
      <feComposite
         in="offset"
         in2="SourceGraphic"
         operator="in"
         result="composite2"
         id="feComposite26030" />
    </filter>
    <rect
       x="447.80301"
       y="522.68451"
       width="226.12675"
       height="109.94807"
       id="rect26020" />
    <rect
       x="447.80301"
       y="522.68451"
       width="226.12675"
       height="109.94807"
       id="rect22711-4" />
    <filter
       style="color-interpolation-filters:sRGB"
       inkscape:label="Drop Shadow"
       id="filter26032-4"
       x="-0.060084443"
       y="-0.46196489"
       width="1.1452041"
       height="2.1164151">
      <feFlood
         flood-opacity="1"
         flood-color="rgb(0,0,0)"
         result="flood"
         id="feFlood26022-4" />
      <feComposite
         in="flood"
         in2="SourceGraphic"
         operator="out"
         result="composite1"
         id="feComposite26024-7" />
      <feGaussianBlur
         in="composite1"
         stdDeviation="1"
         result="blur"
         id="feGaussianBlur26026-6" />
      <feOffset
         dx="1"
         dy="1"
         result="offset"
         id="feOffset26028-3" />
      <feComposite
         in="offset"
         in2="SourceGraphic"
         operator="in"
         result="composite2"
         id="feComposite26030-1" />
    </filter>
    <rect
       x="447.80301"
       y="522.68451"
       width="226.12675"
       height="109.94807"
       id="rect26020-7" />
    <filter
       style="color-interpolation-filters:sRGB;"
       inkscape:label="Drop Shadow"
       id="filter14808"
       x="-0.17418827"
       y="-0.17655327"
       width="1.420955"
       height="1.4266704">
      <feFlood
         flood-opacity="1"
         flood-color="rgb(0,0,0)"
         result="flood"
         id="feFlood14798" />
      <feComposite
         in="flood"
         in2="SourceGraphic"
         operator="out"
         result="composite1"
         id="feComposite14800" />
      <feGaussianBlur
         in="composite1"
         stdDeviation="1"
         result="blur"
         id="feGaussianBlur14802" />
      <feOffset
         dx="1"
         dy="1"
         result="offset"
         id="feOffset14804" />
      <feComposite
         in="offset"
         in2="SourceGraphic"
         operator="in"
         result="composite2"
         id="feComposite14806" />
    </filter>
    <rect
       x="447.80301"
       y="522.68451"
       width="226.12675"
       height="109.94807"
       id="rect26228" />
    <rect
       x="447.80301"
       y="522.68451"
       width="226.12675"
       height="109.94807"
       id="rect26230" />
    <filter
       style="color-interpolation-filters:sRGB;"
       inkscape:label="Drop Shadow"
       id="filter26605"
       x="-0.098463022"
       y="-0.079086303"
       width="1.2379523"
       height="1.3030058">
      <feFlood
         flood-opacity="1"
         flood-color="rgb(0,0,0)"
         result="flood"
         id="feFlood26595" />
      <feComposite
         in="flood"
         in2="SourceGraphic"
         operator="out"
         result="composite1"
         id="feComposite26597" />
      <feGaussianBlur
         in="composite1"
         stdDeviation="1"
         result="blur"
         id="feGaussianBlur26599" />
      <feOffset
         dx="1"
         dy="1"
         result="offset"
         id="feOffset26601" />
      <feComposite
         in="offset"
         in2="SourceGraphic"
         operator="in"
         result="composite2"
         id="feComposite26603" />
    </filter>
    <radialGradient
       inkscape:collect="always"
       xlink:href="#linearGradient190028"
       id="radialGradient190030"
       cx="-14.517192"
       cy="8.0100319"
       fx="-14.517192"
       fy="8.0100319"
       r="6.9062428"
       gradientTransform="matrix(1,0,0,0.98838576,0,0.0930304)"
       gradientUnits="userSpaceOnUse" />
    <filter
       style="color-interpolation-filters:sRGB;"
       inkscape:label="Drop Shadow"
       id="filter468"
       x="-0.1984124"
       y="-1.4091096"
       width="1.4381607"
       height="3.5752693">
      <feFlood
         flood-opacity="1"
         flood-color="rgb(0,0,0)"
         result="flood"
         id="feFlood458" />
      <feComposite
         in="flood"
         in2="SourceGraphic"
         operator="out"
         result="composite1"
         id="feComposite460" />
      <feGaussianBlur
         in="composite1"
         stdDeviation="1"
         result="blur"
         id="feGaussianBlur462" />
      <feOffset
         dx="0.5"
         dy="-0.5"
         result="offset"
         id="feOffset464" />
      <feComposite
         in="offset"
         in2="SourceGraphic"
         operator="in"
         result="composite2"
         id="feComposite466" />
    </filter>
    <rect
       x="447.80301"
       y="522.68451"
       width="226.12675"
       height="109.94807"
       id="rect664" />
    <rect
       x="447.80301"
       y="522.68451"
       width="226.12675"
       height="109.94807"
       id="rect666" />
    <radialGradient
       inkscape:collect="always"
       xlink:href="#linearGradient190028"
       id="radialGradient668"
       gradientUnits="userSpaceOnUse"
       gradientTransform="matrix(1,0,0,0.98838576,0,0.0930304)"
       cx="-14.517192"
       cy="8.0100319"
       fx="-14.517192"
       fy="8.0100319"
       r="6.9062428" />
    <radialGradient
       inkscape:collect="always"
       xlink:href="#linearGradient190028"
       id="radialGradient670"
       gradientUnits="userSpaceOnUse"
       gradientTransform="matrix(1,0,0,0.98838576,0,0.0930304)"
       cx="-14.517192"
       cy="8.0100319"
       fx="-14.517192"
       fy="8.0100319"
       r="6.9062428" />
    <radialGradient
       inkscape:collect="always"
       xlink:href="#linearGradient190028"
       id="radialGradient672"
       gradientUnits="userSpaceOnUse"
       gradientTransform="matrix(1,0,0,0.98838576,0,0.0930304)"
       cx="-14.517192"
       cy="8.0100319"
       fx="-14.517192"
       fy="8.0100319"
       r="6.9062428" />
    <radialGradient
       inkscape:collect="always"
       xlink:href="#linearGradient190028"
       id="radialGradient674"
       gradientUnits="userSpaceOnUse"
       gradientTransform="matrix(1,0,0,0.98838576,0,0.0930304)"
       cx="-14.517192"
       cy="8.0100319"
       fx="-14.517192"
       fy="8.0100319"
       r="6.9062428" />
    <radialGradient
       inkscape:collect="always"
       xlink:href="#linearGradient190028"
       id="radialGradient676"
       gradientUnits="userSpaceOnUse"
       gradientTransform="matrix(1,0,0,0.98838576,0,0.0930304)"
       cx="-14.517192"
       cy="8.0100319"
       fx="-14.517192"
       fy="8.0100319"
       r="6.9062428" />
    <radialGradient
       inkscape:collect="always"
       xlink:href="#linearGradient190028"
       id="radialGradient678"
       gradientUnits="userSpaceOnUse"
       gradientTransform="matrix(1,0,0,0.98838576,0,0.0930304)"
       cx="-14.517192"
       cy="8.0100319"
       fx="-14.517192"
       fy="8.0100319"
       r="6.9062428" />
    <radialGradient
       inkscape:collect="always"
       xlink:href="#linearGradient190028"
       id="radialGradient680"
       gradientUnits="userSpaceOnUse"
       gradientTransform="matrix(1,0,0,0.98838576,0,0.0930304)"
       cx="-14.517192"
       cy="8.0100319"
       fx="-14.517192"
       fy="8.0100319"
       r="6.9062428" />
  </defs>
  <g
     inkscape:label="Layer 1"
     inkscape:groupmode="layer"
     id="layer1">
    <path
       id="path22707-8"
       style="display:inline;fill:#283442;fill-opacity:1;stroke:none;stroke-width:0.0848109;stroke-opacity:1"
       d="m -36.271,10.134257 -1.342729,0.802807 v 28.74133 l 0.324669,0.558166 11.825429,0.244267 11.825244,-0.244267 0.399291,-1.818564 -0.343782,-1.240316 -0.343782,1.173997 -0.118843,0.937837 c -0.01387,0.0074 -4.383398,0.01196 -8.080956,0.01656 h -12.944854 c -0.264993,-0.0011 -1.806496,3.56e-4 -1.808447,-0.0014 l -0.12084,-13.996879 0.111923,-12.958751 c 0.0014,-0.07718 0.0058,-0.576715 0.0069,-0.610118 h 22.838442 l 0.116659,11.599435 0.09154,12.101783 0.47591,-0.0455 0.120112,-12.167919 -0.07443,-12.289686 -0.324856,-0.558166 -10.349115,-0.244641 -10.218806,0.191765 -0.01656,0.446724 h -1.124706 l 0.02784,-0.01584 z" />
    <g
       id="g24595"
       transform="matrix(1.1026675,0,0,1.1026675,29.686779,1.9832081)"
       style="fill:url(#radialGradient190030);fill-opacity:1">
      <path
         id="path41467"
         style="opacity:1;fill:url(#radialGradient676);fill-opacity:1;stroke-width:0.0950537"
         d="m -20.837664,1.1839998 -0.522982,0.04753 -0.04214,2.4214591 0.228909,0.398224 7.799801,0.04214 0.567909,-0.154277 0.01634,-2.5304371 -0.308554,-0.217027 z m -0.24636,3.9033331 -0.299828,0.202361 -0.0017,2.518741 0.24636,0.288689 5.190833,-0.01281 0.0828,-0.705664 -0.02711,2.429443 -0.101923,-0.758945 c 0,0 -2.422481,0.02358 -2.474928,0.02358 l -2.581863,-0.01745 -0.353482,0.262326 -0.01857,2.4335291 0.274208,0.331203 0.57515,0.04753 1.629283,-0.03565 1.967169,0.03249 0.222783,-0.761175 0.338629,-0.588144 0.550459,-0.585176 0.730912,-0.189365 0.902455,-0.03546 0.463016,0.164488 a 2.4788652,2.3724004 0 0 0 -0.707705,-0.09914 2.4788652,2.3724004 0 0 0 -2.478827,2.372448 2.4788652,2.3724004 0 0 0 2.478827,2.37245 2.4788652,2.3724004 0 0 0 2.478825,-2.37245 2.4788652,2.3724004 0 0 0 -0.01801,-0.284976 l 3.9759254,-0.0072 0.343828,-0.09784 c 0,0 0.088,-5.308024 0.03342,-5.253397 l -4.9481854,0.0037 -0.198277,-0.872193 -2.171572,-0.01522 -0.212757,0.461159 -0.138496,0.175998 0.355523,-0.734254 2.125532,0.07816 L -12.77,5.317015 -13.193472,5.1076 Z m 5.73832,1.444745 -0.170615,0.216841 -0.282748,0.06312 0.0032,-0.02729 z m 1.88307,3.7087721 0.381142,0.13534 0.159661,0.181753 a 2.4788652,2.3724004 0 0 0 -0.540803,-0.317093 z" />
      <g
         id="g24590"
         style="fill:url(#radialGradient680);fill-opacity:1">
        <path
           id="path14433"
           style="fill:url(#radialGradient678);fill-opacity:1;stroke-width:0.0950537"
           d="m -20.803374,1.242433 -0.522982,0.04753 -0.04214,2.42146 0.228909,0.398224 7.799801,0.04214 0.567909,-0.154277 0.01634,-2.530438 -0.308554,-0.217027 z m -0.24636,3.9033341 -0.299828,0.202361 -0.0017,2.518741 0.24636,0.288689 5.190833,-0.01281 0.0828,-0.705664 -0.02711,2.429443 -0.101923,-0.758945 c 0,0 -2.422481,0.02358 -2.474928,0.02358 l -2.581863,-0.01745 -0.353482,0.262326 -0.01857,2.4335289 0.274208,0.331203 0.57515,0.04753 1.629283,-0.03565 1.967169,0.03249 0.222783,-0.761174 0.338629,-0.588145 0.550459,-0.585176 0.730912,-0.189365 0.902454,-0.03546 0.463016,0.164488 a 2.4788652,2.3724004 0 0 0 -0.707705,-0.09914 2.4788652,2.3724004 0 0 0 -2.478826,2.372448 2.4788652,2.3724004 0 0 0 2.478826,2.372448 2.4788652,2.3724004 0 0 0 2.478826,-2.372448 2.4788652,2.3724004 0 0 0 -0.01801,-0.284976 l 3.9759235,-0.0072 0.343828,-0.09784 c 0,0 0.088,-5.3080239 0.03342,-5.2533969 l -4.9481835,0.0037 -0.198277,-0.872193 -2.171572,-0.01522 -0.212757,0.461159 -0.138496,0.175998 0.355523,-0.734253 2.125531,0.07816 0.08132,-0.542104 -0.423472,-0.209416 z m 5.73832,1.444744 -0.170615,0.216842 -0.282748,0.06312 0.0032,-0.02729 z m 1.883069,3.7087729 0.381143,0.13534 0.159661,0.181753 a 2.4788652,2.3724004 0 0 0 -0.540804,-0.317093 z" />
      </g>
    </g>
    <path
       style="display:inline;fill:#030304;fill-opacity:1;stroke-width:0.0489625"
       d="m 13.137026,18.740827 c -0.77137,-0.138447 -1.565902,-0.640737 -1.956491,-1.236853 -0.149306,-0.22787 -0.0028,-0.496771 0.208672,-0.383062 0.04518,0.02428 0.157098,0.144394 0.24871,0.266901 0.307551,0.41128 0.793019,0.726807 1.338643,0.870057 1.88758,0.495571 3.61638,-1.330977 2.999388,-3.168973 -0.365462,-1.088692 -1.248917,-1.733652 -2.374727,-1.733652 -1.125845,0 -2.010167,0.647654 -2.377189,1.740988 -0.109881,0.327326 -0.126413,0.449889 -0.112236,0.831877 0.01751,0.472174 -0.02836,0.609703 -0.203522,0.609703 -0.139141,0 -0.196594,-0.11542 -0.228725,-0.45951 l -0.03027,-0.32389 H 8.5174648 c -2.0524808,0 -2.1395709,-0.0035 -2.3401851,-0.100872 -0.1530214,-0.07408 -0.2359174,-0.157779 -0.3120878,-0.315136 -0.099295,-0.205114 -0.1030806,-0.272479 -0.088634,-1.576102 0.014947,-1.348877 0.016191,-1.363404 0.1329972,-1.527135 0.064841,-0.09091 0.2135617,-0.207622 0.3304975,-0.259343 0.2098524,-0.09282 0.2126012,-0.09721 0.2126012,-0.338309 0,-0.241747 -0.00222,-0.245205 -0.2137488,-0.335881 C 6.1213384,11.251235 5.972618,11.13635 5.908408,11.046318 5.7917213,10.882719 5.7916591,10.881848 5.7916591,9.4382358 c 0,-1.4165237 0.00222,-1.4473594 0.1094056,-1.5977788 C 5.9612407,7.756099 6.111091,7.6397789 6.2340712,7.5819737 L 6.4576716,7.4768691 6.4429034,7.2228543 C 6.4289353,6.98236 6.4195983,6.9663995 6.2674957,6.9229861 6.0423244,6.8587199 5.8294607,6.5993295 5.7918802,6.3434133 5.7749332,6.2278267 5.7679056,5.5674645 5.7763118,4.8759416 5.7931677,3.4921076 5.7916108,3.499361 6.128591,3.2474893 6.3209274,3.103737 7.1933901,3.068302 7.3371507,3.1984033 c 0.052094,0.047141 0.094719,0.1219606 0.094719,0.1662612 0,0.1605329 -0.108529,0.1980516 -0.5728603,0.1980516 -0.6899465,0 -0.6512054,-0.088846 -0.6512054,1.4933635 0,1.2322222 0.00494,1.3024346 0.097926,1.3954371 0.096466,0.096465 0.1632116,0.097922 4.480081,0.097922 4.316873,0 4.383615,-0.00119 4.480083,-0.097922 0.09308,-0.093082 0.09792,-0.1632149 0.09792,-1.4171418 0,-1.3077348 -7.92e-4,-1.3198766 -0.108822,-1.395433 -0.09602,-0.067253 -0.518766,-0.076226 -3.592755,-0.076226 -3.02358,0 -3.4919239,-0.00958 -3.5443653,-0.072807 -0.087096,-0.1049464 -0.020678,-0.3121012 0.1103812,-0.3442125 0.060178,-0.014776 1.6776812,-0.020599 3.5944421,-0.012994 3.432566,0.013627 3.487055,0.01533 3.620207,0.1147745 0.07435,0.055524 0.180618,0.1617412 0.236141,0.2360497 0.09508,0.1272411 0.101821,0.2110728 0.115935,1.4413737 0.0083,0.7184487 0.0015,1.3783474 -0.0147,1.4664457 -0.03875,0.2092545 -0.284399,0.4855325 -0.467524,0.5257489 -0.139913,0.03074 -0.144838,0.041369 -0.144838,0.3122755 0,0.2798828 3.21e-4,0.2806435 0.194669,0.3663529 0.245149,0.1081552 0.384984,0.3023006 0.424288,0.5890843 l 0.03067,0.2238049 1.493724,0.012954 c 1.361003,0.011765 1.498529,0.02056 1.547758,0.098624 0.03938,0.062459 0.03942,0.1089071 1.5e-5,0.1713674 -0.04897,0.077687 -0.19516,0.087968 -1.566551,0.1101675 -0.959402,0.015529 -1.512549,0.042388 -1.512549,0.073445 0,0.026898 0.03042,0.1536162 0.06757,0.2815347 l 0.06757,0.2325715 h 2.223879 2.223879 L 20.348177,9.1077418 20.333519,8.826207 19.97135,8.8017253 c -0.397304,-0.026858 -0.522604,-0.1116885 -0.41582,-0.2815307 0.04297,-0.068339 0.136915,-0.088602 0.464074,-0.1000891 0.621124,-0.021788 0.779062,0.1146199 0.779062,0.6729674 0,0.2961288 4e-5,0.2962119 0.146118,0.2962119 0.09225,0 0.205063,0.052651 0.306012,0.1428372 l 0.159907,0.1428452 0.01378,2.7927988 c 0.01181,2.389879 0.0032,2.818077 -0.05945,2.968045 -0.132312,0.316673 -0.148209,0.318614 -2.614198,0.318614 h -2.19786 l -0.03094,0.33291 c -0.1088,1.17071 -0.885158,2.153663 -1.995356,2.526338 -0.414608,0.139181 -1.016106,0.194222 -1.389716,0.127162 z m -2.336384,-3.760818 c 0.142454,-0.442306 0.421251,-0.893849 0.762757,-1.235352 l 0.278496,-0.278499 -0.01386,-0.557323 -0.01386,-0.557325 H 9.0805264 c -2.6494927,0 -2.7357643,0.0028 -2.8031057,0.09504 -0.1074087,0.146929 -0.1014036,2.603978 0.00676,2.758374 l 0.076222,0.108825 H 8.5268296 10.693248 Z M 7.144102,14.446623 C 6.9124281,14.332494 6.7958219,14.119432 6.7955993,13.809847 c -1.601e-4,-0.21572 0.023309,-0.282098 0.1511756,-0.427736 0.4302377,-0.490012 1.2195963,-0.210791 1.2195963,0.431412 0,0.5558 -0.5224261,0.879342 -1.0222692,0.6331 z M 7.7070389,13.965269 C 7.8620396,13.728713 7.596179,13.459743 7.3418787,13.595842 c -0.1418571,0.07592 -0.1770715,0.232168 -0.084248,0.373832 0.1089072,0.16621 0.3390955,0.163956 0.4494083,-0.0044 z m 1.4014155,0.467417 C 8.6715128,14.16628 8.6335941,13.552183 9.0363686,13.265384 c 0.2262967,-0.16114 0.4650361,-0.181077 0.7156201,-0.05976 0.2596163,0.125672 0.3654663,0.271735 0.4009123,0.553199 0.07044,0.559289 -0.5625468,0.967689 -1.0444463,0.673874 z m 0.5477819,-0.419947 c 0.1600147,-0.160018 0.021745,-0.461648 -0.2116388,-0.461648 -0.1966453,0 -0.3318568,0.339232 -0.1912578,0.479835 0.08319,0.08319 0.3118395,0.07287 0.4028966,-0.01818 z M 20.98275,12.5596 20.99539,9.8299384 18.363239,9.8295414 C 16.809907,9.8292206 15.701314,9.8099694 15.658443,9.7828544 15.618503,9.7575814 15.519342,9.5320924 15.438113,9.281738 L 15.290418,8.8265596 14.311165,8.8126946 c -0.538588,-0.00764 -1.025273,-0.00277 -1.08153,0.011171 -0.08039,0.019688 -0.130604,0.1194727 -0.234658,0.4661809 -0.145567,0.4850418 -0.198361,0.5402403 -0.516689,0.5402403 h -0.19907 v 1.6944492 c 0,1.595089 0.0051,1.692299 0.08569,1.657779 0.84662,-0.362332 1.753399,-0.349708 2.533816,0.03525 0.711738,0.351097 1.252893,0.985794 1.503228,1.763058 l 0.107643,0.334226 2.230245,-0.01276 2.230244,-0.01271 z M 11.838569,11.641103 V 11.34688 l -2.4848546,0.01268 -2.4848537,0.01268 -0.015347,0.213691 c -0.027132,0.378503 -0.2364866,0.349378 2.5108883,0.349378 h 2.474147 z m 0.0083,-1.350158 0.01624,-0.6161682 0.159903,-0.1427581 c 0.110972,-0.099067 0.211461,-0.1427461 0.328418,-0.1427461 0.166666,0 0.16968,-0.004 0.273077,-0.3510578 0.06618,-0.222264 0.155383,-0.4018949 0.243117,-0.4896248 l 0.13854,-0.1385746 H 14.185033 15.3639 V 8.2792248 c 0,-0.071931 -0.03649,-0.1710782 -0.08102,-0.2203307 -0.07736,-0.08548 -0.280802,-0.08954 -4.488469,-0.08954 -4.032451,0 -4.4150517,0.00689 -4.4969733,0.081035 -0.082455,0.074618 -0.089541,0.183739 -0.089541,1.3793378 0,1.1393781 0.00992,1.3092641 0.081036,1.3878431 0.07666,0.08471 0.2284449,0.08954 2.8113562,0.08954 H 11.830578 Z M 7.2067444,10.079373 C 6.9285187,9.9530237 6.7953615,9.7508562 6.7955881,9.4551551 6.7959087,9.0288183 7.0652561,8.7527542 7.4808824,8.7527542 c 0.4082118,0 0.6851125,0.2770464 0.6851125,0.6854816 0,0.2936644 -0.1432413,0.519644 -0.4045914,0.6382852 -0.2563242,0.116355 -0.3041929,0.116605 -0.5546591,0.0028 z M 7.667499,9.6321755 C 7.7945935,9.5137685 7.8007362,9.448286 7.6984576,9.30224 7.6496286,9.2325229 7.5714522,9.1934155 7.4809058,9.1934155 c -0.1398155,0 -0.2937755,0.145844 -0.2937755,0.2782865 0,0.084818 0.1980567,0.2603052 0.2937755,0.2603052 0.043723,0 0.1276821,-0.044926 0.1866166,-0.099831 z M 9.1556944,10.068523 C 8.7837717,9.8844278 8.653833,9.4582688 8.8585517,9.0940115 9.0042847,8.8347201 9.2122281,8.7325826 9.5318753,8.7632955 c 0.5839157,0.056109 0.8303317,0.6949892 0.43966,1.1399405 -0.1272489,0.144929 -0.382393,0.268292 -0.5566287,0.269124 -0.026898,1.46e-4 -0.1435741,-0.0466 -0.2592122,-0.103839 z M 9.6243472,9.6557896 C 9.826959,9.5138714 9.7204778,9.1811827 9.4724424,9.1811827 c -0.1772145,0 -0.2778665,0.094274 -0.2778665,0.2602698 0,0.13249 0.1465015,0.2905547 0.2692939,0.2905547 0.028443,0 0.1006251,-0.034305 0.1604774,-0.076218 z M 14.727352,7.2593986 V 6.9901046 H 10.785866 6.8443684 v 0.269294 0.2692939 h 3.9414976 3.941486 z M 13.424435,17.447186 c -0.01478,-0.03843 -0.01957,-0.119238 -0.0107,-0.179555 0.01351,-0.09216 0.06586,-0.119778 0.327789,-0.173007 0.340841,-0.06927 0.473767,-0.140258 0.693801,-0.370496 0.176687,-0.184885 0.18192,-0.235278 0.02448,-0.235278 -0.131805,0 -0.238835,-0.144108 -0.193936,-0.261113 0.01525,-0.03981 0.144651,-0.14996 0.287508,-0.244812 0.403247,-0.267743 0.466799,-0.260505 0.6804,0.07751 0.223733,0.354025 0.236869,0.406668 0.133413,0.534432 -0.07657,0.09456 -0.107157,0.102857 -0.208697,0.05659 -0.109594,-0.04994 -0.129649,-0.03736 -0.254291,0.15967 -0.168679,0.266619 -0.37529,0.443243 -0.690929,0.590657 -0.286241,0.133678 -0.744808,0.160077 -0.788811,0.04541 z m -1.394098,-1.753981 c -0.237606,-0.3262 -0.283551,-0.437932 -0.234101,-0.569352 0.03788,-0.100652 0.06701,-0.112687 0.214746,-0.08871 0.149258,0.0242 0.179746,0.01109 0.240454,-0.103882 0.197299,-0.373563 0.701256,-0.712708 1.146889,-0.771821 0.281424,-0.03731 0.398738,0.02024 0.398738,0.195742 0,0.141388 -0.08929,0.224067 -0.242364,0.2244 -0.264616,3.95e-4 -0.501362,0.108348 -0.726816,0.33083 -0.207349,0.204619 -0.219891,0.229105 -0.125351,0.24465 0.162256,0.0267 0.293803,0.195192 0.231217,0.2962 -0.0709,0.114422 -0.562087,0.444152 -0.666463,0.447388 -0.04695,0.0015 -0.153581,-0.09099 -0.236949,-0.205445 z M 7.158291,5.6734525 C 6.9004234,5.5162036 6.795417,5.3408549 6.795417,5.0674926 6.795417,4.5115734 7.3034084,4.1876037 7.8032204,4.4247784 8.1692076,4.5984475 8.2961833,5.163581 8.0381359,5.4702629 7.7873104,5.7683445 7.4439449,5.8476404 7.158291,5.6734525 Z M 7.7094228,5.1973244 c 0.075268,-0.1148775 0.076451,-0.14132 0.011476,-0.2570532 -0.056208,-0.100141 -0.1099083,-0.1290038 -0.2400229,-0.1290038 -0.1301104,0 -0.1838144,0.028879 -0.2400226,0.1290038 -0.064961,0.1157332 -0.063774,0.1421757 0.011476,0.2570532 0.059135,0.090258 0.1265922,0.1280492 0.228534,0.1280492 0.1019416,0 0.1693896,-0.037792 0.2285293,-0.1280492 z M 9.1465991,5.680278 C 8.646223,5.4288778 8.6249304,4.738587 9.1084505,4.4437815 9.5395686,4.1809287 10.105471,4.4802662 10.158848,4.999348 10.18622,5.2657184 10.052463,5.5112002 9.8015183,5.6550675 9.5711931,5.7871138 9.3743297,5.794692 9.1465951,5.6803018 Z M 9.6436351,5.2443426 C 9.7535269,5.1448908 9.7594118,4.9669039 9.6562716,4.8637246 9.4982381,4.7056912 9.1946263,4.8066406 9.1946263,5.0172219 c 0,0.2623298 0.2630943,0.3953982 0.4490474,0.2271207 z M 10.79346,5.6764988 c -0.103849,-0.1147508 -0.102107,-0.1699849 0.0086,-0.2700903 0.173158,-0.1567101 0.546971,-0.061513 0.546971,0.1392998 0,0.2061012 -0.401725,0.3006923 -0.55548,0.1307905 z m 1.077176,0 C 11.69867,5.486477 11.838346,5.3253736 12.175012,5.3253736 c 0.252185,0 0.349034,0.061136 0.349034,0.2203347 0,0.1585918 -0.09665,0.2203307 -0.344945,0.2203307 -0.158145,0 -0.252114,-0.027255 -0.308465,-0.08954 z m 1.20179,0.03078 c -0.03232,-0.032326 -0.05875,-0.1050258 -0.05875,-0.1615748 0,-0.056557 0.02646,-0.1292654 0.05875,-0.1615827 0.06391,-0.063902 0.47183,-0.07949 0.55685,-0.021273 0.09568,0.065518 0.112449,0.1946685 0.0389,0.2996503 -0.05651,0.08067 -0.123833,0.1035438 -0.304776,0.1035438 -0.127732,0 -0.258681,-0.026422 -0.290995,-0.058756 z m 1.195885,-0.015608 c -0.164281,-0.1642765 -0.03221,-0.3663133 0.23944,-0.3663133 0.219079,0 0.349727,0.1650568 0.250104,0.3159834 -0.08594,0.1302042 -0.379492,0.1603824 -0.489544,0.05033 z M 10.79346,4.6972257 c -0.04457,-0.049244 -0.08103,-0.1137722 -0.08103,-0.1433918 0,-0.1125323 0.159155,-0.2077334 0.347283,-0.2077334 0.158703,0 0.203396,0.021907 0.249083,0.12221 0.046,0.1009768 0.04026,0.1392523 -0.03316,0.2203308 -0.112885,0.1247374 -0.372909,0.1293683 -0.482217,0.0086 z m 1.077176,0 c -0.101158,-0.1117875 -0.102118,-0.1761489 -0.004,-0.2741823 0.09233,-0.092325 0.511868,-0.1050688 0.598746,-0.018183 0.08996,0.089952 0.06992,0.2745666 -0.03594,0.331223 -0.155442,0.08319 -0.467908,0.061462 -0.558696,-0.038861 z m 1.22872,0.036643 c -0.09836,-0.057286 -0.11351,-0.2424394 -0.02689,-0.3290244 0.0639,-0.063902 0.471834,-0.079498 0.556851,-0.021273 0.09568,0.065514 0.112453,0.1946646 0.0389,0.2996465 -0.05462,0.077968 -0.123236,0.1031788 -0.277839,0.1020585 -0.11292,-7.923e-4 -0.243873,-0.023927 -0.290999,-0.051395 z M 14.26204,4.6886297 C 14.18866,4.6075507 14.1829,4.5692758 14.22888,4.468299 c 0.04515,-0.099107 0.09058,-0.1220675 0.240339,-0.1214574 0.205476,7.923e-4 0.275644,0.034425 0.319184,0.1527566 0.08812,0.2395239 -0.34119,0.3936908 -0.526406,0.1890315 z"
       id="path22681-6" />
    <text
       xml:space="preserve"
       transform="matrix(0.1048128,0,0,0.1048128,-45.235012,-33.965799)"
       id="text22701-2"
       style="font-style:normal;font-variant:normal;font-weight:normal;font-stretch:normal;font-size:16px;line-height:21.3333px;font-family:Arial;-inkscape-font-specification:Arial;text-align:center;white-space:pre;shape-inside:url(#rect22711-4);display:inline;fill:#283442;fill-opacity:1;stroke-opacity:1"><tspan
         x="560.86621"
         y="537.76231"
         id="tspan2018">
</tspan><tspan
         x="455.03204"
         y="559.83098"
         id="tspan2022"><tspan
           style="font-size:18.6667px"
           id="tspan2020">Centralize e automatize a </tspan></tspan><tspan
         x="459.68048"
         y="581.89965"
         id="tspan2026"><tspan
           style="font-size:18.6667px"
           id="tspan2024">proteção de dados entre </tspan></tspan><tspan
         x="468.52164"
         y="603.96831"
         id="tspan2030"><tspan
           style="font-size:18.6667px"
           id="tspan2028">os serviços da cloud e </tspan></tspan><tspan
         x="491.34916"
         y="626.03698"
         id="tspan2034"><tspan
           style="font-size:18.6667px"
           id="tspan2032">ambientes locais</tspan></tspan></text>
    <text
       xml:space="preserve"
       style="font-style:normal;font-variant:normal;font-weight:normal;font-stretch:normal;font-size:2.236px;line-height:0px;font-family:Arial;-inkscape-font-specification:Arial;text-align:center;text-anchor:middle;display:inline;fill:#283442;fill-opacity:1;stroke-width:0.104813;stroke-opacity:1;filter:url(#filter468)"
       x="13.639519"
       y="21.751194"
       id="text22705-1"><tspan
         sodipodi:role="line"
         id="tspan22703-7"
         style="font-style:normal;font-variant:normal;font-weight:bold;font-stretch:normal;font-family:Arial;-inkscape-font-specification:'Arial Bold';stroke-width:0.104813"
         x="13.639519"
         y="21.751194">Automação</tspan></text>
    <text
       xml:space="preserve"
       transform="matrix(0.1048128,0,0,0.1048128,-45.223456,-33.954243)"
       id="text26010-4"
       style="font-style:normal;font-variant:normal;font-weight:normal;font-stretch:normal;font-size:16px;line-height:21.3333px;font-family:Arial;-inkscape-font-specification:Arial;text-align:center;white-space:pre;shape-inside:url(#rect26020-7);display:inline;fill:#283442;fill-opacity:1;stroke-opacity:1;filter:url(#filter26032-4)"><tspan
         x="560.86621"
         y="537.76231"
         id="tspan2036">
</tspan><tspan
         x="455.03204"
         y="559.83098"
         id="tspan2040"><tspan
           style="font-size:18.6667px"
           id="tspan2038">Centralize e automatize a </tspan></tspan><tspan
         x="459.68048"
         y="581.89965"
         id="tspan2044"><tspan
           style="font-size:18.6667px"
           id="tspan2042">proteção de dados entre </tspan></tspan><tspan
         x="468.52164"
         y="603.96831"
         id="tspan2048"><tspan
           style="font-size:18.6667px"
           id="tspan2046">os serviços da cloud e </tspan></tspan><tspan
         x="491.34916"
         y="626.03698"
         id="tspan2052"><tspan
           style="font-size:18.6667px"
           id="tspan2050">ambientes locais</tspan></tspan></text>
    <rect
       style="fill:#00ff00;fill-opacity:1;stroke-width:1.07957"
       id="rect7241"
       width="20.716625"
       height="17.834639"
       x="-26.203657"
       y="-1.4044504"
       sodipodi:insensitive="true" />
    <g
       id="g662"
       transform="translate(-53.649056,-30.878666)">
      <g
         id="g614"
         transform="matrix(1.1026675,0,0,1.1026675,29.686779,1.9832081)"
         style="fill:url(#radialGradient674);fill-opacity:1">
        <path
           id="path608"
           style="opacity:1;fill:url(#radialGradient668);fill-opacity:1;stroke-width:0.0950537"
           d="m -20.837664,1.1839998 -0.522982,0.04753 -0.04214,2.4214591 0.228909,0.398224 7.799801,0.04214 0.567909,-0.154277 0.01634,-2.5304371 -0.308554,-0.217027 z m -0.24636,3.9033331 -0.299828,0.202361 -0.0017,2.518741 0.24636,0.288689 5.190833,-0.01281 0.0828,-0.705664 -0.02711,2.429443 -0.101923,-0.758945 c 0,0 -2.422481,0.02358 -2.474928,0.02358 l -2.581863,-0.01745 -0.353482,0.262326 -0.01857,2.4335291 0.274208,0.331203 0.57515,0.04753 1.629283,-0.03565 1.967169,0.03249 0.222783,-0.761175 0.338629,-0.588144 0.550459,-0.585176 0.730912,-0.189365 0.902455,-0.03546 0.463016,0.164488 a 2.4788652,2.3724004 0 0 0 -0.707705,-0.09914 2.4788652,2.3724004 0 0 0 -2.478827,2.372448 2.4788652,2.3724004 0 0 0 2.478827,2.37245 2.4788652,2.3724004 0 0 0 2.478825,-2.37245 2.4788652,2.3724004 0 0 0 -0.01801,-0.284976 l 3.9759254,-0.0072 0.343828,-0.09784 c 0,0 0.088,-5.308024 0.03342,-5.253397 l -4.9481854,0.0037 -0.198277,-0.872193 -2.171572,-0.01522 -0.212757,0.461159 -0.138496,0.175998 0.355523,-0.734254 2.125532,0.07816 L -12.77,5.317015 -13.193472,5.1076 Z m 5.73832,1.444745 -0.170615,0.216841 -0.282748,0.06312 0.0032,-0.02729 z m 1.88307,3.7087721 0.381142,0.13534 0.159661,0.181753 a 2.4788652,2.3724004 0 0 0 -0.540803,-0.317093 z" />
        <g
           id="g612"
           style="fill:url(#radialGradient672);fill-opacity:1">
          <path
             id="path610"
             style="fill:url(#radialGradient670);fill-opacity:1;stroke-width:0.0950537"
             d="m -20.803374,1.242433 -0.522982,0.04753 -0.04214,2.42146 0.228909,0.398224 7.799801,0.04214 0.567909,-0.154277 0.01634,-2.530438 -0.308554,-0.217027 z m -0.24636,3.9033341 -0.299828,0.202361 -0.0017,2.518741 0.24636,0.288689 5.190833,-0.01281 0.0828,-0.705664 -0.02711,2.429443 -0.101923,-0.758945 c 0,0 -2.422481,0.02358 -2.474928,0.02358 l -2.581863,-0.01745 -0.353482,0.262326 -0.01857,2.4335289 0.274208,0.331203 0.57515,0.04753 1.629283,-0.03565 1.967169,0.03249 0.222783,-0.761174 0.338629,-0.588145 0.550459,-0.585176 0.730912,-0.189365 0.902454,-0.03546 0.463016,0.164488 a 2.4788652,2.3724004 0 0 0 -0.707705,-0.09914 2.4788652,2.3724004 0 0 0 -2.478826,2.372448 2.4788652,2.3724004 0 0 0 2.478826,2.372448 2.4788652,2.3724004 0 0 0 2.478826,-2.372448 2.4788652,2.3724004 0 0 0 -0.01801,-0.284976 l 3.9759235,-0.0072 0.343828,-0.09784 c 0,0 0.088,-5.3080239 0.03342,-5.2533969 l -4.9481835,0.0037 -0.198277,-0.872193 -2.171572,-0.01522 -0.212757,0.461159 -0.138496,0.175998 0.355523,-0.734253 2.125531,0.07816 0.08132,-0.542104 -0.423472,-0.209416 z m 5.73832,1.444744 -0.170615,0.216842 -0.282748,0.06312 0.0032,-0.02729 z m 1.883069,3.7087729 0.381143,0.13534 0.159661,0.181753 a 2.4788652,2.3724004 0 0 0 -0.540804,-0.317093 z" />
        </g>
      </g>
      <path
         style="display:inline;fill:#030304;fill-opacity:1;stroke-width:0.0489625"
         d="m 13.137026,18.740827 c -0.77137,-0.138447 -1.565902,-0.640737 -1.956491,-1.236853 -0.149306,-0.22787 -0.0028,-0.496771 0.208672,-0.383062 0.04518,0.02428 0.157098,0.144394 0.24871,0.266901 0.307551,0.41128 0.793019,0.726807 1.338643,0.870057 1.88758,0.495571 3.61638,-1.330977 2.999388,-3.168973 -0.365462,-1.088692 -1.248917,-1.733652 -2.374727,-1.733652 -1.125845,0 -2.010167,0.647654 -2.377189,1.740988 -0.109881,0.327326 -0.126413,0.449889 -0.112236,0.831877 0.01751,0.472174 -0.02836,0.609703 -0.203522,0.609703 -0.139141,0 -0.196594,-0.11542 -0.228725,-0.45951 l -0.03027,-0.32389 H 8.5174648 c -2.0524808,0 -2.1395709,-0.0035 -2.3401851,-0.100872 -0.1530214,-0.07408 -0.2359174,-0.157779 -0.3120878,-0.315136 -0.099295,-0.205114 -0.1030806,-0.272479 -0.088634,-1.576102 0.014947,-1.348877 0.016191,-1.363404 0.1329972,-1.527135 0.064841,-0.09091 0.2135617,-0.207622 0.3304975,-0.259343 0.2098524,-0.09282 0.2126012,-0.09721 0.2126012,-0.338309 0,-0.241747 -0.00222,-0.245205 -0.2137488,-0.335881 C 6.1213384,11.251235 5.972618,11.13635 5.908408,11.046318 5.7917213,10.882719 5.7916591,10.881848 5.7916591,9.4382358 c 0,-1.4165237 0.00222,-1.4473594 0.1094056,-1.5977788 C 5.9612407,7.756099 6.111091,7.6397789 6.2340712,7.5819737 L 6.4576716,7.4768691 6.4429034,7.2228543 C 6.4289353,6.98236 6.4195983,6.9663995 6.2674957,6.9229861 6.0423244,6.8587199 5.8294607,6.5993295 5.7918802,6.3434133 5.7749332,6.2278267 5.7679056,5.5674645 5.7763118,4.8759416 5.7931677,3.4921076 5.7916108,3.499361 6.128591,3.2474893 6.3209274,3.103737 7.1933901,3.068302 7.3371507,3.1984033 c 0.052094,0.047141 0.094719,0.1219606 0.094719,0.1662612 0,0.1605329 -0.108529,0.1980516 -0.5728603,0.1980516 -0.6899465,0 -0.6512054,-0.088846 -0.6512054,1.4933635 0,1.2322222 0.00494,1.3024346 0.097926,1.3954371 0.096466,0.096465 0.1632116,0.097922 4.480081,0.097922 4.316873,0 4.383615,-0.00119 4.480083,-0.097922 0.09308,-0.093082 0.09792,-0.1632149 0.09792,-1.4171418 0,-1.3077348 -7.92e-4,-1.3198766 -0.108822,-1.395433 -0.09602,-0.067253 -0.518766,-0.076226 -3.592755,-0.076226 -3.02358,0 -3.4919239,-0.00958 -3.5443653,-0.072807 -0.087096,-0.1049464 -0.020678,-0.3121012 0.1103812,-0.3442125 0.060178,-0.014776 1.6776812,-0.020599 3.5944421,-0.012994 3.432566,0.013627 3.487055,0.01533 3.620207,0.1147745 0.07435,0.055524 0.180618,0.1617412 0.236141,0.2360497 0.09508,0.1272411 0.101821,0.2110728 0.115935,1.4413737 0.0083,0.7184487 0.0015,1.3783474 -0.0147,1.4664457 -0.03875,0.2092545 -0.284399,0.4855325 -0.467524,0.5257489 -0.139913,0.03074 -0.144838,0.041369 -0.144838,0.3122755 0,0.2798828 3.21e-4,0.2806435 0.194669,0.3663529 0.245149,0.1081552 0.384984,0.3023006 0.424288,0.5890843 l 0.03067,0.2238049 1.493724,0.012954 c 1.361003,0.011765 1.498529,0.02056 1.547758,0.098624 0.03938,0.062459 0.03942,0.1089071 1.5e-5,0.1713674 -0.04897,0.077687 -0.19516,0.087968 -1.566551,0.1101675 -0.959402,0.015529 -1.512549,0.042388 -1.512549,0.073445 0,0.026898 0.03042,0.1536162 0.06757,0.2815347 l 0.06757,0.2325715 h 2.223879 2.223879 L 20.348177,9.1077418 20.333519,8.826207 19.97135,8.8017253 c -0.397304,-0.026858 -0.522604,-0.1116885 -0.41582,-0.2815307 0.04297,-0.068339 0.136915,-0.088602 0.464074,-0.1000891 0.621124,-0.021788 0.779062,0.1146199 0.779062,0.6729674 0,0.2961288 4e-5,0.2962119 0.146118,0.2962119 0.09225,0 0.205063,0.052651 0.306012,0.1428372 l 0.159907,0.1428452 0.01378,2.7927988 c 0.01181,2.389879 0.0032,2.818077 -0.05945,2.968045 -0.132312,0.316673 -0.148209,0.318614 -2.614198,0.318614 h -2.19786 l -0.03094,0.33291 c -0.1088,1.17071 -0.885158,2.153663 -1.995356,2.526338 -0.414608,0.139181 -1.016106,0.194222 -1.389716,0.127162 z m -2.336384,-3.760818 c 0.142454,-0.442306 0.421251,-0.893849 0.762757,-1.235352 l 0.278496,-0.278499 -0.01386,-0.557323 -0.01386,-0.557325 H 9.0805264 c -2.6494927,0 -2.7357643,0.0028 -2.8031057,0.09504 -0.1074087,0.146929 -0.1014036,2.603978 0.00676,2.758374 l 0.076222,0.108825 H 8.5268296 10.693248 Z M 7.144102,14.446623 C 6.9124281,14.332494 6.7958219,14.119432 6.7955993,13.809847 c -1.601e-4,-0.21572 0.023309,-0.282098 0.1511756,-0.427736 0.4302377,-0.490012 1.2195963,-0.210791 1.2195963,0.431412 0,0.5558 -0.5224261,0.879342 -1.0222692,0.6331 z M 7.7070389,13.965269 C 7.8620396,13.728713 7.596179,13.459743 7.3418787,13.595842 c -0.1418571,0.07592 -0.1770715,0.232168 -0.084248,0.373832 0.1089072,0.16621 0.3390955,0.163956 0.4494083,-0.0044 z m 1.4014155,0.467417 C 8.6715128,14.16628 8.6335941,13.552183 9.0363686,13.265384 c 0.2262967,-0.16114 0.4650361,-0.181077 0.7156201,-0.05976 0.2596163,0.125672 0.3654663,0.271735 0.4009123,0.553199 0.07044,0.559289 -0.5625468,0.967689 -1.0444463,0.673874 z m 0.5477819,-0.419947 c 0.1600147,-0.160018 0.021745,-0.461648 -0.2116388,-0.461648 -0.1966453,0 -0.3318568,0.339232 -0.1912578,0.479835 0.08319,0.08319 0.3118395,0.07287 0.4028966,-0.01818 z M 20.98275,12.5596 20.99539,9.8299384 18.363239,9.8295414 C 16.809907,9.8292206 15.701314,9.8099694 15.658443,9.7828544 15.618503,9.7575814 15.519342,9.5320924 15.438113,9.281738 L 15.290418,8.8265596 14.311165,8.8126946 c -0.538588,-0.00764 -1.025273,-0.00277 -1.08153,0.011171 -0.08039,0.019688 -0.130604,0.1194727 -0.234658,0.4661809 -0.145567,0.4850418 -0.198361,0.5402403 -0.516689,0.5402403 h -0.19907 v 1.6944492 c 0,1.595089 0.0051,1.692299 0.08569,1.657779 0.84662,-0.362332 1.753399,-0.349708 2.533816,0.03525 0.711738,0.351097 1.252893,0.985794 1.503228,1.763058 l 0.107643,0.334226 2.230245,-0.01276 2.230244,-0.01271 z M 11.838569,11.641103 V 11.34688 l -2.4848546,0.01268 -2.4848537,0.01268 -0.015347,0.213691 c -0.027132,0.378503 -0.2364866,0.349378 2.5108883,0.349378 h 2.474147 z m 0.0083,-1.350158 0.01624,-0.6161682 0.159903,-0.1427581 c 0.110972,-0.099067 0.211461,-0.1427461 0.328418,-0.1427461 0.166666,0 0.16968,-0.004 0.273077,-0.3510578 0.06618,-0.222264 0.155383,-0.4018949 0.243117,-0.4896248 l 0.13854,-0.1385746 H 14.185033 15.3639 V 8.2792248 c 0,-0.071931 -0.03649,-0.1710782 -0.08102,-0.2203307 -0.07736,-0.08548 -0.280802,-0.08954 -4.488469,-0.08954 -4.032451,0 -4.4150517,0.00689 -4.4969733,0.081035 -0.082455,0.074618 -0.089541,0.183739 -0.089541,1.3793378 0,1.1393781 0.00992,1.3092641 0.081036,1.3878431 0.07666,0.08471 0.2284449,0.08954 2.8113562,0.08954 H 11.830578 Z M 7.2067444,10.079373 C 6.9285187,9.9530237 6.7953615,9.7508562 6.7955881,9.4551551 6.7959087,9.0288183 7.0652561,8.7527542 7.4808824,8.7527542 c 0.4082118,0 0.6851125,0.2770464 0.6851125,0.6854816 0,0.2936644 -0.1432413,0.519644 -0.4045914,0.6382852 -0.2563242,0.116355 -0.3041929,0.116605 -0.5546591,0.0028 z M 7.667499,9.6321755 C 7.7945935,9.5137685 7.8007362,9.448286 7.6984576,9.30224 7.6496286,9.2325229 7.5714522,9.1934155 7.4809058,9.1934155 c -0.1398155,0 -0.2937755,0.145844 -0.2937755,0.2782865 0,0.084818 0.1980567,0.2603052 0.2937755,0.2603052 0.043723,0 0.1276821,-0.044926 0.1866166,-0.099831 z M 9.1556944,10.068523 C 8.7837717,9.8844278 8.653833,9.4582688 8.8585517,9.0940115 9.0042847,8.8347201 9.2122281,8.7325826 9.5318753,8.7632955 c 0.5839157,0.056109 0.8303317,0.6949892 0.43966,1.1399405 -0.1272489,0.144929 -0.382393,0.268292 -0.5566287,0.269124 -0.026898,1.46e-4 -0.1435741,-0.0466 -0.2592122,-0.103839 z M 9.6243472,9.6557896 C 9.826959,9.5138714 9.7204778,9.1811827 9.4724424,9.1811827 c -0.1772145,0 -0.2778665,0.094274 -0.2778665,0.2602698 0,0.13249 0.1465015,0.2905547 0.2692939,0.2905547 0.028443,0 0.1006251,-0.034305 0.1604774,-0.076218 z M 14.727352,7.2593986 V 6.9901046 H 10.785866 6.8443684 v 0.269294 0.2692939 h 3.9414976 3.941486 z M 13.424435,17.447186 c -0.01478,-0.03843 -0.01957,-0.119238 -0.0107,-0.179555 0.01351,-0.09216 0.06586,-0.119778 0.327789,-0.173007 0.340841,-0.06927 0.473767,-0.140258 0.693801,-0.370496 0.176687,-0.184885 0.18192,-0.235278 0.02448,-0.235278 -0.131805,0 -0.238835,-0.144108 -0.193936,-0.261113 0.01525,-0.03981 0.144651,-0.14996 0.287508,-0.244812 0.403247,-0.267743 0.466799,-0.260505 0.6804,0.07751 0.223733,0.354025 0.236869,0.406668 0.133413,0.534432 -0.07657,0.09456 -0.107157,0.102857 -0.208697,0.05659 -0.109594,-0.04994 -0.129649,-0.03736 -0.254291,0.15967 -0.168679,0.266619 -0.37529,0.443243 -0.690929,0.590657 -0.286241,0.133678 -0.744808,0.160077 -0.788811,0.04541 z m -1.394098,-1.753981 c -0.237606,-0.3262 -0.283551,-0.437932 -0.234101,-0.569352 0.03788,-0.100652 0.06701,-0.112687 0.214746,-0.08871 0.149258,0.0242 0.179746,0.01109 0.240454,-0.103882 0.197299,-0.373563 0.701256,-0.712708 1.146889,-0.771821 0.281424,-0.03731 0.398738,0.02024 0.398738,0.195742 0,0.141388 -0.08929,0.224067 -0.242364,0.2244 -0.264616,3.95e-4 -0.501362,0.108348 -0.726816,0.33083 -0.207349,0.204619 -0.219891,0.229105 -0.125351,0.24465 0.162256,0.0267 0.293803,0.195192 0.231217,0.2962 -0.0709,0.114422 -0.562087,0.444152 -0.666463,0.447388 -0.04695,0.0015 -0.153581,-0.09099 -0.236949,-0.205445 z M 7.158291,5.6734525 C 6.9004234,5.5162036 6.795417,5.3408549 6.795417,5.0674926 6.795417,4.5115734 7.3034084,4.1876037 7.8032204,4.4247784 8.1692076,4.5984475 8.2961833,5.163581 8.0381359,5.4702629 7.7873104,5.7683445 7.4439449,5.8476404 7.158291,5.6734525 Z M 7.7094228,5.1973244 c 0.075268,-0.1148775 0.076451,-0.14132 0.011476,-0.2570532 -0.056208,-0.100141 -0.1099083,-0.1290038 -0.2400229,-0.1290038 -0.1301104,0 -0.1838144,0.028879 -0.2400226,0.1290038 -0.064961,0.1157332 -0.063774,0.1421757 0.011476,0.2570532 0.059135,0.090258 0.1265922,0.1280492 0.228534,0.1280492 0.1019416,0 0.1693896,-0.037792 0.2285293,-0.1280492 z M 9.1465991,5.680278 C 8.646223,5.4288778 8.6249304,4.738587 9.1084505,4.4437815 9.5395686,4.1809287 10.105471,4.4802662 10.158848,4.999348 10.18622,5.2657184 10.052463,5.5112002 9.8015183,5.6550675 9.5711931,5.7871138 9.3743297,5.794692 9.1465951,5.6803018 Z M 9.6436351,5.2443426 C 9.7535269,5.1448908 9.7594118,4.9669039 9.6562716,4.8637246 9.4982381,4.7056912 9.1946263,4.8066406 9.1946263,5.0172219 c 0,0.2623298 0.2630943,0.3953982 0.4490474,0.2271207 z M 10.79346,5.6764988 c -0.103849,-0.1147508 -0.102107,-0.1699849 0.0086,-0.2700903 0.173158,-0.1567101 0.546971,-0.061513 0.546971,0.1392998 0,0.2061012 -0.401725,0.3006923 -0.55548,0.1307905 z m 1.077176,0 C 11.69867,5.486477 11.838346,5.3253736 12.175012,5.3253736 c 0.252185,0 0.349034,0.061136 0.349034,0.2203347 0,0.1585918 -0.09665,0.2203307 -0.344945,0.2203307 -0.158145,0 -0.252114,-0.027255 -0.308465,-0.08954 z m 1.20179,0.03078 c -0.03232,-0.032326 -0.05875,-0.1050258 -0.05875,-0.1615748 0,-0.056557 0.02646,-0.1292654 0.05875,-0.1615827 0.06391,-0.063902 0.47183,-0.07949 0.55685,-0.021273 0.09568,0.065518 0.112449,0.1946685 0.0389,0.2996503 -0.05651,0.08067 -0.123833,0.1035438 -0.304776,0.1035438 -0.127732,0 -0.258681,-0.026422 -0.290995,-0.058756 z m 1.195885,-0.015608 c -0.164281,-0.1642765 -0.03221,-0.3663133 0.23944,-0.3663133 0.219079,0 0.349727,0.1650568 0.250104,0.3159834 -0.08594,0.1302042 -0.379492,0.1603824 -0.489544,0.05033 z M 10.79346,4.6972257 c -0.04457,-0.049244 -0.08103,-0.1137722 -0.08103,-0.1433918 0,-0.1125323 0.159155,-0.2077334 0.347283,-0.2077334 0.158703,0 0.203396,0.021907 0.249083,0.12221 0.046,0.1009768 0.04026,0.1392523 -0.03316,0.2203308 -0.112885,0.1247374 -0.372909,0.1293683 -0.482217,0.0086 z m 1.077176,0 c -0.101158,-0.1117875 -0.102118,-0.1761489 -0.004,-0.2741823 0.09233,-0.092325 0.511868,-0.1050688 0.598746,-0.018183 0.08996,0.089952 0.06992,0.2745666 -0.03594,0.331223 -0.155442,0.08319 -0.467908,0.061462 -0.558696,-0.038861 z m 1.22872,0.036643 c -0.09836,-0.057286 -0.11351,-0.2424394 -0.02689,-0.3290244 0.0639,-0.063902 0.471834,-0.079498 0.556851,-0.021273 0.09568,0.065514 0.112453,0.1946646 0.0389,0.2996465 -0.05462,0.077968 -0.123236,0.1031788 -0.277839,0.1020585 -0.11292,-7.923e-4 -0.243873,-0.023927 -0.290999,-0.051395 z M 14.26204,4.6886297 C 14.18866,4.6075507 14.1829,4.5692758 14.22888,4.468299 c 0.04515,-0.099107 0.09058,-0.1220675 0.240339,-0.1214574 0.205476,7.923e-4 0.275644,0.034425 0.319184,0.1527566 0.08812,0.2395239 -0.34119,0.3936908 -0.526406,0.1890315 z"
         id="path616" />
      <text
         xml:space="preserve"
         transform="matrix(0.1048128,0,0,0.1048128,-45.235012,-33.965799)"
         id="text636"
         style="font-style:normal;font-variant:normal;font-weight:normal;font-stretch:normal;font-size:16px;line-height:21.3333px;font-family:Arial;-inkscape-font-specification:Arial;text-align:center;white-space:pre;shape-inside:url(#rect664);display:inline;fill:#283442;fill-opacity:1;stroke-opacity:1"><tspan
           x="560.86621"
           y="537.76231"
           id="tspan2054">
</tspan><tspan
           x="455.03204"
           y="559.83098"
           id="tspan2058"><tspan
             style="font-size:18.6667px"
             id="tspan2056">Centralize e automatize a </tspan></tspan><tspan
           x="459.68048"
           y="581.89965"
           id="tspan2062"><tspan
             style="font-size:18.6667px"
             id="tspan2060">proteção de dados entre </tspan></tspan><tspan
           x="468.52164"
           y="603.96831"
           id="tspan2066"><tspan
             style="font-size:18.6667px"
             id="tspan2064">os serviços da cloud e </tspan></tspan><tspan
           x="491.34916"
           y="626.03698"
           id="tspan2070"><tspan
             style="font-size:18.6667px"
             id="tspan2068">ambientes locais</tspan></tspan></text>
      <text
         xml:space="preserve"
         style="font-style:normal;font-variant:normal;font-weight:normal;font-stretch:normal;font-size:2.236px;line-height:0px;font-family:Arial;-inkscape-font-specification:Arial;text-align:center;text-anchor:middle;display:inline;fill:#283442;fill-opacity:1;stroke-width:0.104813;stroke-opacity:1;filter:url(#filter468)"
         x="13.639519"
         y="21.751194"
         id="text640"><tspan
           sodipodi:role="line"
           id="tspan638"
           style="font-style:normal;font-variant:normal;font-weight:bold;font-stretch:normal;font-family:Arial;-inkscape-font-specification:'Arial Bold';stroke-width:0.104813"
           x="13.639519"
           y="21.751194">Automação</tspan></text>
      <text
         xml:space="preserve"
         transform="matrix(0.1048128,0,0,0.1048128,-45.223456,-33.954243)"
         id="text660"
         style="font-style:normal;font-variant:normal;font-weight:normal;font-stretch:normal;font-size:16px;line-height:21.3333px;font-family:Arial;-inkscape-font-specification:Arial;text-align:center;white-space:pre;shape-inside:url(#rect666);display:inline;fill:#283442;fill-opacity:1;stroke-opacity:1;filter:url(#filter26032-4)"><tspan
           x="560.86621"
           y="537.76231"
           id="tspan2072">
</tspan><tspan
           x="455.03204"
           y="559.83098"
           id="tspan2076"><tspan
             style="font-size:18.6667px"
             id="tspan2074">Centralize e automatize a </tspan></tspan><tspan
           x="459.68048"
           y="581.89965"
           id="tspan2080"><tspan
             style="font-size:18.6667px"
             id="tspan2078">proteção de dados entre </tspan></tspan><tspan
           x="468.52164"
           y="603.96831"
           id="tspan2084"><tspan
             style="font-size:18.6667px"
             id="tspan2082">os serviços da cloud e </tspan></tspan><tspan
           x="491.34916"
           y="626.03698"
           id="tspan2088"><tspan
             style="font-size:18.6667px"
             id="tspan2086">ambientes locais</tspan></tspan></text>
    </g>
  </g>
</svg>
