<?xml version="1.0" encoding="UTF-8" standalone="no"?>
<!-- Created with Inkscape (http://www.inkscape.org/) -->

<svg
   width="105"
   height="125"
   viewBox="0 0 27.781249 33.072916"
   version="1.1"
   id="svg5"
   inkscape:version="1.2.2 (b0a8486541, 2022-12-01)"
   sodipodi:docname="protec.svg"
   xmlns:inkscape="http://www.inkscape.org/namespaces/inkscape"
   xmlns:sodipodi="http://sodipodi.sourceforge.net/DTD/sodipodi-0.dtd"
   xmlns:xlink="http://www.w3.org/1999/xlink"
   xmlns="http://www.w3.org/2000/svg"
   xmlns:svg="http://www.w3.org/2000/svg">
  <sodipodi:namedview
     id="namedview7"
     pagecolor="#ffffff"
     bordercolor="#eeeeee"
     borderopacity="1"
     inkscape:showpageshadow="0"
     inkscape:pageopacity="0"
     inkscape:pagecheckerboard="0"
     inkscape:deskcolor="#d1d1d1"
     inkscape:document-units="px"
     showgrid="false"
     inkscape:zoom="1.9527773"
     inkscape:cx="49.160752"
     inkscape:cy="127.25465"
     inkscape:window-width="1920"
     inkscape:window-height="1043"
     inkscape:window-x="0"
     inkscape:window-y="0"
     inkscape:window-maximized="1"
     inkscape:current-layer="layer1" />
  <defs
     id="defs2">
    <rect
       x="447.80301"
       y="522.68451"
       width="234.03755"
       height="144.0538"
       id="rect4368" />
    <filter
       style="color-interpolation-filters:sRGB"
       inkscape:label="Drop Shadow"
       id="filter4412"
       x="-0.035373698"
       y="-0.028412441"
       width="1.0854864"
       height="1.0686634">
      <feFlood
         flood-opacity="1"
         flood-color="rgb(0,0,0)"
         result="flood"
         id="feFlood4402" />
      <feComposite
         in="flood"
         in2="SourceGraphic"
         operator="out"
         result="composite1"
         id="feComposite4404" />
      <feGaussianBlur
         in="composite1"
         stdDeviation="1"
         result="blur"
         id="feGaussianBlur4406" />
      <feOffset
         dx="1"
         dy="1"
         result="offset"
         id="feOffset4408" />
      <feComposite
         in="offset"
         in2="SourceGraphic"
         operator="in"
         result="composite2"
         id="feComposite4410" />
    </filter>
    <rect
       x="447.80301"
       y="522.68451"
       width="234.03755"
       height="144.0538"
       id="rect4400" />
    <rect
       x="251.54297"
       y="738.31445"
       width="157.14275"
       height="78.953087"
       id="rect7650" />
    <filter
       style="color-interpolation-filters:sRGB"
       inkscape:label="Drop Shadow"
       id="filter7700"
       x="-0.035373699"
       y="-0.028412441"
       width="1.0854864"
       height="1.0686634">
      <feFlood
         flood-opacity="1"
         flood-color="rgb(0,0,0)"
         result="flood"
         id="feFlood7690" />
      <feComposite
         in="flood"
         in2="SourceGraphic"
         operator="out"
         result="composite1"
         id="feComposite7692" />
      <feGaussianBlur
         in="composite1"
         stdDeviation="1"
         result="blur"
         id="feGaussianBlur7694" />
      <feOffset
         dx="1"
         dy="1"
         result="offset"
         id="feOffset7696" />
      <feComposite
         in="offset"
         in2="SourceGraphic"
         operator="in"
         result="composite2"
         id="feComposite7698" />
    </filter>
    <rect
       x="251.54297"
       y="738.31445"
       width="157.14275"
       height="78.953087"
       id="rect7688" />
    <rect
       x="251.54297"
       y="738.31445"
       width="157.14275"
       height="78.953087"
       id="rect7650-4" />
    <filter
       style="color-interpolation-filters:sRGB"
       inkscape:label="Drop Shadow"
       id="filter7700-7"
       x="-0.035373699"
       y="-0.028412441"
       width="1.0854864"
       height="1.0686634">
      <feFlood
         flood-opacity="1"
         flood-color="rgb(0,0,0)"
         result="flood"
         id="feFlood7690-7" />
      <feComposite
         in="flood"
         in2="SourceGraphic"
         operator="out"
         result="composite1"
         id="feComposite7692-5" />
      <feGaussianBlur
         in="composite1"
         stdDeviation="1"
         result="blur"
         id="feGaussianBlur7694-4" />
      <feOffset
         dx="1"
         dy="1"
         result="offset"
         id="feOffset7696-8" />
      <feComposite
         in="offset"
         in2="SourceGraphic"
         operator="in"
         result="composite2"
         id="feComposite7698-1" />
    </filter>
    <rect
       x="251.54297"
       y="738.31445"
       width="157.14275"
       height="78.953087"
       id="rect7688-2" />
    <linearGradient
       inkscape:collect="always"
       xlink:href="#linearGradient86613"
       id="linearGradient86615"
       x1="207.10115"
       y1="-73.568466"
       x2="238.98975"
       y2="-73.568466"
       gradientUnits="userSpaceOnUse" />
    <linearGradient
       inkscape:collect="always"
       id="linearGradient86613">
      <stop
         style="stop-color:#3271c8;stop-opacity:1;"
         offset="0"
         id="stop86609" />
      <stop
         style="stop-color:#3271c8;stop-opacity:0;"
         offset="1"
         id="stop86611" />
    </linearGradient>
    <rect
       x="251.54297"
       y="738.31445"
       width="157.14275"
       height="78.953087"
       id="rect7650-8" />
    <filter
       style="color-interpolation-filters:sRGB"
       inkscape:label="Drop Shadow"
       id="filter7700-9"
       x="-0.035373699"
       y="-0.028412441"
       width="1.0854864"
       height="1.0686634">
      <feFlood
         flood-opacity="1"
         flood-color="rgb(0,0,0)"
         result="flood"
         id="feFlood7690-3" />
      <feComposite
         in="flood"
         in2="SourceGraphic"
         operator="out"
         result="composite1"
         id="feComposite7692-6" />
      <feGaussianBlur
         in="composite1"
         stdDeviation="1"
         result="blur"
         id="feGaussianBlur7694-8" />
      <feOffset
         dx="1"
         dy="1"
         result="offset"
         id="feOffset7696-0" />
      <feComposite
         in="offset"
         in2="SourceGraphic"
         operator="in"
         result="composite2"
         id="feComposite7698-2" />
    </filter>
    <rect
       x="251.54297"
       y="738.31445"
       width="157.14275"
       height="78.953087"
       id="rect7688-1" />
  </defs>
  <g
     inkscape:label="Layer 1"
     inkscape:groupmode="layer"
     id="layer1">
    <g
       id="g129557"
       transform="matrix(0.35925872,0,0,0.35925872,-66.429447,37.344751)"
       style="display:inline">
      <g
         id="g129513">
        <path
           style="fill:url(#linearGradient86615);fill-opacity:1;stroke-width:0.264583"
           d="m 232.09354,-57.874161 -3.22527,0.09647 -0.12935,-2.455905 -4.06754,0.106151 0.0579,2.438731 -3.01242,-0.222899 -0.37637,-2.213274 -3.88355,-0.07436 -0.24811,2.419181 h -2.99598 l -0.15694,-2.316684 -2.62966,-0.08751 -1.45048,-0.669793 -0.25122,-1.168024 -0.14434,-2.473995 -2.26644,-0.11017 -0.0387,-3.106147 2.16157,-0.02156 0.0736,-0.622654 0.009,-1.552617 0.11035,-2.008278 -1.82484,-0.120221 -0.7036,-0.296344 0.13502,-2.835198 2.438,-0.247746 0.004,-3.945397 c 0,0 -2.45298,0.168452 -2.47244,-0.08971 -0.0194,-0.258162 0.0507,-3.461324 0.0507,-3.461324 l 2.11928,0.16489 0.27725,-3.114825 1.25399,-1.210686 2.97524,-0.01892 0.096,-0.713549 0.17484,-1.641684 2.97552,0.03955 0.16087,2.155629 4.20145,0.180147 0.0494,-2.337512 3.06166,-0.01992 0.22006,2.223413 4.02478,0.02037 0.0403,-2.239126 2.98291,0.159408 0.23195,2.019515 2.78422,-0.0059 1.28514,0.847654 0.39491,1.394486 -0.001,2.109682 2.36803,0.315621 -0.0234,2.965556 -2.42914,0.150548 -0.0209,4.259556 2.45819,0.04696 -0.0284,2.930567 -2.31449,0.210108 -0.0523,0.755481 0.149,3.39966 2.31796,0.02395 -0.0992,2.976975 -2.16001,0.111268 c 0,0 0.10167,3.785714 -0.47403,3.975724 -0.57569,0.190013 -2.15828,0.793758 -2.15828,0.793758 l -2.10027,-0.210476 z"
           id="path65798" />
      </g>
      <g
         id="g86660">
        <g
           id="g7759"
           transform="translate(-37.797026,-0.23313002)">
          <g
             id="g7720">
            <g
               id="g7648"
               transform="translate(216.93082,-290.64388)">
              <g
                 id="g7646"
                 transform="translate(131.08451,-13.082406)">
                <g
                   id="g7644"
                   transform="translate(-124.85684,-0.37417734)">
                  <g
                     id="g7642">
                    <g
                       id="g7640"
                       transform="translate(27.194206,-65.893653)">
                      <path
                         id="path7614"
                         style="display:inline;fill:#283442;fill-opacity:1;stroke:none;stroke-width:0.236072;stroke-opacity:1"
                         d="m -19.69918,269.54305 -3.7375,2.23462 v 80.00177 l 0.90372,1.55366 32.91619,0.67992 32.915678,-0.67992 1.11143,-5.06199 -0.95692,-3.45243 -0.95692,3.26783 -0.3308,2.61048 c -0.0386,0.0205 -12.201229,0.0333 -22.493408,0.0461 h -36.03213 c -0.73761,-0.003 -5.0284,9.9e-4 -5.03383,-0.004 l -0.33636,-38.96035 0.31154,-36.07081 c 0.004,-0.21484 0.0161,-1.60529 0.0192,-1.69827 h 63.571018 l 0.32472,32.28714 0.2548,33.68543 1.3247,-0.12665 0.33434,-33.86952 -0.20719,-34.20846 -0.90424,-1.55366 -28.806858,-0.68096 -28.44414,0.53378 -0.0461,1.24346 h -3.13063 l 0.0775,-0.0441 z" />
                      <text
                         xml:space="preserve"
                         style="font-weight:bold;font-size:5.64444px;line-height:0;font-family:'FiraCode Nerd Font';-inkscape-font-specification:'FiraCode Nerd Font Bold';text-align:start;writing-mode:lr-tb;direction:ltr;text-anchor:start;display:inline;fill:none;stroke:#000000;stroke-width:0.309346"
                         x="-0.21172257"
                         y="300.05133"
                         id="text7618"
                         transform="scale(0.92527901,1.0807551)"><tspan
                           sodipodi:role="line"
                           id="tspan7616"
                           style="font-style:normal;font-variant:normal;font-weight:bold;font-stretch:normal;font-size:5.64444px;line-height:0;font-family:Roboto;-inkscape-font-specification:'Roboto, Bold';font-variant-ligatures:normal;font-variant-caps:normal;font-variant-numeric:normal;font-variant-east-asian:normal;fill:#283442;fill-opacity:1;stroke:none;stroke-width:0.309346"
                           x="-0.21172257"
                           y="300.05133">Proteção</tspan></text>
                      <text
                         xml:space="preserve"
                         transform="matrix(0.38669053,0,0,0.38669053,-117.26135,41.881496)"
                         id="text7636"
                         style="font-style:italic;font-size:12.7722px;line-height:14.5968px;font-family:Roboto;-inkscape-font-specification:'Roboto Italic';text-align:center;word-spacing:0px;white-space:pre;shape-inside:url(#rect7650-8);display:inline;fill:none;stroke:#283442"
                         x="173.98344"
                         y="0"><tspan
                           x="251.64985"
                           y="749.13484"
                           id="tspan132976"><tspan
                             style="font-style:normal;font-family:Arial;-inkscape-font-specification:Arial;letter-spacing:0.03px;fill:#283442;stroke:none"
                             id="tspan132974">Os recursos são protegidos </tspan></tspan><tspan
                           x="271.99458"
                           y="764.06056"
                           id="tspan132980"><tspan
                             style="font-style:normal;font-family:Arial;-inkscape-font-specification:Arial;letter-spacing:0.03px;fill:#283442;stroke:none"
                             id="tspan132978">automaticamente de </tspan></tspan><tspan
                           x="251.6555"
                           y="778.98628"
                           id="tspan132984"><tspan
                             style="font-style:normal;font-family:Arial;-inkscape-font-specification:Arial;letter-spacing:0.03px;fill:#283442;stroke:none"
                             id="tspan132982">acordo com seus planos de </tspan></tspan><tspan
                           x="309.44658"
                           y="793.912"
                           id="tspan132988"><tspan
                             style="font-style:normal;font-family:Arial;-inkscape-font-specification:Arial;letter-spacing:0.03px;fill:#283442;stroke:none"
                             id="tspan132986">backup</tspan></tspan></text>
                      <path
                         style="fill:#283442;fill-opacity:1;stroke-width:0.124074"
                         d="m 2.516808,314.30862 -0.0374,-1.3338 -0.74445,-0.0624 -0.74445,-0.0624 -0.0623,-1.11667 -0.0623,-1.11661 -1.42679,-0.0624 c -1.62768,-0.071 -2.12336,-0.27655 -2.63037,-1.09195 -0.24167,-0.38805 -0.29524,-0.6793 -0.34755,-1.88585 l -0.0623,-1.42685 -1.11668,-0.0623 -1.11667,-0.0624 -0.0623,-0.74445 -0.0623,-0.74444 -1.33373,-0.0374 -1.33381,-0.0374 v -0.55435 -0.55435 h 1.36483 1.36475 v -0.65755 c 0,-0.3619 0.0673,-0.72458 0.14887,-0.80649 0.0922,-0.0922 0.54314,-0.14887 1.17871,-0.14887 h 1.02978 v -1.4889 -1.48889 h -0.93872 c -1.28229,0 -1.4187,-0.0897 -1.4187,-0.93492 v -0.67799 h -1.36475 -1.36483 v -0.62037 -0.62037 h 1.36483 1.36475 v -0.67806 c 0,-0.84504 0.13641,-0.93491 1.4187,-0.93491 h 0.93872 v -1.48891 -1.48889 h -1.02978 c -0.63557,0 -1.08684,-0.056 -1.17871,-0.14887 -0.0816,-0.0822 -0.14887,-0.44472 -0.14887,-0.80648 v -0.65756 h -1.36475 -1.36483 v -0.55435 -0.55435 l 1.33381,-0.0374 1.33373,-0.0374 0.0623,-0.74446 0.0623,-0.74443 1.11667,-0.0624 1.11668,-0.0623 0.0623,-1.42686 c 0.071,-1.6276 0.27654,-2.12327 1.09188,-2.63029 0.38805,-0.24167 0.6793,-0.29524 1.88591,-0.34757 l 1.4268,-0.0623 0.0623,-1.11666 0.0623,-1.11662 0.74444,-0.0623 0.74446,-0.0623 0.0374,-1.3338 0.0374,-1.3338 h 0.55435 0.55435 v 1.36482 1.36482 h 0.65762 c 0.36188,0 0.72458,0.0673 0.80643,0.14887 0.0922,0.0916 0.14886,0.54313 0.14886,1.17865 v 1.02984 h 1.4889 1.48883 v -0.93872 c 0,-1.28229 0.0897,-1.4187 0.93492,-1.4187 h 0.67805 v -1.36483 -1.36475 h 0.62037 0.62038 v 1.36475 1.36483 h 0.67805 c 0.84504,0 0.93491,0.13641 0.93491,1.4187 v 0.93872 h 1.48884 1.4889 v -1.02984 c 0,-0.63552 0.056,-1.08679 0.14886,-1.17865 0.0816,-0.0816 0.44472,-0.14887 0.80648,-0.14887 h 0.65756 v -1.36482 -1.36482 h 0.55436 0.55435 l 0.0374,1.3338 0.0374,1.3338 0.74445,0.0623 0.74445,0.0623 0.0623,1.11662 0.0623,1.11666 1.4268,0.0623 c 1.62767,0.071 2.12334,0.27657 2.63035,1.09189 0.24105,0.38804 0.29524,0.6793 0.34757,1.88591 l 0.0623,1.42686 1.11667,0.0624 1.11666,0.0623 0.0623,0.74437 0.0623,0.74445 1.333742,0.0374 1.3338,0.0374 v 0.55435 0.55434 h -1.364822 -1.36476 v 0.65762 c 0,0.36189 -0.0673,0.72459 -0.14886,0.80649 -0.0916,0.0922 -0.54313,0.14887 -1.1787,0.14887 h -1.02978 v 1.48883 1.4889 h 0.93872 c 1.28228,0 1.41868,0.0897 1.41868,0.93492 v 0.67805 h 1.36476 1.364822 v 0.62037 0.62038 h -1.364832 -1.36476 v 0.67805 c 0,0.84504 -0.13641,0.93491 -1.41869,0.93491 h -0.93872 v 1.4889 1.48884 h 1.02978 c 0.63557,0 1.08683,0.056 1.1787,0.14886 0.0816,0.0816 0.14887,0.44472 0.14887,0.80648 v 0.65762 h 1.36476 1.364822 v 0.55435 0.55436 l -1.33381,0.0374 -1.333742,0.0374 -0.0623,0.74445 -0.0623,0.74445 -1.11666,0.0624 -1.11667,0.0623 -0.0623,1.4268 c -0.0498,1.20661 -0.10589,1.49774 -0.34756,1.88591 -0.50701,0.81534 -1.00269,1.02112 -2.63036,1.09188 l -1.4268,0.0623 -0.0623,1.11668 -0.0623,1.11666 -0.74444,0.0624 -0.74446,0.0623 -0.0374,1.33373 -0.0374,1.3338 h -0.55435 -0.55435 v -1.36482 -1.36476 h -0.65755 c -0.36189,0 -0.72465,-0.0673 -0.80649,-0.14886 -0.0922,-0.0916 -0.14887,-0.54314 -0.14887,-1.17871 v -1.02985 h -1.48889 -1.48883 v 0.93873 c 0,1.28229 -0.0897,1.41869 -0.93493,1.41869 h -0.67805 v 1.36482 1.36482 h -0.62037 -0.62038 v -1.36482 -1.36482 h -0.67804 c -0.84505,0 -0.93493,-0.1364 -0.93493,-1.41869 v -0.93873 h -1.48883 -1.4889 v 1.02985 c 0,0.63551 -0.056,1.08677 -0.14886,1.17871 -0.0816,0.0816 -0.44472,0.14886 -0.80642,0.14886 h -0.65761 v 1.36476 1.36482 h -0.55435 -0.55435 z m 1.63976,-3.13288 v -0.62038 h -1.05464 -1.05463 v 0.62038 0.62036 h 1.05463 1.05464 z m 7.32034,0 v -0.62038 h -0.9926 -0.9926 v 0.62038 0.62036 h 0.9926 0.9926 z m 7.44442,0 v -0.62038 h -1.05463 -1.05464 v 0.62038 0.62036 h 1.05464 1.05463 z m 4.06058,-2.1431 0.34382,-0.34381 V 296.53529 284.3817 l -0.34382,-0.34382 -0.34382,-0.34382 h -12.15359 -12.15359 l -0.34382,0.34382 -0.34382,0.34382 v 12.14338 c 0,11.96872 0.004,12.1473 0.2479,12.41918 0.1364,0.15135 0.36002,0.32202 0.49642,0.37807 0.13641,0.056 5.6487,0.0916 12.24945,0.0785 l 12.0013,-0.0249 z m -23.70705,-1.30969 c -0.18748,-0.2068 -0.20554,-1.0585 -0.20554,-9.68899 v -9.46205 l 1.73524,-1.72578 1.73517,-1.72583 h 9.47422 c 9.02089,0 9.48404,0.0125 9.67957,0.22672 0.18748,0.20741 0.20553,1.1642 0.20553,11.20944 0,10.48214 -0.0125,10.9919 -0.22672,11.18785 -0.2074,0.18811 -1.16413,0.20554 -11.20938,0.20554 -10.48213,0 -10.99189,-0.0125 -11.1879,-0.22672 z m 21.44549,-11.18785 v -10.23609 l -8.8065,-0.0311 -8.8065,-0.0311 -1.46056,1.45675 -1.46061,1.45675 v 8.75948 c 0,4.81774 0.0374,8.79703 0.0834,8.84294 0.0436,0.0436 4.66607,0.0691 10.26706,0.0498 l 10.18365,-0.0311 z m -15.69719,8.4554 c -0.23794,-0.12644 -0.55809,-0.41359 -0.7115,-0.63875 -0.27593,-0.40486 -0.27904,-0.45469 -0.27904,-4.67728 0,-4.58971 0.004,-4.61587 0.66248,-5.23163 0.17252,-0.16132 0.49891,-0.33075 0.72526,-0.37683 l 0.41109,-0.0834 0.0735,-1.29811 c 0.0834,-1.46448 0.2915,-2.14047 0.92707,-3.0085 0.76189,-1.0405 2.3325,-1.82574 3.65192,-1.82574 1.31942,0 2.89003,0.78524 3.65192,1.82574 0.63551,0.86803 0.84385,1.54402 0.92708,3.0085 l 0.0735,1.29811 0.41108,0.0834 c 0.2261,0.0436 0.55248,0.21551 0.72527,0.37683 0.65918,0.61601 0.66248,0.64192 0.66248,5.23163 0,6.05101 0.58798,5.54574 -6.45182,5.54574 -4.65617,0 -5.0609,-0.0187 -5.46117,-0.22983 z m 10.60103,-1.19708 c 0.15758,-0.20929 0.18811,-0.87252 0.19122,-4.20877 0.004,-3.51476 -0.0187,-3.98614 -0.20118,-4.18746 -0.19246,-0.21239 -0.51573,-0.22672 -5.10825,-0.22672 -4.38807,0 -4.92673,0.0249 -5.12979,0.20554 -0.21114,0.19122 -0.22672,0.4846 -0.22298,4.18746 0.004,4.07716 0.0249,4.26339 0.49207,4.45069 0.10215,0.0436 2.34726,0.0641 4.98871,0.0498 4.64315,-0.0249 4.80882,-0.0311 4.99002,-0.27157 z m -5.58922,-1.35705 c -0.55559,-0.24167 -0.7914,-0.64497 -0.7914,-1.35279 0,-0.4958 -0.0673,-0.6841 -0.36625,-1.02437 -0.41607,-0.474 -0.5693,-1.07985 -0.44348,-1.75205 0.1171,-0.62355 0.96557,-1.47209 1.58905,-1.58912 0.77061,-0.14451 1.33157,0.0311 1.90447,0.6073 0.81988,0.81994 0.88529,1.91213 0.16382,2.734 -0.29897,0.34008 -0.36624,0.52881 -0.36624,1.02436 0,0.71947 -0.23919,1.11587 -0.8187,1.3581 -0.48646,0.20305 -0.39116,0.20367 -0.87139,-0.005 z m 0.57366,-1.80057 c 0,-0.66877 0.0374,-0.77266 0.39303,-1.10534 0.70016,-0.65438 0.38556,-1.67195 -0.51697,-1.67195 -0.90247,0 -1.21715,1.01757 -0.51698,1.67195 0.35627,0.33262 0.39302,0.43664 0.39302,1.10534 0,0.40922 0.056,0.73816 0.12396,0.73816 0.0691,0 0.12394,-0.32888 0.12394,-0.73816 z m -2.8298,-7.72988 c 0.0959,-2.06237 0.98501,-3.07079 2.70698,-3.07079 1.7224,0 2.60725,1.00686 2.70441,3.07758 l 0.056,1.15448 0.32638,-0.0374 0.32576,-0.0374 -0.002,-1.17871 c -0.002,-0.96793 -0.0498,-1.28074 -0.28154,-1.74944 -1.06927,-2.1857 -3.85223,-2.69682 -5.53291,-1.01615 -0.69293,0.69288 -0.98475,1.41771 -1.04679,2.60016 -0.0635,1.20655 -0.006,1.40617 0.39241,1.40617 0.29088,0 0.30084,-0.0311 0.35254,-1.14769 z m 4.19463,0.14887 c 0,-1.14408 -0.18748,-1.62898 -0.74041,-1.91488 -0.74351,-0.3843 -1.69779,-0.12707 -2.04916,0.55248 -0.1227,0.2367 -0.1881,0.71268 -0.1881,1.3627 v 0.99877 h 1.4889 1.48889 z m -15.50922,10.86257 v -1.05457 h -0.62037 -0.62037 v 1.05457 1.05464 h 0.62037 0.62037 z m 29.28138,0 v -1.05457 h -0.62037 -0.62037 v 1.05457 1.05464 h 0.62037 0.62037 z m -29.28138,-7.38232 v -0.99259 h -0.62037 -0.62037 v 0.99259 0.99254 h 0.62037 0.62037 z m 29.28138,0 v -0.99259 h -0.62037 -0.62037 v 0.99259 0.99254 h 0.62037 0.62037 z m -29.28138,-7.38237 v -1.05464 h -0.62037 -0.62037 v 1.05464 1.05457 h 0.62037 0.62037 z m 29.28138,0 v -1.05464 h -0.62037 -0.62037 v 1.05464 1.05457 h 0.62037 0.62037 z m -21.5888,-7.25831 v -0.62038 h -1.05464 -1.05463 v 0.62038 0.62037 h 1.05463 1.05464 z m 7.32034,0 v -0.62038 h -0.9926 -0.99259 v 0.62038 0.62037 h 0.99259 0.9926 z m 7.44442,0 v -0.62038 h -1.05463 -1.05464 v 0.62038 0.62037 h 1.05464 1.05463 z"
                         id="path7638" />
                    </g>
                  </g>
                </g>
              </g>
            </g>
          </g>
          <g
             id="g7686"
             transform="translate(216.95999,-290.61471)"
             style="filter:url(#filter7700-9)">
            <g
               id="g7684"
               transform="translate(131.08451,-13.082406)">
              <g
                 id="g7682"
                 transform="translate(-124.85684,-0.37417734)">
                <g
                   id="g7680">
                  <g
                     id="g7678"
                     transform="translate(27.194206,-65.893653)">
                    <path
                       id="path7652"
                       style="display:inline;fill:#283442;fill-opacity:1;stroke:none;stroke-width:0.236072;stroke-opacity:1"
                       d="m -19.69918,269.54305 -3.7375,2.23462 v 80.00177 l 0.90372,1.55366 32.91619,0.67992 32.915678,-0.67992 1.11143,-5.06199 -0.95692,-3.45243 -0.95692,3.26783 -0.3308,2.61048 c -0.0386,0.0205 -12.201229,0.0333 -22.493408,0.0461 h -36.03213 c -0.73761,-0.003 -5.0284,9.9e-4 -5.03383,-0.004 l -0.33636,-38.96035 0.31154,-36.07081 c 0.004,-0.21484 0.0161,-1.60529 0.0192,-1.69827 h 63.571018 l 0.32472,32.28714 0.2548,33.68543 1.3247,-0.12665 0.33434,-33.86952 -0.20719,-34.20846 -0.90424,-1.55366 -28.806858,-0.68096 -28.44414,0.53378 -0.0461,1.24346 h -3.13063 l 0.0775,-0.0441 z" />
                    <text
                       xml:space="preserve"
                       style="font-weight:bold;font-size:5.64444px;line-height:0;font-family:'FiraCode Nerd Font';-inkscape-font-specification:'FiraCode Nerd Font Bold';text-align:start;writing-mode:lr-tb;direction:ltr;text-anchor:start;display:inline;fill:none;stroke:#000000;stroke-width:0.309346"
                       x="-0.21172257"
                       y="300.05133"
                       id="text7656"
                       transform="scale(0.92527901,1.0807551)"><tspan
                         sodipodi:role="line"
                         id="tspan7654"
                         style="font-style:normal;font-variant:normal;font-weight:bold;font-stretch:normal;font-size:5.64444px;line-height:0;font-family:Roboto;-inkscape-font-specification:'Roboto, Bold';font-variant-ligatures:normal;font-variant-caps:normal;font-variant-numeric:normal;font-variant-east-asian:normal;fill:#283442;fill-opacity:1;stroke:none;stroke-width:0.309346"
                         x="-0.21172257"
                         y="300.05133">Proteção</tspan></text>
                    <text
                       xml:space="preserve"
                       transform="matrix(0.38669053,0,0,0.38669053,-117.26135,41.881496)"
                       id="text7674"
                       style="font-style:italic;font-size:12.7722px;line-height:14.5968px;font-family:Roboto;-inkscape-font-specification:'Roboto Italic';text-align:center;word-spacing:0px;white-space:pre;shape-inside:url(#rect7688-1);display:inline;fill:none;stroke:#283442"
                       x="173.98344"
                       y="0"><tspan
                         x="251.64985"
                         y="749.13484"
                         id="tspan132992"><tspan
                           style="font-style:normal;font-family:Arial;-inkscape-font-specification:Arial;letter-spacing:0.03px;fill:#283442;stroke:none"
                           id="tspan132990">Os recursos são protegidos </tspan></tspan><tspan
                         x="271.99458"
                         y="764.06056"
                         id="tspan132996"><tspan
                           style="font-style:normal;font-family:Arial;-inkscape-font-specification:Arial;letter-spacing:0.03px;fill:#283442;stroke:none"
                           id="tspan132994">automaticamente de </tspan></tspan><tspan
                         x="251.6555"
                         y="778.98628"
                         id="tspan133000"><tspan
                           style="font-style:normal;font-family:Arial;-inkscape-font-specification:Arial;letter-spacing:0.03px;fill:#283442;stroke:none"
                           id="tspan132998">acordo com seus planos de </tspan></tspan><tspan
                         x="309.44658"
                         y="793.912"
                         id="tspan133004"><tspan
                           style="font-style:normal;font-family:Arial;-inkscape-font-specification:Arial;letter-spacing:0.03px;fill:#283442;stroke:none"
                           id="tspan133002">backup</tspan></tspan></text>
                    <path
                       style="fill:#283442;fill-opacity:1;stroke-width:0.124074"
                       d="m 2.516808,314.30862 -0.0374,-1.3338 -0.74445,-0.0624 -0.74445,-0.0624 -0.0623,-1.11667 -0.0623,-1.11661 -1.42679,-0.0624 c -1.62768,-0.071 -2.12336,-0.27655 -2.63037,-1.09195 -0.24167,-0.38805 -0.29524,-0.6793 -0.34755,-1.88585 l -0.0623,-1.42685 -1.11668,-0.0623 -1.11667,-0.0624 -0.0623,-0.74445 -0.0623,-0.74444 -1.33373,-0.0374 -1.33381,-0.0374 v -0.55435 -0.55435 h 1.36483 1.36475 v -0.65755 c 0,-0.3619 0.0673,-0.72458 0.14887,-0.80649 0.0922,-0.0922 0.54314,-0.14887 1.17871,-0.14887 h 1.02978 v -1.4889 -1.48889 h -0.93872 c -1.28229,0 -1.4187,-0.0897 -1.4187,-0.93492 v -0.67799 h -1.36475 -1.36483 v -0.62037 -0.62037 h 1.36483 1.36475 v -0.67806 c 0,-0.84504 0.13641,-0.93491 1.4187,-0.93491 h 0.93872 v -1.48891 -1.48889 h -1.02978 c -0.63557,0 -1.08684,-0.056 -1.17871,-0.14887 -0.0816,-0.0822 -0.14887,-0.44472 -0.14887,-0.80648 v -0.65756 h -1.36475 -1.36483 v -0.55435 -0.55435 l 1.33381,-0.0374 1.33373,-0.0374 0.0623,-0.74446 0.0623,-0.74443 1.11667,-0.0624 1.11668,-0.0623 0.0623,-1.42686 c 0.071,-1.6276 0.27654,-2.12327 1.09188,-2.63029 0.38805,-0.24167 0.6793,-0.29524 1.88591,-0.34757 l 1.4268,-0.0623 0.0623,-1.11666 0.0623,-1.11662 0.74444,-0.0623 0.74446,-0.0623 0.0374,-1.3338 0.0374,-1.3338 h 0.55435 0.55435 v 1.36482 1.36482 h 0.65762 c 0.36188,0 0.72458,0.0673 0.80643,0.14887 0.0922,0.0916 0.14886,0.54313 0.14886,1.17865 v 1.02984 h 1.4889 1.48883 v -0.93872 c 0,-1.28229 0.0897,-1.4187 0.93492,-1.4187 h 0.67805 v -1.36483 -1.36475 h 0.62037 0.62038 v 1.36475 1.36483 h 0.67805 c 0.84504,0 0.93491,0.13641 0.93491,1.4187 v 0.93872 h 1.48884 1.4889 v -1.02984 c 0,-0.63552 0.056,-1.08679 0.14886,-1.17865 0.0816,-0.0816 0.44472,-0.14887 0.80648,-0.14887 h 0.65756 v -1.36482 -1.36482 h 0.55436 0.55435 l 0.0374,1.3338 0.0374,1.3338 0.74445,0.0623 0.74445,0.0623 0.0623,1.11662 0.0623,1.11666 1.4268,0.0623 c 1.62767,0.071 2.12334,0.27657 2.63035,1.09189 0.24105,0.38804 0.29524,0.6793 0.34757,1.88591 l 0.0623,1.42686 1.11667,0.0624 1.11666,0.0623 0.0623,0.74437 0.0623,0.74445 1.333742,0.0374 1.3338,0.0374 v 0.55435 0.55434 h -1.364822 -1.36476 v 0.65762 c 0,0.36189 -0.0673,0.72459 -0.14886,0.80649 -0.0916,0.0922 -0.54313,0.14887 -1.1787,0.14887 h -1.02978 v 1.48883 1.4889 h 0.93872 c 1.28228,0 1.41868,0.0897 1.41868,0.93492 v 0.67805 h 1.36476 1.364822 v 0.62037 0.62038 h -1.364832 -1.36476 v 0.67805 c 0,0.84504 -0.13641,0.93491 -1.41869,0.93491 h -0.93872 v 1.4889 1.48884 h 1.02978 c 0.63557,0 1.08683,0.056 1.1787,0.14886 0.0816,0.0816 0.14887,0.44472 0.14887,0.80648 v 0.65762 h 1.36476 1.364822 v 0.55435 0.55436 l -1.33381,0.0374 -1.333742,0.0374 -0.0623,0.74445 -0.0623,0.74445 -1.11666,0.0624 -1.11667,0.0623 -0.0623,1.4268 c -0.0498,1.20661 -0.10589,1.49774 -0.34756,1.88591 -0.50701,0.81534 -1.00269,1.02112 -2.63036,1.09188 l -1.4268,0.0623 -0.0623,1.11668 -0.0623,1.11666 -0.74444,0.0624 -0.74446,0.0623 -0.0374,1.33373 -0.0374,1.3338 h -0.55435 -0.55435 v -1.36482 -1.36476 h -0.65755 c -0.36189,0 -0.72465,-0.0673 -0.80649,-0.14886 -0.0922,-0.0916 -0.14887,-0.54314 -0.14887,-1.17871 v -1.02985 h -1.48889 -1.48883 v 0.93873 c 0,1.28229 -0.0897,1.41869 -0.93493,1.41869 h -0.67805 v 1.36482 1.36482 h -0.62037 -0.62038 v -1.36482 -1.36482 h -0.67804 c -0.84505,0 -0.93493,-0.1364 -0.93493,-1.41869 v -0.93873 h -1.48883 -1.4889 v 1.02985 c 0,0.63551 -0.056,1.08677 -0.14886,1.17871 -0.0816,0.0816 -0.44472,0.14886 -0.80642,0.14886 h -0.65761 v 1.36476 1.36482 h -0.55435 -0.55435 z m 1.63976,-3.13288 v -0.62038 h -1.05464 -1.05463 v 0.62038 0.62036 h 1.05463 1.05464 z m 7.32034,0 v -0.62038 h -0.9926 -0.9926 v 0.62038 0.62036 h 0.9926 0.9926 z m 7.44442,0 v -0.62038 h -1.05463 -1.05464 v 0.62038 0.62036 h 1.05464 1.05463 z m 4.06058,-2.1431 0.34382,-0.34381 V 296.53529 284.3817 l -0.34382,-0.34382 -0.34382,-0.34382 h -12.15359 -12.15359 l -0.34382,0.34382 -0.34382,0.34382 v 12.14338 c 0,11.96872 0.004,12.1473 0.2479,12.41918 0.1364,0.15135 0.36002,0.32202 0.49642,0.37807 0.13641,0.056 5.6487,0.0916 12.24945,0.0785 l 12.0013,-0.0249 z m -23.70705,-1.30969 c -0.18748,-0.2068 -0.20554,-1.0585 -0.20554,-9.68899 v -9.46205 l 1.73524,-1.72578 1.73517,-1.72583 h 9.47422 c 9.02089,0 9.48404,0.0125 9.67957,0.22672 0.18748,0.20741 0.20553,1.1642 0.20553,11.20944 0,10.48214 -0.0125,10.9919 -0.22672,11.18785 -0.2074,0.18811 -1.16413,0.20554 -11.20938,0.20554 -10.48213,0 -10.99189,-0.0125 -11.1879,-0.22672 z m 21.44549,-11.18785 v -10.23609 l -8.8065,-0.0311 -8.8065,-0.0311 -1.46056,1.45675 -1.46061,1.45675 v 8.75948 c 0,4.81774 0.0374,8.79703 0.0834,8.84294 0.0436,0.0436 4.66607,0.0691 10.26706,0.0498 l 10.18365,-0.0311 z m -15.69719,8.4554 c -0.23794,-0.12644 -0.55809,-0.41359 -0.7115,-0.63875 -0.27593,-0.40486 -0.27904,-0.45469 -0.27904,-4.67728 0,-4.58971 0.004,-4.61587 0.66248,-5.23163 0.17252,-0.16132 0.49891,-0.33075 0.72526,-0.37683 l 0.41109,-0.0834 0.0735,-1.29811 c 0.0834,-1.46448 0.2915,-2.14047 0.92707,-3.0085 0.76189,-1.0405 2.3325,-1.82574 3.65192,-1.82574 1.31942,0 2.89003,0.78524 3.65192,1.82574 0.63551,0.86803 0.84385,1.54402 0.92708,3.0085 l 0.0735,1.29811 0.41108,0.0834 c 0.2261,0.0436 0.55248,0.21551 0.72527,0.37683 0.65918,0.61601 0.66248,0.64192 0.66248,5.23163 0,6.05101 0.58798,5.54574 -6.45182,5.54574 -4.65617,0 -5.0609,-0.0187 -5.46117,-0.22983 z m 10.60103,-1.19708 c 0.15758,-0.20929 0.18811,-0.87252 0.19122,-4.20877 0.004,-3.51476 -0.0187,-3.98614 -0.20118,-4.18746 -0.19246,-0.21239 -0.51573,-0.22672 -5.10825,-0.22672 -4.38807,0 -4.92673,0.0249 -5.12979,0.20554 -0.21114,0.19122 -0.22672,0.4846 -0.22298,4.18746 0.004,4.07716 0.0249,4.26339 0.49207,4.45069 0.10215,0.0436 2.34726,0.0641 4.98871,0.0498 4.64315,-0.0249 4.80882,-0.0311 4.99002,-0.27157 z m -5.58922,-1.35705 c -0.55559,-0.24167 -0.7914,-0.64497 -0.7914,-1.35279 0,-0.4958 -0.0673,-0.6841 -0.36625,-1.02437 -0.41607,-0.474 -0.5693,-1.07985 -0.44348,-1.75205 0.1171,-0.62355 0.96557,-1.47209 1.58905,-1.58912 0.77061,-0.14451 1.33157,0.0311 1.90447,0.6073 0.81988,0.81994 0.88529,1.91213 0.16382,2.734 -0.29897,0.34008 -0.36624,0.52881 -0.36624,1.02436 0,0.71947 -0.23919,1.11587 -0.8187,1.3581 -0.48646,0.20305 -0.39116,0.20367 -0.87139,-0.005 z m 0.57366,-1.80057 c 0,-0.66877 0.0374,-0.77266 0.39303,-1.10534 0.70016,-0.65438 0.38556,-1.67195 -0.51697,-1.67195 -0.90247,0 -1.21715,1.01757 -0.51698,1.67195 0.35627,0.33262 0.39302,0.43664 0.39302,1.10534 0,0.40922 0.056,0.73816 0.12396,0.73816 0.0691,0 0.12394,-0.32888 0.12394,-0.73816 z m -2.8298,-7.72988 c 0.0959,-2.06237 0.98501,-3.07079 2.70698,-3.07079 1.7224,0 2.60725,1.00686 2.70441,3.07758 l 0.056,1.15448 0.32638,-0.0374 0.32576,-0.0374 -0.002,-1.17871 c -0.002,-0.96793 -0.0498,-1.28074 -0.28154,-1.74944 -1.06927,-2.1857 -3.85223,-2.69682 -5.53291,-1.01615 -0.69293,0.69288 -0.98475,1.41771 -1.04679,2.60016 -0.0635,1.20655 -0.006,1.40617 0.39241,1.40617 0.29088,0 0.30084,-0.0311 0.35254,-1.14769 z m 4.19463,0.14887 c 0,-1.14408 -0.18748,-1.62898 -0.74041,-1.91488 -0.74351,-0.3843 -1.69779,-0.12707 -2.04916,0.55248 -0.1227,0.2367 -0.1881,0.71268 -0.1881,1.3627 v 0.99877 h 1.4889 1.48889 z m -15.50922,10.86257 v -1.05457 h -0.62037 -0.62037 v 1.05457 1.05464 h 0.62037 0.62037 z m 29.28138,0 v -1.05457 h -0.62037 -0.62037 v 1.05457 1.05464 h 0.62037 0.62037 z m -29.28138,-7.38232 v -0.99259 h -0.62037 -0.62037 v 0.99259 0.99254 h 0.62037 0.62037 z m 29.28138,0 v -0.99259 h -0.62037 -0.62037 v 0.99259 0.99254 h 0.62037 0.62037 z m -29.28138,-7.38237 v -1.05464 h -0.62037 -0.62037 v 1.05464 1.05457 h 0.62037 0.62037 z m 29.28138,0 v -1.05464 h -0.62037 -0.62037 v 1.05464 1.05457 h 0.62037 0.62037 z m -21.5888,-7.25831 v -0.62038 h -1.05464 -1.05463 v 0.62038 0.62037 h 1.05463 1.05464 z m 7.32034,0 v -0.62038 h -0.9926 -0.99259 v 0.62038 0.62037 h 0.99259 0.9926 z m 7.44442,0 v -0.62038 h -1.05463 -1.05464 v 0.62038 0.62037 h 1.05464 1.05463 z"
                       id="path7676" />
                  </g>
                </g>
              </g>
            </g>
          </g>
        </g>
        <path
           id="path70709"
           style="display:inline;fill:#3271c8;fill-opacity:1;stroke:none;stroke-width:0.22992;stroke-opacity:1"
           d="m 193.59673,-99.425709 -3.63068,2.182056 v 78.119797 l 0.87788,1.517111 31.9754,0.663925 31.97489,-0.663925 1.07966,-4.942911 -0.92958,-3.371215 -0.92955,3.190957 -0.32136,2.549071 c -0.0375,0.02002 -11.85249,0.03252 -21.8505,0.04502 h -35.00228 c -0.71652,-0.003 -4.88467,9.66e-4 -4.88994,-0.004 l -0.32675,-38.04384 0.30264,-35.222275 c 0.004,-0.209787 0.0156,-1.567527 0.0187,-1.65832 h 61.75405 l 0.31545,31.527612 0.24751,32.893009 1.28684,-0.12367 0.32478,-33.072769 -0.20127,-33.403735 -0.87839,-1.517111 -27.98351,-0.664945 -27.63115,0.521227 -0.0448,1.214209 h -3.04116 l 0.0752,-0.04306 z" />
      </g>
    </g>
  </g>
</svg>
