<?xml version="1.0" encoding="UTF-8" standalone="no"?>
<!-- Created with Inkscape (http://www.inkscape.org/) -->

<svg
   width="50"
   height="20.754"
   viewBox="0 0 13.229166 5.4911626"
   version="1.1"
   id="svg5"
   inkscape:version="1.2.2 (b0a8486541, 2022-12-01)"
   sodipodi:docname="stripe.svg"
   xml:space="preserve"
   xmlns:inkscape="http://www.inkscape.org/namespaces/inkscape"
   xmlns:sodipodi="http://sodipodi.sourceforge.net/DTD/sodipodi-0.dtd"
   xmlns="http://www.w3.org/2000/svg"
   xmlns:svg="http://www.w3.org/2000/svg"><sodipodi:namedview
     id="namedview7"
     pagecolor="#ffffff"
     bordercolor="#eeeeee"
     borderopacity="1"
     inkscape:showpageshadow="0"
     inkscape:pageopacity="0"
     inkscape:pagecheckerboard="0"
     inkscape:deskcolor="#d1d1d1"
     inkscape:document-units="px"
     showgrid="false"
     inkscape:zoom="8"
     inkscape:cx="30.5"
     inkscape:cy="28.4375"
     inkscape:window-width="1920"
     inkscape:window-height="1043"
     inkscape:window-x="0"
     inkscape:window-y="0"
     inkscape:window-maximized="1"
     inkscape:current-layer="layer1"
     inkscape:lockguides="false" /><defs
     id="defs2"><filter
       inkscape:label="Greyscale"
       inkscape:menu="Color"
       inkscape:menu-tooltip="Light areas turn to black"
       style="color-interpolation-filters:sRGB"
       id="filter3586"
       x="0"
       y="0"
       width="1"
       height="1"><feColorMatrix
         type="luminanceToAlpha"
         result="result2"
         id="feColorMatrix3578" /><feComposite
         in2="SourceGraphic"
         operator="arithmetic"
         in="result2"
         k3="2"
         result="result4"
         id="feComposite3580"
         k1="0"
         k2="0"
         k4="0" /><feBlend
         in="result4"
         mode="multiply"
         result="result3"
         in2="result2"
         id="feBlend3582" /><feComposite
         in2="SourceGraphic"
         operator="in"
         in="result3"
         id="feComposite3584"
         result="fbSourceGraphic" /><feColorMatrix
         result="fbSourceGraphicAlpha"
         in="fbSourceGraphic"
         values="0 0 0 -1 0 0 0 0 -1 0 0 0 0 -1 0 0 0 0 1 0"
         id="feColorMatrix3588" /><feColorMatrix
         id="feColorMatrix3590"
         values="0.21 0.72 0.072 0 0 0.21 0.72 0.072 0 0 0.21 0.72 0.072 0 0 0 0 0 1 0 "
         in="fbSourceGraphic" /></filter></defs><g
     inkscape:label="Layer 1"
     inkscape:groupmode="layer"
     id="layer1"><path
       style="fill:#ffffff;stroke:none;stroke-width:0.013216;stroke-dasharray:none;stroke-opacity:1"
       d="M 7.5143814,3.3612811 V 1.2392368 h 0.408613 0.4086131 L 8.3521205,1.341815 8.3726335,1.4443932 8.5389896,1.3410657 C 9.0765425,1.0069123 9.7918641,1.2405505 10.107815,1.853712 c 0.116004,0.2250867 0.207497,0.6498003 0.206831,0.9600824 -0.0017,0.7599759 -0.305996,1.37058 -0.7895318,1.5839483 -0.274302,0.12096 -0.6613361,0.1147711 -0.8925199,-0.014985 -0.093445,-0.052318 -0.1758631,-0.094891 -0.183158,-0.094891 -0.00731,0 -0.013316,0.2230687 -0.013316,0.4956931 0,0.485079 -0.00171,0.496068 -0.079774,0.5136956 -0.043881,0.00939 -0.2512829,0.055695 -0.4609089,0.1018289 L 7.5143032,5.482906 Z M 9.1110316,3.6058335 C 9.1759532,3.5619269 9.2697921,3.4462518 9.3195434,3.3487735 9.3978735,3.1951859 9.4099505,3.1263293 9.4095752,2.8346836 9.4091888,2.5365145 9.3979492,2.4763742 9.3114233,2.3104538 9.183061,2.0642831 9.0426983,1.9756411 8.808471,1.9928739 8.710975,2.0003639 8.5870006,2.0348829 8.5329797,2.0703219 l -0.098227,0.064321 0.00957,0.7134121 0.00956,0.7133921 0.1240868,0.062073 c 0.173838,0.086824 0.3889058,0.079696 0.5330165,-0.016883 z M 0.61848518,4.447798 C 0.48198418,4.4221235 0.30648631,4.3780372 0.22848621,4.3499051 L 0.08667792,4.2989007 0.07673779,3.8638724 C 0.0688606,3.5205481 0.07632919,3.4330449 0.1121976,3.4487793 0.44020912,3.5928014 0.63786497,3.656713 0.86328626,3.6917582 1.0992276,3.7285217 1.1489203,3.7262739 1.25706,3.674875 1.3574998,3.6270724 1.3808282,3.5959233 1.3808282,3.5104131 1.3808282,3.3647027 1.2775192,3.2802565 0.94011453,3.1501506 0.31433303,2.9088251 0.13989312,2.7725853 0.04683845,2.4524929 -0.0023877,2.2831559 -0.00493767,2.217576 0.03033483,2.0265256 0.10378944,1.6278811 0.34202055,1.3675145 0.74046413,1.2504606 1.0224208,1.1675729 1.6124404,1.1750754 1.9127244,1.2654458 l 0.2304528,0.069196 0.00994,0.4320813 0.00994,0.4320812 -0.1340445,-0.057948 C 1.7981911,2.0410961 1.5491636,1.984837 1.3035139,1.9765851 1.1143701,1.9709407 1.0518297,1.9822296 0.99328723,2.0350921 0.82438136,2.1879304 0.93877343,2.3098794 1.4254594,2.4958099 1.8942612,2.6749022 2.0808286,2.8060371 2.203884,3.0429021 2.3954849,3.4117161 2.3088808,3.9074791 2.0064629,4.1730007 1.8328122,4.3254594 1.7116,4.3847206 1.4446734,4.4476531 1.1767492,4.5108504 0.95142183,4.5108504 0.61859806,4.4481027 Z M 3.1180259,4.434661 C 2.9814684,4.3862591 2.8789002,4.3170777 2.7758145,4.2036253 2.5167341,3.9186381 2.5152995,3.9074642 2.5152995,2.17321 c 0,-0.8447767 0.00675,-1.53596588 0.014815,-1.53596588 0.00825,0 0.1993737,-0.0399602 0.424851,-0.088697 0.2254793,-0.0487516 0.4182085,-0.0887019 0.42829,-0.0887019 0.010125,0 0.018377,0.17552582 0.018377,0.39000297 V 1.2398462 H 3.7561778 4.110723 v 0.390003 0.389998 H 3.7561777 3.4016325 v 0.7295411 0.7295561 l 0.1076787,0.1076382 c 0.1018834,0.1018289 0.1200174,0.1068939 0.3368157,0.093018 L 4.0752631,3.6646156 V 4.026956 4.3892965 l -0.1152357,0.036963 c -0.063365,0.02023 -0.2348854,0.045954 -0.3811343,0.056824 -0.210631,0.014985 -0.3064464,0.00564 -0.4609091,-0.049151 z m 8.5507791,0.029271 c -0.71682,-0.1410202 -1.142682,-0.7344663 -1.139532,-1.5878495 0.0028,-0.7838273 0.263758,-1.2875624 0.805403,-1.5552618 0.249815,-0.1233925 0.294801,-0.1338921 0.574967,-0.1338921 0.272953,0 0.328479,0.011239 0.544516,0.1185174 0.497589,0.2449469 0.767229,0.8101161 0.768123,1.6099625 l 2.69e-4,0.2393225 H 12.322196 11.42184 l 0.02738,0.1213296 c 0.04229,0.1875239 0.162343,0.3277198 0.33791,0.3947633 0.231613,0.088512 0.737678,0.057383 1.036564,-0.063572 l 0.221589,-0.089636 v 0.3632945 0.3633145 l -0.203862,0.090765 C 12.495517,4.4889521 12.046012,4.538438 11.668809,4.4641967 Z M 12.371446,2.4366487 C 12.370897,2.313441 12.289906,2.1293087 12.197289,2.0405718 11.927122,1.7817486 11.503182,1.9518698 11.430776,2.3480067 l -0.02431,0.132953 h 0.482581 c 0.362534,0 0.482531,-0.011239 0.482382,-0.044256 z M 4.3943869,2.8355029 V 1.240056 h 0.4077259 c 0.3782956,0 0.4077283,0.00564 0.4077283,0.068072 0,0.037313 0.00975,0.093198 0.021507,0.123952 0.018001,0.046904 0.032255,0.042408 0.08767,-0.028122 0.0908,-0.1153306 0.281094,-0.1994722 0.4516853,-0.1994722 0.2563581,0 0.2545857,-0.00399 0.2545857,0.4469915 V 2.0554121 H 5.8102326 c -0.2246934,0 -0.316541,0.031119 -0.4497152,0.1524588 -0.079381,0.072383 -0.079774,0.078013 -0.079774,1.1478359 v 1.075188 H 4.8375642 4.3943824 Z m 1.8790874,0 V 1.240056 H 6.7166562 7.1598361 V 2.8355029 4.4309647 H 6.7166562 6.2734743 Z m 0,-2.27889379 V 0.19226568 l 0.3988633,-0.0843913 c 0.2193732,-0.04650383 0.4188051,-0.0915092 0.4431799,-0.10032545 0.033663,-0.01123885 0.04431,0.07444613 0.04431,0.36016761 0,0.20683973 -0.009,0.37606683 -0.019842,0.37606683 -0.010874,0 -0.1965313,0.0399602 -0.4124913,0.088697 -0.2159585,0.0487516 -0.4064623,0.088702 -0.4233415,0.088702 -0.016877,0 -0.030697,-0.1638974 -0.030697,-0.36434847 z"
       id="path3630" /></g></svg>
