<?xml version="1.0" encoding="UTF-8" standalone="no"?>
<!-- Created with Inkscape (http://www.inkscape.org/) -->

<svg
   width="105"
   height="125"
   viewBox="0 0 27.781249 33.072916"
   version="1.1"
   id="svg5"
   inkscape:version="1.2.2 (b0a8486541, 2022-12-01)"
   sodipodi:docname="protec.svg"
   xmlns:inkscape="http://www.inkscape.org/namespaces/inkscape"
   xmlns:sodipodi="http://sodipodi.sourceforge.net/DTD/sodipodi-0.dtd"
   xmlns:xlink="http://www.w3.org/1999/xlink"
   xmlns="http://www.w3.org/2000/svg"
   xmlns:svg="http://www.w3.org/2000/svg">
  <sodipodi:namedview
     id="namedview7"
     pagecolor="#ff07ff"
     bordercolor="#eeeeee"
     borderopacity="1"
     inkscape:showpageshadow="0"
     inkscape:pageopacity="0"
     inkscape:pagecheckerboard="0"
     inkscape:deskcolor="#d1d1d1"
     inkscape:document-units="px"
     showgrid="false"
     inkscape:zoom="2.7616441"
     inkscape:cx="-10.138888"
     inkscape:cy="34.580849"
     inkscape:window-width="1920"
     inkscape:window-height="1043"
     inkscape:window-x="0"
     inkscape:window-y="0"
     inkscape:window-maximized="1"
     inkscape:current-layer="layer1"
     inkscape:lockguides="false" />
  <defs
     id="defs2">
    <linearGradient
       inkscape:collect="always"
       id="linearGradient182323">
      <stop
         style="stop-color:#ffffff;stop-opacity:1;"
         offset="0"
         id="stop182319" />
      <stop
         style="stop-color:#ffffff;stop-opacity:0;"
         offset="1"
         id="stop182321" />
    </linearGradient>
    <rect
       x="447.80301"
       y="522.68451"
       width="234.03755"
       height="144.0538"
       id="rect4368" />
    <filter
       style="color-interpolation-filters:sRGB"
       inkscape:label="Drop Shadow"
       id="filter4412"
       x="-0.035373698"
       y="-0.028412441"
       width="1.0854864"
       height="1.0686634">
      <feFlood
         flood-opacity="1"
         flood-color="rgb(0,0,0)"
         result="flood"
         id="feFlood4402" />
      <feComposite
         in="flood"
         in2="SourceGraphic"
         operator="out"
         result="composite1"
         id="feComposite4404" />
      <feGaussianBlur
         in="composite1"
         stdDeviation="1"
         result="blur"
         id="feGaussianBlur4406" />
      <feOffset
         dx="1"
         dy="1"
         result="offset"
         id="feOffset4408" />
      <feComposite
         in="offset"
         in2="SourceGraphic"
         operator="in"
         result="composite2"
         id="feComposite4410" />
    </filter>
    <rect
       x="447.80301"
       y="522.68451"
       width="234.03755"
       height="144.0538"
       id="rect4400" />
    <rect
       x="251.54297"
       y="738.31445"
       width="157.14275"
       height="78.953087"
       id="rect7650" />
    <filter
       style="color-interpolation-filters:sRGB"
       inkscape:label="Drop Shadow"
       id="filter7700"
       x="-0.035373699"
       y="-0.028412441"
       width="1.0854864"
       height="1.0686634">
      <feFlood
         flood-opacity="1"
         flood-color="rgb(0,0,0)"
         result="flood"
         id="feFlood7690" />
      <feComposite
         in="flood"
         in2="SourceGraphic"
         operator="out"
         result="composite1"
         id="feComposite7692" />
      <feGaussianBlur
         in="composite1"
         stdDeviation="1"
         result="blur"
         id="feGaussianBlur7694" />
      <feOffset
         dx="1"
         dy="1"
         result="offset"
         id="feOffset7696" />
      <feComposite
         in="offset"
         in2="SourceGraphic"
         operator="in"
         result="composite2"
         id="feComposite7698" />
    </filter>
    <rect
       x="251.54297"
       y="738.31445"
       width="157.14275"
       height="78.953087"
       id="rect7688" />
    <rect
       x="251.54297"
       y="738.31445"
       width="157.14275"
       height="78.953087"
       id="rect7650-4" />
    <filter
       style="color-interpolation-filters:sRGB"
       inkscape:label="Drop Shadow"
       id="filter7700-7"
       x="-0.035373699"
       y="-0.028412441"
       width="1.0854864"
       height="1.0686634">
      <feFlood
         flood-opacity="1"
         flood-color="rgb(0,0,0)"
         result="flood"
         id="feFlood7690-7" />
      <feComposite
         in="flood"
         in2="SourceGraphic"
         operator="out"
         result="composite1"
         id="feComposite7692-5" />
      <feGaussianBlur
         in="composite1"
         stdDeviation="1"
         result="blur"
         id="feGaussianBlur7694-4" />
      <feOffset
         dx="1"
         dy="1"
         result="offset"
         id="feOffset7696-8" />
      <feComposite
         in="offset"
         in2="SourceGraphic"
         operator="in"
         result="composite2"
         id="feComposite7698-1" />
    </filter>
    <rect
       x="251.54297"
       y="738.31445"
       width="157.14275"
       height="78.953087"
       id="rect7688-2" />
    <rect
       x="251.54297"
       y="738.31445"
       width="157.14275"
       height="78.953087"
       id="rect7650-8" />
    <filter
       style="color-interpolation-filters:sRGB"
       inkscape:label="Drop Shadow"
       id="filter7700-9"
       x="-0.10726615"
       y="-0.43671204"
       width="1.2592265"
       height="2.0553874">
      <feFlood
         flood-opacity="1"
         flood-color="rgb(0,0,0)"
         result="flood"
         id="feFlood7690-3" />
      <feComposite
         in="flood"
         in2="SourceGraphic"
         operator="out"
         result="composite1"
         id="feComposite7692-6" />
      <feGaussianBlur
         in="composite1"
         stdDeviation="1"
         result="blur"
         id="feGaussianBlur7694-8" />
      <feOffset
         dx="1"
         dy="1"
         result="offset"
         id="feOffset7696-0" />
      <feComposite
         in="offset"
         in2="SourceGraphic"
         operator="in"
         result="composite2"
         id="feComposite7698-2" />
    </filter>
    <rect
       x="251.54297"
       y="738.31445"
       width="157.14275"
       height="78.953087"
       id="rect7688-1" />
    <filter
       style="color-interpolation-filters:sRGB"
       inkscape:label="Drop Shadow"
       id="filter26032-4"
       x="-0.035373695"
       y="-0.028412441"
       width="1.0854864"
       height="1.0686634">
      <feFlood
         flood-opacity="1"
         flood-color="rgb(0,0,0)"
         result="flood"
         id="feFlood26022-4" />
      <feComposite
         in="flood"
         in2="SourceGraphic"
         operator="out"
         result="composite1"
         id="feComposite26024-7" />
      <feGaussianBlur
         in="composite1"
         stdDeviation="1"
         result="blur"
         id="feGaussianBlur26026-6" />
      <feOffset
         dx="1"
         dy="1"
         result="offset"
         id="feOffset26028-3" />
      <feComposite
         in="offset"
         in2="SourceGraphic"
         operator="in"
         result="composite2"
         id="feComposite26030-1" />
    </filter>
    <filter
       style="color-interpolation-filters:sRGB;"
       inkscape:label="Drop Shadow"
       id="filter35933"
       x="-0.20949274"
       y="-0.21034484"
       width="1.5062741"
       height="1.5083334">
      <feFlood
         flood-opacity="1"
         flood-color="rgb(0,0,0)"
         result="flood"
         id="feFlood35923" />
      <feComposite
         in="flood"
         in2="SourceGraphic"
         operator="out"
         result="composite1"
         id="feComposite35925" />
      <feGaussianBlur
         in="composite1"
         stdDeviation="1"
         result="blur"
         id="feGaussianBlur35927" />
      <feOffset
         dx="1"
         dy="1"
         result="offset"
         id="feOffset35929" />
      <feComposite
         in="offset"
         in2="SourceGraphic"
         operator="in"
         result="composite2"
         id="feComposite35931" />
    </filter>
    <radialGradient
       inkscape:collect="always"
       xlink:href="#linearGradient182323"
       id="radialGradient182325"
       cx="-18.322892"
       cy="12.940261"
       fx="-18.322892"
       fy="12.940261"
       r="5.7328005"
       gradientTransform="matrix(1,0,0,0.998433,0,0.02027739)"
       gradientUnits="userSpaceOnUse" />
    <radialGradient
       inkscape:collect="always"
       xlink:href="#linearGradient182323"
       id="radialGradient182334"
       gradientUnits="userSpaceOnUse"
       gradientTransform="matrix(1,0,0,0.998433,0,0.02027739)"
       cx="-18.322892"
       cy="12.940261"
       fx="-18.322892"
       fy="12.940261"
       r="5.7328005" />
    <radialGradient
       inkscape:collect="always"
       xlink:href="#linearGradient182323"
       id="radialGradient182336"
       gradientUnits="userSpaceOnUse"
       gradientTransform="matrix(1,0,0,0.998433,0,0.02027739)"
       cx="-18.322892"
       cy="12.940261"
       fx="-18.322892"
       fy="12.940261"
       r="5.7328005" />
    <radialGradient
       inkscape:collect="always"
       xlink:href="#linearGradient182323"
       id="radialGradient182338"
       gradientUnits="userSpaceOnUse"
       gradientTransform="matrix(1,0,0,0.998433,0,0.02027739)"
       cx="-18.322892"
       cy="12.940261"
       fx="-18.322892"
       fy="12.940261"
       r="5.7328005" />
  </defs>
  <g
     inkscape:label="Layer 1"
     inkscape:groupmode="layer"
     id="layer1">
    <path
       id="path7614"
       style="display:inline;fill:#283442;fill-opacity:1;stroke:none;stroke-width:0.0848109;stroke-opacity:1"
       d="m -38.199366,0.02960894 -1.342729,0.8028067 V 29.573749 l 0.324669,0.558166 11.825428,0.244267 11.825244,-0.244267 0.399291,-1.818564 -0.343782,-1.240315 -0.343781,1.173996 -0.118843,0.937838 c -0.01387,0.0074 -4.383398,0.01196 -8.080953,0.01656 h -12.944857 c -0.264993,-0.0011 -1.806496,3.55e-4 -1.808447,-0.0014 l -0.12084,-13.996881 0.111923,-12.9587532 c 0.0014,-0.077183 0.0058,-0.5767144 0.0069,-0.6101183 h 22.83844 l 0.116659,11.5994365 0.09154,12.101785 0.47591,-0.0455 0.120113,-12.167921 -0.07443,-12.28968746 -0.324857,-0.5581659 -10.349115,-0.2446408 -10.218805,0.1917651 -0.01656,0.4467238 h -1.124706 l 0.02784,-0.015843 z" />
    <g
       id="g184592">
      <text
         xml:space="preserve"
         style="font-weight:bold;font-size:2.2688px;line-height:0;font-family:'FiraCode Nerd Font';-inkscape-font-specification:'FiraCode Nerd Font Bold';text-align:start;writing-mode:lr-tb;direction:ltr;text-anchor:start;display:inline;fill:none;stroke:#000000;stroke-width:0.124342"
         x="10.343418"
         y="19.834181"
         id="text7618"
         transform="scale(0.92527901,1.0807551)"><tspan
           sodipodi:role="line"
           id="tspan7616"
           style="font-style:normal;font-variant:normal;font-weight:bold;font-stretch:normal;font-size:2.2688px;line-height:0;font-family:Roboto;-inkscape-font-specification:'Roboto, Bold';font-variant-ligatures:normal;font-variant-caps:normal;font-variant-numeric:normal;font-variant-east-asian:normal;fill:#283442;fill-opacity:1;stroke:none;stroke-width:0.124342"
           x="10.343418"
           y="19.834181">Proteção</tspan></text>
      <text
         xml:space="preserve"
         transform="matrix(0.15543145,0,0,0.15543145,-37.484272,-92.075867)"
         id="text7636"
         style="font-style:italic;font-size:12.7722px;line-height:14.5968px;font-family:Roboto;-inkscape-font-specification:'Roboto Italic';text-align:center;word-spacing:0px;white-space:pre;shape-inside:url(#rect7650-8);display:inline;fill:#0f1419;fill-opacity:1;stroke:#283442"
         x="173.98344"
         y="0"><tspan
           x="251.64985"
           y="749.13484"
           id="tspan184677"><tspan
             style="font-style:normal;font-family:Arial;-inkscape-font-specification:Arial;letter-spacing:0.03px;stroke:none"
             id="tspan184675">Os recursos são protegidos </tspan></tspan><tspan
           x="271.99458"
           y="764.06056"
           id="tspan184681"><tspan
             style="font-style:normal;font-family:Arial;-inkscape-font-specification:Arial;letter-spacing:0.03px;stroke:none"
             id="tspan184679">automaticamente de </tspan></tspan><tspan
           x="251.6555"
           y="778.98628"
           id="tspan184685"><tspan
             style="font-style:normal;font-family:Arial;-inkscape-font-specification:Arial;letter-spacing:0.03px;stroke:none"
             id="tspan184683">acordo com seus planos de </tspan></tspan><tspan
           x="309.44658"
           y="793.912"
           id="tspan184689"><tspan
             style="font-style:normal;font-family:Arial;-inkscape-font-specification:Arial;letter-spacing:0.03px;stroke:none"
             id="tspan184687">backup</tspan></tspan></text>
      <g
         id="g35941"
         transform="matrix(1.1188402,0,0,1.1188402,34.385443,-4.0368507)"
         style="fill:url(#radialGradient182325);fill-opacity:1">
        <g
           id="g35936"
           style="fill:url(#radialGradient182336);fill-opacity:1">
          <path
             style="fill:url(#radialGradient182334);fill-opacity:1;stroke-width:0.0950537"
             d="m -15.06757,18.597449 -1.158706,0.03466 -0.04647,-0.882306 -1.4613,0.03814 0.0208,0.876135 -1.082238,-0.08008 -0.135214,-0.795138 -1.3952,-0.02671 -0.08914,0.869111 h -1.076332 l -0.05638,-0.832288 -0.944728,-0.03144 -0.521097,-0.240629 -0.09025,-0.419623 -0.05185,-0.888804 -0.814239,-0.03958 -0.0139,-1.11591 0.776563,-0.0077 0.02644,-0.223694 0.0032,-0.557791 0.03964,-0.721491 -0.655589,-0.04319 -0.252775,-0.106464 0.04851,-1.018569 0.875873,-0.08901 0.0014,-1.417419 c 0,0 -0.881255,0.06052 -0.888246,-0.03223 -0.007,-0.09275 0.01822,-1.2435108 0.01822,-1.2435108 l 0.76137,0.059238 0.0996,-1.1190281 0.450507,-0.4349495 1.06888,-0.0068 0.03449,-0.2563487 0.06281,-0.5897892 1.068982,0.014209 0.05779,0.7744285 1.509408,0.064719 0.01775,-0.8397715 1.099928,-0.00716 0.07906,0.7987805 1.445938,0.00732 0.01448,-0.8044255 1.071636,0.057269 0.08333,0.7255284 1.000256,-0.00212 0.461697,0.304527 0.141875,0.5009813 -3.59e-4,0.7579217 0.850735,0.1133896 -0.0084,1.0654023 -0.87269,0.05409 -0.0075,1.530283 0.883127,0.01687 -0.0102,1.052831 -0.831501,0.07548 -0.01879,0.271414 0.05353,1.221357 0.832748,0.0086 -0.03564,1.069505 -0.776002,0.03997 c 0,0 0.03653,1.36005 -0.1703,1.428313 -0.206821,0.06826 -0.775381,0.285165 -0.775381,0.285165 l -0.75454,-0.07562 z"
             id="path65798" />
        </g>
        <path
           style="fill:url(#radialGradient182338);fill-opacity:1;stroke-width:0.0950537"
           d="m -15.076927,18.55965 -1.158706,0.03466 -0.04647,-0.882306 -1.4613,0.03814 0.0208,0.876135 -1.082238,-0.08008 -0.135214,-0.795138 -1.3952,-0.02671 -0.08914,0.869111 h -1.076332 l -0.05638,-0.832288 -0.944728,-0.03144 -0.521097,-0.240629 -0.09025,-0.419623 -0.05185,-0.888804 -0.814239,-0.03958 -0.0139,-1.11591 0.776563,-0.0077 0.02644,-0.223694 0.0032,-0.557791 0.03964,-0.721491 -0.655589,-0.04319 -0.252775,-0.106464 0.04851,-1.018569 0.875873,-0.08901 0.0014,-1.417419 c 0,0 -0.881255,0.06052 -0.888246,-0.03223 -0.007,-0.09275 0.01822,-1.2435104 0.01822,-1.2435104 l 0.76137,0.05924 0.0996,-1.119029 0.450507,-0.434949 1.06888,-0.0068 0.03449,-0.256349 0.06281,-0.589789 1.068982,0.01421 0.05779,0.774429 1.509408,0.06472 0.01775,-0.839772 1.099928,-0.0072 0.07906,0.798781 1.445938,0.0073 0.01448,-0.804426 1.071636,0.05727 0.08333,0.725528 1.000256,-0.0021 0.461697,0.304527 0.141875,0.500982 -3.59e-4,0.757921 0.850735,0.11339 -0.0084,1.0654024 -0.87269,0.05409 -0.0075,1.530283 0.883127,0.01687 -0.0102,1.052831 -0.831501,0.07548 -0.01879,0.271414 0.05353,1.221357 0.832748,0.0086 -0.03564,1.069505 -0.776002,0.03997 c 0,0 0.03653,1.36005 -0.1703,1.428313 -0.206821,0.06826 -0.775381,0.285165 -0.775381,0.285165 l -0.75454,-0.07562 z"
           id="path35921" />
      </g>
      <path
         style="fill:#090c10;fill-opacity:1;stroke-width:0.049872"
         d="m 10.687037,17.42706 -0.01504,-0.536126 -0.299234,-0.02508 -0.299234,-0.02508 -0.02504,-0.448849 L 10.023449,15.9431 9.4499469,15.91801 C 8.7957,15.88948 8.59646,15.806855 8.3926657,15.479102 8.2955257,15.323124 8.273993,15.206056 8.2529668,14.721079 l -0.025042,-0.573527 -0.448853,-0.02504 -0.448849,-0.02508 -0.025042,-0.299233 -0.025042,-0.299231 -0.5360969,-0.01504 -0.536129,-0.01504 v -0.222821 -0.222823 h 0.548598 0.5485655 V 12.75894 c 0,-0.145467 0.027051,-0.291247 0.059839,-0.324171 0.03706,-0.03706 0.2183167,-0.05983 0.4737861,-0.05983 H 8.2526253 V 11.77647 11.178007 H 7.8753038 c -0.5154205,0 -0.5702508,-0.03606 -0.5702508,-0.375794 v -0.27252 H 6.7564874 6.2078898 v -0.24936 -0.24936 H 6.7564874 7.305053 V 9.7584251 c 0,-0.3396665 0.05483,-0.3757894 0.5702508,-0.3757894 H 8.2526253 V 8.7841633 8.1856994 H 7.8387019 c -0.2554693,0 -0.4368586,-0.022509 -0.473786,-0.059839 C 7.3321169,8.0928204 7.3050769,7.947104 7.3050769,7.8016935 V 7.5373852 H 6.7565116 6.2079139 V 7.3145624 7.0917398 l 0.5361291,-0.015033 0.5360969,-0.015033 0.025042,-0.299238 0.025042,-0.2992259 0.448849,-0.025082 0.448853,-0.025042 0.025042,-0.5735308 C 8.2815059,5.1853365 8.364123,4.9861005 8.6918514,4.7823022 8.8478293,4.6851622 8.9648982,4.6636296 9.4498987,4.6425954 l 0.5735073,-0.025042 0.02504,-0.4488449 0.02504,-0.4488289 0.29923,-0.025042 0.299238,-0.025042 0.01504,-0.536125 0.01504,-0.5361251 h 0.222824 0.222823 v 0.5485937 0.5485936 h 0.264331 c 0.14546,0 0.291248,0.027051 0.324147,0.059839 0.03706,0.036819 0.05984,0.2183128 0.05984,0.4737621 v 0.4139473 h 0.598468 0.598439 v -0.377321 c 0,-0.5154205 0.03606,-0.5702509 0.375794,-0.5702509 h 0.272545 V 3.1461119 2.5975464 h 0.249359 0.249364 v 0.5485655 0.5485976 h 0.272544 c 0.339666,0 0.37579,0.05483 0.37579,0.5702509 v 0.3773214 h 0.598445 0.598467 V 4.2283344 c 0,-0.2554492 0.02251,-0.4368386 0.05984,-0.473762 0.0328,-0.0328 0.178757,-0.059839 0.324167,-0.059839 h 0.264307 V 3.14614 2.5975464 h 0.222827 0.222823 l 0.01504,0.536125 0.01504,0.5361251 0.299234,0.025042 0.299234,0.025042 0.02504,0.4488289 0.02504,0.4488449 0.573506,0.025042 c 0.654247,0.028538 0.853483,0.111168 1.057277,0.4388886 0.09689,0.1559738 0.118674,0.2730467 0.139708,0.7580474 l 0.02504,0.5735308 0.44885,0.025082 0.448846,0.025042 0.02504,0.2992018 0.02504,0.2992341 0.536103,0.015033 0.536125,0.015033 v 0.2228228 0.2228187 h -0.548595 -0.548569 v 0.2643323 c 0,0.1454629 -0.02705,0.2912513 -0.05984,0.3241712 -0.03682,0.03706 -0.218314,0.059839 -0.473784,0.059839 H 19.52863 v 0.5984398 0.598468 h 0.377321 c 0.515418,0 0.570243,0.03606 0.570243,0.3757938 V 10.03092 h 0.54857 0.548595 v 0.249359 0.249364 h -0.548602 -0.54857 v 0.272542 c 0,0.339667 -0.05483,0.375791 -0.570247,0.375791 h -0.377321 v 0.598467 0.598445 h 0.413923 c 0.255469,0 0.436855,0.02251 0.473782,0.05984 0.0328,0.0328 0.05983,0.178757 0.05983,0.324167 v 0.264333 h 0.54857 0.548594 v 0.222823 0.222827 l -0.536128,0.01504 -0.536102,0.01504 -0.02504,0.299234 -0.02504,0.299235 -0.448844,0.02508 -0.44885,0.02504 -0.02504,0.573507 c -0.02002,0.485001 -0.04256,0.602021 -0.139703,0.758047 -0.203793,0.327728 -0.403034,0.410442 -1.05728,0.438885 l -0.573508,0.02504 -0.02504,0.448853 -0.02504,0.448845 -0.29923,0.02508 -0.299239,0.02504 -0.01504,0.536097 -0.01504,0.536125 h -0.22282 -0.222823 v -0.548594 -0.548569 h -0.264305 c -0.145462,0 -0.291275,-0.02705 -0.32417,-0.05984 -0.03706,-0.03682 -0.05984,-0.218317 -0.05984,-0.473786 v -0.413961 h -0.598464 -0.59844 v 0.377326 c 0,0.51542 -0.03606,0.570247 -0.375798,0.570247 H 14.13995 v 0.548593 0.548594 h -0.249364 -0.249363 v -0.548594 -0.548593 h -0.27254 c -0.339671,0 -0.375798,-0.05482 -0.375798,-0.570247 v -0.377326 h -0.59844 -0.598468 v 0.413952 c 0,0.255445 -0.02251,0.43683 -0.05984,0.473786 -0.03279,0.03279 -0.178756,0.05984 -0.324143,0.05984 h -0.264326 v 0.548569 0.548594 h -0.222822 -0.222824 z m 0.659107,-1.259272 v -0.249363 h -0.423915 -0.423912 v 0.249363 0.249356 h 0.423912 0.423915 z m 2.942433,0 V 15.918425 H 13.889599 13.49062 v 0.249363 0.249356 h 0.398979 0.398978 z m 2.992308,0 v -0.249363 h -0.423912 -0.423915 v 0.249363 0.249356 h 0.423915 0.423912 z m 1.632163,-0.861425 0.138199,-0.138196 V 10.283015 5.3978411 L 18.913048,5.2596416 18.774849,5.1214421 H 13.889675 9.0045026 L 8.8663031,5.2596416 8.7281036,5.3978411 v 4.8810699 c 0,4.810864 0.00161,4.882644 0.099644,4.991927 0.054827,0.06083 0.1447111,0.129437 0.1995375,0.151966 0.054831,0.02251 2.2705129,0.03682 4.9237049,0.03155 l 4.823959,-0.01 z M 9.3839262,14.779929 c -0.075358,-0.08312 -0.082617,-0.425467 -0.082617,-3.89452 v -3.8033 L 9.9987944,6.3884264 10.696251,5.6947236 h 3.808192 c 3.625974,0 3.812139,0.00502 3.890733,0.091131 0.07535,0.083369 0.08262,0.4679538 0.08262,4.5056684 0,4.213329 -0.005,4.418229 -0.09113,4.496992 -0.08337,0.07561 -0.467926,0.08262 -4.505646,0.08262 -4.2133236,0 -4.4182232,-0.005 -4.49701,-0.09113 z M 18.004007,10.282937 V 6.1685098 l -3.5398,-0.012501 -3.5398,-0.012501 L 10.33733,6.729053 9.7502342,7.3145982 v 3.5209008 c 0,1.936505 0.015033,3.535994 0.033523,3.554447 0.017521,0.01752 1.8755408,0.02777 4.1268758,0.02002 l 4.09335,-0.0125 z m -6.309535,3.398675 c -0.09564,-0.05082 -0.224325,-0.166243 -0.285989,-0.256748 -0.11091,-0.162734 -0.112161,-0.182763 -0.112161,-1.880046 0,-1.844849 0.0016,-1.8553638 0.266286,-2.1028703 0.06935,-0.064848 0.200539,-0.1329462 0.291521,-0.1514683 l 0.165239,-0.033523 0.02955,-0.5217795 c 0.03352,-0.5886522 0.11717,-0.8603685 0.372639,-1.2092758 0.306245,-0.4182322 0.937556,-0.7338618 1.467901,-0.7338618 0.530344,0 1.161657,0.3156296 1.4679,0.7338618 0.255446,0.3489073 0.339189,0.6206236 0.372643,1.2092758 l 0.02954,0.5217795 0.165235,0.033523 c 0.09088,0.017526 0.222071,0.086625 0.291524,0.1514683 0.26496,0.2476072 0.266287,0.2580213 0.266287,2.1028703 0,2.432222 0.23634,2.229127 -2.59333,2.229127 -1.871561,0 -2.034244,-0.0075 -2.195134,-0.09238 z m 4.261118,-0.48117 c 0.06334,-0.08413 0.07561,-0.350712 0.07686,-1.691728 0.0016,-1.412768 -0.0075,-1.6022418 -0.08086,-1.683163 -0.07736,-0.085368 -0.2073,-0.09113 -2.053278,-0.09113 -1.763798,0 -1.980314,0.00996 -2.061934,0.082615 -0.08486,0.076864 -0.09113,0.194786 -0.08963,1.683163 0.0016,1.638826 0.01,1.713682 0.197788,1.788968 0.04106,0.01752 0.943489,0.02577 2.005228,0.02002 1.866328,-0.01 1.932921,-0.0125 2.005754,-0.109154 z m -2.246604,-0.545471 c -0.223322,-0.09714 -0.318106,-0.259247 -0.318106,-0.543757 0,-0.199289 -0.02705,-0.274976 -0.147216,-0.411749 -0.167241,-0.190526 -0.228832,-0.434049 -0.178258,-0.704243 0.04707,-0.250637 0.388114,-0.591711 0.638724,-0.638751 0.309748,-0.05809 0.535228,0.0125 0.765507,0.244106 0.329554,0.329578 0.355846,0.768586 0.06584,1.09894 -0.120172,0.136696 -0.147212,0.212557 -0.147212,0.411745 0,0.289193 -0.09614,0.448527 -0.329079,0.545892 -0.195534,0.08162 -0.157227,0.08187 -0.350257,-0.002 z m 0.230584,-0.723744 c 0,-0.268815 0.01504,-0.310573 0.15798,-0.444295 0.281431,-0.26303 0.154976,-0.672045 -0.207798,-0.672045 -0.362751,0 -0.489237,0.409015 -0.207802,0.672045 0.143204,0.133697 0.157976,0.175508 0.157976,0.444295 0,0.164488 0.02251,0.296706 0.04982,0.296706 0.02777,0 0.04982,-0.132195 0.04982,-0.296706 z M 12.802123,8.8241777 c 0.03854,-0.828976 0.395927,-1.2343135 1.088079,-1.2343135 0.692324,0 1.047992,0.4047104 1.087046,1.2370428 l 0.02251,0.4640468 0.13119,-0.015033 0.13094,-0.015033 -8.04e-4,-0.4737861 c -8.05e-4,-0.3890626 -0.02002,-0.5147975 -0.113167,-0.703193 -0.429796,-0.8785489 -1.548416,-1.0839951 -2.22397,-0.4084445 -0.278525,0.2785051 -0.395823,0.5698528 -0.42076,1.0451423 -0.02552,0.4849765 -0.0025,0.5652143 0.157729,0.5652143 0.11692,0 0.120925,-0.012501 0.141705,-0.4613175 z m 1.686044,0.059839 c 0,-0.4598665 -0.07535,-0.6547735 -0.297609,-0.7696919 -0.298857,-0.1544706 -0.682432,-0.051076 -0.823667,0.222071 -0.04932,0.095142 -0.07561,0.286464 -0.07561,0.5477415 V 9.285596 h 0.598469 0.598463 z M 8.2541888,13.25026 V 12.826372 H 8.0048291 7.7554695 v 0.423888 0.423916 h 0.2493596 0.2493597 z m 11.7697412,0 V 12.826372 H 19.774571 19.52521 v 0.423888 0.423916 h 0.249361 0.249359 z M 8.2541888,10.282914 V 9.8839388 H 8.0048291 7.7554695 v 0.3989752 0.398955 h 0.2493596 0.2493597 z m 11.7697412,0 V 9.8839388 H 19.774571 19.52521 v 0.3989752 0.398955 h 0.249361 0.249359 z M 8.2541888,7.3155473 V 6.8916315 H 8.0048291 7.7554695 V 7.3155473 7.739435 h 0.2493596 0.2493597 z m 11.7697412,0 V 6.8916315 H 19.774571 19.52521 V 7.3155473 7.739435 h 0.249361 0.249359 z M 11.346245,4.398047 V 4.1486834 H 10.922329 10.498418 V 4.398047 4.6474067 h 0.423911 0.423916 z m 2.942433,0 V 4.1486834 H 13.889699 13.490724 V 4.398047 4.6474067 h 0.398975 0.398979 z m 2.992308,0 V 4.1486834 H 16.857074 16.433158 V 4.398047 4.6474067 h 0.423916 0.423912 z"
         id="path7638" />
      <text
         xml:space="preserve"
         style="font-weight:bold;font-size:5.64444px;line-height:0;font-family:'FiraCode Nerd Font';-inkscape-font-specification:'FiraCode Nerd Font Bold';text-align:start;writing-mode:lr-tb;direction:ltr;text-anchor:start;display:inline;fill:none;stroke:#000000;stroke-width:0.309346;filter:url(#filter7700-9)"
         x="-0.21172257"
         y="300.05133"
         id="text7656"
         transform="matrix(0.37191876,0,0,0.43441286,9.6610163,-108.89854)"><tspan
           sodipodi:role="line"
           id="tspan7654"
           style="font-style:normal;font-variant:normal;font-weight:bold;font-stretch:normal;font-size:5.64444px;line-height:0;font-family:Roboto;-inkscape-font-specification:'Roboto, Bold';font-variant-ligatures:normal;font-variant-caps:normal;font-variant-numeric:normal;font-variant-east-asian:normal;fill:#283442;fill-opacity:1;stroke:none;stroke-width:0.309346"
           x="-0.21172257"
           y="300.05133">Proteção</tspan></text>
    </g>
    <path
       id="path25420"
       style="fill:#ececec;fill-opacity:1;stroke-width:0.0950537"
       d="m -36.897865,-9.1332411 -0.522982,0.04753 -0.04214,2.4214581 0.228909,0.398224 7.799801,0.04214 0.567909,-0.154277 0.01634,-2.5304361 -0.308554,-0.217027 z m -0.24636,3.9033321 -0.299828,0.202361 -0.0017,2.518741 0.24636,0.288689 5.190833,-0.01281 0.0828,-0.705664 -0.02711,2.429443 -0.101923,-0.758945 c 0,0 -2.422481,0.02358 -2.474928,0.02358 l -2.581863,-0.01745 -0.353482,0.262326 -0.01857,2.433529 0.274208,0.331203 0.57515,0.04753 1.629283,-0.03565 1.967169,0.03249 0.222783,-0.761175 0.338629,-0.588144 0.550459,-0.585176 0.730912,-0.189365 0.902455,-0.03546 0.463016,0.164488 a 2.4788652,2.3724004 0 0 0 -0.707705,-0.09914 2.4788652,2.3724004 0 0 0 -2.478827,2.372448 2.4788652,2.3724004 0 0 0 2.478827,2.37245 2.4788652,2.3724004 0 0 0 2.478825,-2.37245 2.4788652,2.3724004 0 0 0 -0.01801,-0.284976 l 3.975926,-0.0072 0.343828,-0.09784 c 0,0 0.088,-5.308024 0.03342,-5.253397 l -4.948186,0.0037 -0.198277,-0.872193 -2.171572,-0.01522 -0.212757,0.461159 -0.138496,0.175998 0.355523,-0.734254 2.125532,0.07816 0.08132,-0.542104 -0.423472,-0.209415 z m 5.73832,1.444745 -0.170615,0.216841 -0.282748,0.06312 0.0032,-0.02729 z m 1.88307,3.708772 0.381142,0.13534 0.159661,0.181753 a 2.4788652,2.3724004 0 0 0 -0.540803,-0.317093 z" />
    <path
       id="path25432"
       style="display:inline;fill:#283442;fill-opacity:1;stroke:none;stroke-width:0.236072;stroke-opacity:1;filter:url(#filter26032-4)"
       d="m 84.218645,190.19281 -3.7375,2.23462 v 80.00177 l 0.90372,1.55366 32.916195,0.67992 32.91568,-0.67992 1.11143,-5.06199 -0.95692,-3.45243 -0.95692,3.26783 -0.3308,2.61048 c -0.0386,0.0205 -12.20123,0.0333 -22.49342,0.0461 H 87.557985 c -0.73761,-0.003 -5.0284,9.9e-4 -5.03383,-0.004 l -0.33636,-38.96035 0.31154,-36.07081 c 0.004,-0.21484 0.0161,-1.60529 0.0192,-1.69827 h 63.571025 l 0.32472,32.28714 0.2548,33.68543 1.3247,-0.12665 0.33434,-33.86952 -0.20719,-34.20846 -0.90424,-1.55366 -28.80686,-0.68096 -28.444145,0.53378 -0.0461,1.24346 h -3.13063 l 0.0775,-0.0441 z"
       transform="matrix(0.35925868,0,0,0.35925868,-80.491712,-106.6122)" />
    <g
       id="g182309"
       transform="matrix(1.1188402,0,0,1.1188402,3.0117429,-21.179346)">
      <g
         id="g182305">
        <path
           style="fill:#ececec;fill-opacity:1;stroke-width:0.0950537"
           d="m -15.06757,18.597449 -1.158706,0.03466 -0.04647,-0.882306 -1.4613,0.03814 0.0208,0.876135 -1.082238,-0.08008 -0.135214,-0.795138 -1.3952,-0.02671 -0.08914,0.869111 h -1.076332 l -0.05638,-0.832288 -0.944728,-0.03144 -0.521097,-0.240629 -0.09025,-0.419623 -0.05185,-0.888804 -0.814239,-0.03958 -0.0139,-1.11591 0.776563,-0.0077 0.02644,-0.223694 0.0032,-0.557791 0.03964,-0.721491 -0.655589,-0.04319 -0.252775,-0.106464 0.04851,-1.018569 0.875873,-0.08901 0.0014,-1.417419 c 0,0 -0.881255,0.06052 -0.888246,-0.03223 -0.007,-0.09275 0.01822,-1.2435108 0.01822,-1.2435108 l 0.76137,0.059238 0.0996,-1.1190281 0.450507,-0.4349495 1.06888,-0.0068 0.03449,-0.2563487 0.06281,-0.5897892 1.068982,0.014209 0.05779,0.7744285 1.509408,0.064719 0.01775,-0.8397715 1.099928,-0.00716 0.07906,0.7987805 1.445938,0.00732 0.01448,-0.8044255 1.071636,0.057269 0.08333,0.7255284 1.000256,-0.00212 0.461697,0.304527 0.141875,0.5009813 -3.59e-4,0.7579217 0.850735,0.1133896 -0.0084,1.0654023 -0.87269,0.05409 -0.0075,1.530283 0.883127,0.01687 -0.0102,1.052831 -0.831501,0.07548 -0.01879,0.271414 0.05353,1.221357 0.832748,0.0086 -0.03564,1.069505 -0.776002,0.03997 c 0,0 0.03653,1.36005 -0.1703,1.428313 -0.206821,0.06826 -0.775381,0.285165 -0.775381,0.285165 l -0.75454,-0.07562 z"
           id="path182303" />
      </g>
      <path
         style="fill:#ececec;fill-opacity:1;stroke-width:0.0950537"
         d="m -15.076927,18.55965 -1.158706,0.03466 -0.04647,-0.882306 -1.4613,0.03814 0.0208,0.876135 -1.082238,-0.08008 -0.135214,-0.795138 -1.3952,-0.02671 -0.08914,0.869111 h -1.076332 l -0.05638,-0.832288 -0.944728,-0.03144 -0.521097,-0.240629 -0.09025,-0.419623 -0.05185,-0.888804 -0.814239,-0.03958 -0.0139,-1.11591 0.776563,-0.0077 0.02644,-0.223694 0.0032,-0.557791 0.03964,-0.721491 -0.655589,-0.04319 -0.252775,-0.106464 0.04851,-1.018569 0.875873,-0.08901 0.0014,-1.417419 c 0,0 -0.881255,0.06052 -0.888246,-0.03223 -0.007,-0.09275 0.01822,-1.2435104 0.01822,-1.2435104 l 0.76137,0.05924 0.0996,-1.119029 0.450507,-0.434949 1.06888,-0.0068 0.03449,-0.256349 0.06281,-0.589789 1.068982,0.01421 0.05779,0.774429 1.509408,0.06472 0.01775,-0.839772 1.099928,-0.0072 0.07906,0.798781 1.445938,0.0073 0.01448,-0.804426 1.071636,0.05727 0.08333,0.725528 1.000256,-0.0021 0.461697,0.304527 0.141875,0.500982 -3.59e-4,0.757921 0.850735,0.11339 -0.0084,1.0654024 -0.87269,0.05409 -0.0075,1.530283 0.883127,0.01687 -0.0102,1.052831 -0.831501,0.07548 -0.01879,0.271414 0.05353,1.221357 0.832748,0.0086 -0.03564,1.069505 -0.776002,0.03997 c 0,0 0.03653,1.36005 -0.1703,1.428313 -0.206821,0.06826 -0.775381,0.285165 -0.775381,0.285165 l -0.75454,-0.07562 z"
         id="path182307" />
    </g>
  </g>
</svg>
