<?xml version="1.0" encoding="UTF-8" standalone="no"?>
<!-- Created with Inkscape (http://www.inkscape.org/) -->

<svg
   width="105"
   height="125"
   viewBox="0 0 27.781249 33.072916"
   version="1.1"
   id="svg5"
   inkscape:version="1.2.2 (b0a8486541, 2022-12-01)"
   sodipodi:docname="backup.svg"
   xmlns:inkscape="http://www.inkscape.org/namespaces/inkscape"
   xmlns:sodipodi="http://sodipodi.sourceforge.net/DTD/sodipodi-0.dtd"
   xmlns:xlink="http://www.w3.org/1999/xlink"
   xmlns="http://www.w3.org/2000/svg"
   xmlns:svg="http://www.w3.org/2000/svg">
  <sodipodi:namedview
     id="namedview7"
     pagecolor="#ff09ff"
     bordercolor="#eeeeee"
     borderopacity="1"
     inkscape:showpageshadow="0"
     inkscape:pageopacity="0"
     inkscape:pagecheckerboard="0"
     inkscape:deskcolor="#d1d1d1"
     inkscape:document-units="px"
     showgrid="false"
     inkscape:zoom="3.9055545"
     inkscape:cx="21.123761"
     inkscape:cy="39.559043"
     inkscape:window-width="1920"
     inkscape:window-height="1043"
     inkscape:window-x="0"
     inkscape:window-y="0"
     inkscape:window-maximized="1"
     inkscape:current-layer="layer1"
     inkscape:lockguides="false" />
  <defs
     id="defs2">
    <linearGradient
       inkscape:collect="always"
       id="linearGradient185427">
      <stop
         style="stop-color:#ffffff;stop-opacity:1;"
         offset="0"
         id="stop185423" />
      <stop
         style="stop-color:#ffffff;stop-opacity:0;"
         offset="1"
         id="stop185425" />
    </linearGradient>
    <rect
       x="447.80301"
       y="522.68451"
       width="234.03755"
       height="144.0538"
       id="rect4368" />
    <filter
       style="color-interpolation-filters:sRGB"
       inkscape:label="Drop Shadow"
       id="filter4412"
       x="-0.035373698"
       y="-0.028412441"
       width="1.0854864"
       height="1.0686634">
      <feFlood
         flood-opacity="1"
         flood-color="rgb(0,0,0)"
         result="flood"
         id="feFlood4402" />
      <feComposite
         in="flood"
         in2="SourceGraphic"
         operator="out"
         result="composite1"
         id="feComposite4404" />
      <feGaussianBlur
         in="composite1"
         stdDeviation="1"
         result="blur"
         id="feGaussianBlur4406" />
      <feOffset
         dx="1"
         dy="1"
         result="offset"
         id="feOffset4408" />
      <feComposite
         in="offset"
         in2="SourceGraphic"
         operator="in"
         result="composite2"
         id="feComposite4410" />
    </filter>
    <rect
       x="447.80301"
       y="522.68451"
       width="234.03755"
       height="144.0538"
       id="rect4400" />
    <rect
       x="447.80301"
       y="522.68451"
       width="234.03755"
       height="144.0538"
       id="rect4368-7" />
    <filter
       style="color-interpolation-filters:sRGB"
       inkscape:label="Drop Shadow"
       id="filter4412-7"
       x="-0.063885134"
       y="-0.46567049"
       width="1.1543891"
       height="2.1253703">
      <feFlood
         flood-opacity="1"
         flood-color="rgb(0,0,0)"
         result="flood"
         id="feFlood4402-6" />
      <feComposite
         in="flood"
         in2="SourceGraphic"
         operator="out"
         result="composite1"
         id="feComposite4404-4" />
      <feGaussianBlur
         in="composite1"
         stdDeviation="1"
         result="blur"
         id="feGaussianBlur4406-3" />
      <feOffset
         dx="1"
         dy="1"
         result="offset"
         id="feOffset4408-0" />
      <feComposite
         in="offset"
         in2="SourceGraphic"
         operator="in"
         result="composite2"
         id="feComposite4410-3" />
    </filter>
    <rect
       x="447.80301"
       y="522.68451"
       width="234.03755"
       height="144.0538"
       id="rect4400-0" />
    <filter
       style="color-interpolation-filters:sRGB"
       inkscape:label="Drop Shadow"
       id="filter26032-4"
       x="-0.035373695"
       y="-0.028412441"
       width="1.0854864"
       height="1.0686634">
      <feFlood
         flood-opacity="1"
         flood-color="rgb(0,0,0)"
         result="flood"
         id="feFlood26022-4" />
      <feComposite
         in="flood"
         in2="SourceGraphic"
         operator="out"
         result="composite1"
         id="feComposite26024-7" />
      <feGaussianBlur
         in="composite1"
         stdDeviation="1"
         result="blur"
         id="feGaussianBlur26026-6" />
      <feOffset
         dx="1"
         dy="1"
         result="offset"
         id="feOffset26028-3" />
      <feComposite
         in="offset"
         in2="SourceGraphic"
         operator="in"
         result="composite2"
         id="feComposite26030-1" />
    </filter>
    <filter
       style="color-interpolation-filters:sRGB;"
       inkscape:label="Drop Shadow"
       id="filter34132"
       x="-0.18357554"
       y="-0.18252252"
       width="1.4436409"
       height="1.4410961">
      <feFlood
         flood-opacity="1"
         flood-color="rgb(0,0,0)"
         result="flood"
         id="feFlood34122" />
      <feComposite
         in="flood"
         in2="SourceGraphic"
         operator="out"
         result="composite1"
         id="feComposite34124" />
      <feGaussianBlur
         in="composite1"
         stdDeviation="1"
         result="blur"
         id="feGaussianBlur34126" />
      <feOffset
         dx="1"
         dy="1"
         result="offset"
         id="feOffset34128" />
      <feComposite
         in="offset"
         in2="SourceGraphic"
         operator="in"
         result="composite2"
         id="feComposite34130" />
    </filter>
    <radialGradient
       inkscape:collect="always"
       xlink:href="#linearGradient185427"
       id="radialGradient185429"
       cx="37.547287"
       cy="-1.5835179"
       fx="37.547287"
       fy="-1.5835179"
       r="6.546478"
       gradientTransform="matrix(1,0,0,1.0051547,0,0.00816249)"
       gradientUnits="userSpaceOnUse" />
  </defs>
  <g
     inkscape:label="Layer 1"
     inkscape:groupmode="layer"
     id="layer1">
    <g
       id="g34136"
       transform="matrix(1.126204,0,0,1.126204,-28.60179,12.185453)"
       style="fill:url(#radialGradient185429);fill-opacity:1">
      <path
         id="path44653"
         style="fill:url(#radialGradient185429);fill-opacity:1;stroke-width:0.0950537"
         d="m 35.935915,-8.1523617 -0.956014,0.2371948 -0.744657,0.3731039 -0.626318,0.6263183 -0.318327,0.5224487 -0.136426,0.5250325 -0.63717,-0.07183 -0.7953,0.3472656 -0.47129,0.5803263 -0.237711,0.6955648 0.01344,0.7446574 0.468705,0.7007324 0.475423,0.3147094 0.524516,0.1948202 5.232239,-0.050126 1.022159,-0.048576 0.495577,0.088883 -0.01085,0.8490437 -1.433504,-0.039274 -0.835608,0.00568 -0.343131,0.1901693 -0.255799,0.2563151 -0.128674,0.26354977 -0.01395,3.36155193 0.122474,0.791166 0.329695,0.296106 0.465605,0.112655 4.035929,-10e-4 2.27583,-0.05994 0.402043,-0.202055 0.219625,-0.340548 -0.03153,-4.08815593 -0.334863,-0.36793617 -0.523999,-0.075448 -2.116667,-0.1012858 0.03824,-0.8216552 1.867069,-0.096118 0.709001,-0.4221964 0.390157,-0.5937622 -0.08992,-1.1286133 -0.573609,-0.6831624 -0.625284,-0.1663981 -0.670761,0.1240234 -0.376204,-0.8531778 -0.51263,-0.6464722 -0.775147,-0.3229777 -0.641304,-0.118339 -0.826306,0.1105875 -0.439767,0.2713013 -0.58291,-0.6004801 -1.118795,-0.587561 z m -0.888834,7.96953917 -3.454053,0.039274 -0.543119,0.120406 0.02532,1.17770643 0.09095,0.31781 -0.07028,0.152962 -0.09509,1.075903 0.141594,0.481624 -0.09302,1.003557 0.09353,0.732255 4.030762,0.07803 0.211357,-0.255281 -0.02274,-1.053166 -0.181901,-0.403593 0.206706,-0.462504 -0.08992,-0.859379 -0.165882,-0.419096 0.227893,-0.428398 -0.03824,-1.02629353 z" />
      <path
         id="path34024"
         style="fill:url(#radialGradient185429);fill-opacity:1;stroke-width:0.0950537"
         d="m 35.955234,-8.1637408 -0.956014,0.2371948 -0.744657,0.3731039 -0.626318,0.6263183 -0.318327,0.5224487 -0.136426,0.5250325 -0.63717,-0.07183 -0.7953,0.3472656 -0.47129,0.5803263 -0.237711,0.6955651 0.01344,0.744657 0.468705,0.700732 0.475423,0.31471 0.524516,0.19482 5.232239,-0.05013 1.022159,-0.04858 0.495577,0.08888 -0.01085,0.849044 -1.433504,-0.03927 -0.835608,0.0057 -0.343131,0.190169 -0.255799,0.256315 -0.128674,0.26355001 -0.01395,3.36155209 0.122474,0.791166 0.329695,0.296106 0.465605,0.112655 4.035929,-10e-4 2.27583,-0.05994 0.402043,-0.202055 0.219625,-0.340548 -0.03153,-4.08815609 -0.334863,-0.36793601 -0.523999,-0.07545 -2.116667,-0.101286 0.03824,-0.821655 1.867069,-0.09612 0.709001,-0.422206 0.390157,-0.593762 -0.08992,-1.1286131 -0.573609,-0.6831624 -0.625284,-0.1663981 -0.670761,0.1240234 -0.376204,-0.8531778 -0.51263,-0.6464722 -0.775147,-0.3229777 -0.641304,-0.118339 -0.826306,0.1105875 -0.439767,0.2713013 -0.58291,-0.6004801 -1.118795,-0.587561 z m -0.888834,7.96953931 -3.454053,0.03927 -0.543119,0.120406 0.02532,1.17770599 0.09095,0.31781 -0.07028,0.152962 -0.09509,1.075903 0.141594,0.481624 -0.09302,1.003557 0.09353,0.732255 4.030762,0.07803 0.211357,-0.255281 -0.02274,-1.053166 -0.181901,-0.403593 0.206706,-0.462504 -0.08992,-0.859379 -0.165882,-0.419096 0.227893,-0.428398 -0.03824,-1.02629299 z" />
    </g>
    <text
       xml:space="preserve"
       transform="matrix(0.10705005,0,0,0.10705005,-46.95604,-35.529253)"
       id="text4356-2"
       style="font-weight:bold;font-size:16px;line-height:21.3333px;font-family:Arial;-inkscape-font-specification:'Arial Bold';text-align:center;white-space:pre;shape-inside:url(#rect4368-7);display:inline;fill:#283442;fill-opacity:1;stroke-opacity:1"><tspan
         x="564.82129"
         y="537.76231"
         id="tspan185986">
</tspan><tspan
         x="451.72278"
         y="559.83098"
         id="tspan185990"><tspan
           style="font-weight:normal;font-size:18.6667px;-inkscape-font-specification:Arial"
           id="tspan185988">Configure definições, como </tspan></tspan><tspan
         x="454.81263"
         y="581.89965"
         id="tspan185994"><tspan
           style="font-weight:normal;font-size:18.6667px;-inkscape-font-specification:Arial"
           id="tspan185992">a frequência de backup ou </tspan></tspan><tspan
         x="475.57569"
         y="603.96831"
         id="tspan185998"><tspan
           style="font-weight:normal;font-size:18.6667px;-inkscape-font-specification:Arial"
           id="tspan185996">a política de retenção </tspan></tspan><tspan
         x="530.05821"
         y="626.03698"
         id="tspan186002"><tspan
           style="font-weight:normal;font-size:18.6667px;-inkscape-font-specification:Arial"
           id="tspan186000">eficiente</tspan></tspan></text>
    <path
       style="fill:#080b0e;fill-opacity:1;stroke-width:0.0491187"
       d="M 6.4638329,18.101811 C 6.2373993,18.034754 6.0176618,17.760059 5.9777967,17.494222 5.9594678,17.37194 5.9526306,17.032644 5.9626651,16.740228 5.9766231,16.332349 6.0015471,16.176979 6.0697547,16.072904 6.1555577,15.941947 6.1555417,15.932666 6.06935,15.805605 5.993091,15.693266 5.980003,15.5693 5.980003,14.959594 c 0,-0.607967 0.013312,-0.734695 0.089347,-0.850746 0.086385,-0.131838 0.086385,-0.140723 0,-0.267989 -0.076348,-0.112474 -0.089347,-0.236524 -0.089347,-0.85253 0,-0.651497 0.00975,-0.733958 0.1012717,-0.856543 0.244588,-0.327599 0.2791892,-0.336671 1.3511894,-0.354154 l 0.9789142,-0.01598 V 10.793208 9.8247649 L 7.9727282,9.7738267 C 7.4188758,9.7095148 6.9865338,9.5070291 6.6196115,9.1401068 5.307389,7.8278843 6.1035176,5.6310999 7.9698379,5.4143727 L 8.4055986,5.3637736 8.484989,5.1558989 C 8.7049288,4.5799932 9.3628709,3.8328777 9.9644316,3.4759408 10.313403,3.2688794 10.549498,3.1708695 11.014669,3.0399737 c 0.380222,-0.1070007 1.305279,-0.1032695 1.716315,0.00691 0.642268,0.1721689 1.295383,0.5436105 1.713067,0.9742653 l 0.212103,0.2186936 0.426438,-0.1480709 c 0.368476,-0.1279422 0.49654,-0.1481438 0.942184,-0.1486415 0.43261,-4.045e-4 0.577732,0.020715 0.900241,0.1314501 0.416303,0.1429528 0.796258,0.3650207 1.110898,0.6492796 0.227222,0.2052812 0.598924,0.7469173 0.690646,1.0063945 l 0.06177,0.1747502 0.398777,-8.092e-4 c 0.485098,-0.00122 0.818947,0.1028292 1.165394,0.3631393 0.531237,0.3991649 0.800469,0.9280197 0.800469,1.5723633 0,0.6263428 -0.252979,1.141405 -0.758736,1.5447695 -0.415162,0.331116 -0.641284,0.3853923 -1.704767,0.4092194 l -0.945535,0.021161 v 0.2367191 0.236715 l 1.264808,0.01594 c 1.18657,0.01497 1.276961,0.0225 1.46128,0.12216 0.231616,0.125208 0.468541,0.366033 0.596204,0.606008 0.08542,0.16057 0.09146,0.322663 0.09146,2.455938 0,2.535943 0.0142,2.418185 -0.33705,2.791791 -0.30478,0.324164 -0.460538,0.370382 -1.320707,0.391882 l -0.773621,0.01934 v 0.48604 0.486041 h 0.491187 0.491187 v 0.245594 0.245592 H 16.515966 13.323251 V 17.909014 17.66342 h 0.491186 0.491187 v -0.486031 -0.48604 l -0.773617,-0.01934 c -0.860169,-0.02149 -1.015927,-0.06772 -1.320707,-0.391882 -0.351269,-0.373606 -0.33705,-0.255847 -0.33705,-2.791791 0,-2.247868 0.0016,-2.287131 0.106212,-2.480497 0.12521,-0.231612 0.366032,-0.468537 0.606007,-0.596204 0.15225,-0.081 0.316606,-0.09328 1.436725,-0.107406 l 1.264808,-0.01594 V 10.046364 9.8044369 H 12.095279 8.9025631 v 0.9786881 0.978687 l 0.9789146,0.01598 c 1.0720043,0.01748 1.1066013,0.02654 1.3511893,0.354153 0.09153,0.122586 0.101279,0.205047 0.101279,0.856543 0,0.622476 -0.0125,0.73934 -0.0916,0.855977 -0.0894,0.131815 -0.0894,0.138333 0,0.270151 0.07897,0.116451 0.0916,0.233292 0.0916,0.847298 0,0.614007 -0.01262,0.730847 -0.0916,0.847299 -0.0894,0.131817 -0.0894,0.138336 0,0.270155 0.07911,0.116633 0.0916,0.233497 0.0916,0.855972 0,0.787871 -0.02132,0.856818 -0.338123,1.09346 -0.131579,0.09828 -0.198136,0.101538 -2.2564259,0.11012 -1.197353,0.005 -2.1881866,-0.01104 -2.275495,-0.03694 z m 4.3444701,-0.497469 c 0.08167,-0.08166 0.08167,-1.274009 0,-1.355677 -0.08476,-0.08476 -4.2180371,-0.08476 -4.3027965,0 -0.081668,0.08167 -0.081668,1.274013 0,1.355677 0.084759,0.08476 4.2180375,0.08476 4.3027965,0 z M 6.9377514,16.926506 V 16.68091 h 0.2455913 0.2455954 v 0.245596 0.245591 H 7.1833427 6.9377514 Z m 0.9823735,0 V 16.68091 h 0.2455953 0.2455914 v 0.245596 0.245591 H 8.1657202 7.9201249 Z m 0.9823734,0 V 16.68091 h 0.2455955 0.2455913 v 0.245596 0.245591 H 9.1480938 8.9024983 Z m 9.3325557,0.245591 V 16.68091 h -1.719155 -1.719156 v 0.491187 0.491186 h 1.719156 1.719155 z M 20.33533,16.09175 c 0.227971,-0.138996 0.355258,-0.372134 0.355476,-0.651088 l 1.86e-4,-0.233312 H 16.515899 12.34081 l 2.02e-4,0.233312 c 2.07e-4,0.278954 0.127509,0.512092 0.35548,0.651088 0.155957,0.09508 0.254445,0.09761 3.819428,0.09761 3.564986,0 3.663474,-0.0025 3.81943,-0.09761 z m -9.527027,-0.452155 c 0.08167,-0.08167 0.08167,-1.274013 0,-1.355677 -0.08476,-0.08476 -4.2180371,-0.08476 -4.3027965,0 -0.081668,0.08166 -0.081668,1.274008 0,1.355677 0.084759,0.08476 4.2180375,0.08476 4.3027965,0 z M 7.9201249,14.961754 v -0.245591 h 0.2455953 0.2455914 v 0.245591 0.245596 H 8.1657202 7.9201249 Z m 0.9823734,0 v -0.245591 h 0.2455955 0.2455913 v 0.245591 0.245596 H 9.1480938 8.9024983 Z m 0.9823738,0 v -0.245591 h 0.2455949 0.245596 v 0.245591 0.245596 H 10.130467 9.8848721 Z M 13.323183,14.2612 v -0.454963 l 0.312099,-0.08937 c 0.270244,-0.07739 0.322935,-0.112103 0.392886,-0.25879 0.07908,-0.165849 0.07759,-0.175725 -0.07099,-0.47007 l -0.151773,-0.300665 0.463718,-0.463719 0.463722,-0.463723 0.25135,0.127372 c 0.138243,0.07005 0.263139,0.127371 0.277546,0.127371 0.0144,0 0.02617,-0.276291 0.02617,-0.613986 v -0.613983 l -1.21569,1.83e-4 c -1.126426,1.49e-4 -1.227442,0.0073 -1.375772,0.09779 -0.08805,0.05369 -0.204007,0.16964 -0.257689,0.257689 -0.09244,0.151615 -0.09762,0.250401 -0.09779,1.866959 l -1.82e-4,1.706865 h 0.491187 0.491187 z m 1.495364,0.33867 c -0.01606,-0.06396 -0.0057,-0.24333 0.02299,-0.398603 0.210923,-1.140968 1.417362,-1.756698 2.440661,-1.245638 0.27477,0.137228 0.611401,0.473858 0.748629,0.748629 0.126489,0.253275 0.223763,0.730863 0.182413,0.895612 l -0.02917,0.116293 h 0.516674 0.516679 v -0.290142 -0.290142 l -0.268842,-0.08455 c -0.191416,-0.06021 -0.27703,-0.114574 -0.297247,-0.188765 -0.01562,-0.05731 -0.07555,-0.209854 -0.133182,-0.338981 L 18.41337,13.28881 18.520686,13.067924 c 0.05902,-0.121489 0.107316,-0.246995 0.107316,-0.278906 0,-0.07871 -0.348246,-0.430546 -0.426163,-0.430546 -0.03432,0 -0.161795,0.04829 -0.283285,0.107316 l -0.22089,0.107316 -0.234773,-0.104782 c -0.129124,-0.05763 -0.280541,-0.117208 -0.33648,-0.132393 -0.07135,-0.01938 -0.127088,-0.108116 -0.186706,-0.297242 l -0.08499,-0.269641 h -0.336748 -0.336752 l -0.08456,0.268848 c -0.06021,0.191415 -0.114575,0.277024 -0.188765,0.297247 -0.05731,0.01562 -0.209854,0.07554 -0.338978,0.133181 l -0.234772,0.104782 -0.22089,-0.107316 c -0.121489,-0.05902 -0.246996,-0.107316 -0.278902,-0.107316 -0.07872,0 -0.430546,0.348247 -0.430546,0.426165 0,0.03431 0.04829,0.161798 0.107316,0.283287 l 0.107316,0.220886 -0.104782,0.234773 c -0.05763,0.129127 -0.117564,0.281665 -0.133182,0.338981 -0.02023,0.07419 -0.10583,0.128557 -0.297246,0.188765 l -0.268847,0.08455 v 0.290142 0.290142 h 0.516684 0.51668 z m 0.990798,-0.129497 c 0,-0.41326 0.29318,-0.706359 0.706554,-0.706359 0.413378,0 0.706555,0.293099 0.706555,0.706359 v 0.24579 h 0.260707 0.260707 v -0.227615 c 0,-0.376544 -0.09728,-0.609779 -0.366724,-0.879221 -0.265769,-0.265768 -0.502867,-0.366728 -0.861245,-0.366728 -0.358374,0 -0.595472,0.100964 -0.861241,0.366728 -0.269443,0.269442 -0.366724,0.502677 -0.366724,0.879221 v 0.227615 h 0.260704 0.260707 z m 0.893207,0.186844 c 0.03241,-0.03241 0.05894,-0.116411 0.05894,-0.186649 0,-0.162325 -0.08327,-0.245591 -0.245594,-0.245591 -0.162326,0 -0.245592,0.08326 -0.245592,0.245591 0,0.162324 0.08327,0.245595 0.245592,0.245595 0.07024,0 0.154232,-0.02655 0.186652,-0.05895 z m 3.988254,-1.64793 c -2.02e-4,-1.616558 -0.0053,-1.715348 -0.09779,-1.866959 -0.05369,-0.08805 -0.169645,-0.204007 -0.257689,-0.257694 -0.14833,-0.09043 -0.249351,-0.09762 -1.375773,-0.09779 l -1.215689,-1.82e-4 v 0.613982 c 0,0.337695 0.01177,0.613987 0.02617,0.613987 0.0144,0 0.139299,-0.05732 0.277542,-0.127372 l 0.251353,-0.127371 0.463719,0.463722 0.463722,0.463719 -0.151777,0.300665 c -0.147238,0.291676 -0.149431,0.305577 -0.07334,0.465143 0.06674,0.139951 0.125321,0.17863 0.392878,0.2594 l 0.314442,0.09493 7e-6,0.454348 5e-6,0.454348 h 0.49119 0.491188 l -2.07e-4,-1.706876 z m -9.882503,0.665561 c 0.08167,-0.08167 0.08167,-1.274012 0,-1.355681 -0.08476,-0.08476 -4.2180371,-0.08476 -4.3027965,0 -0.081668,0.08167 -0.081668,1.274013 0,1.355681 0.084759,0.08476 4.2180375,0.08476 4.3027965,0 z m -3.8705516,-0.67784 v -0.245596 h 0.2455913 0.2455954 v 0.245596 0.245591 H 7.1833427 6.9377514 Z m 0.9823735,0 v -0.245596 h 0.2455953 0.2455914 v 0.245596 0.245591 H 8.1657202 7.9201249 Z m 0.9823734,0 v -0.245596 h 0.2455955 0.2455913 v 0.245596 0.245591 H 9.1480938 8.9024983 Z m 7.6134007,-1.719156 c 0.666992,0 0.681262,0.0025 0.702116,0.110514 0.01169,0.06078 0.02427,-0.602318 0.028,-1.47356 l 0.0066,-1.5840808 h 0.492433 0.492437 L 17.449162,7.3483539 C 16.745496,6.4715524 16.645201,6.3659805 16.515907,6.3659805 c -0.129289,0 -0.229586,0.1055715 -0.933255,0.9823734 l -0.788397,0.9823736 h 0.492437 0.492437 l 0.0066,1.5840808 c 0.0036,0.8712417 0.01626,1.5343427 0.02795,1.4735607 0.02083,-0.108274 0.03511,-0.110515 0.702116,-0.110515 z M 15.287934,9.0675096 V 8.8219141 H 14.54978 13.811631 l 1.094261,-1.3600339 c 0.601844,-0.7480218 1.154959,-1.4043212 1.229147,-1.4584484 0.184103,-0.1343267 0.577621,-0.1343267 0.761724,0 0.07418,0.054128 0.627303,0.7104266 1.229147,1.4584484 l 1.094261,1.3600339 h -0.738149 -0.738154 v 0.2455955 0.2455913 h 0.875385 c 1.080088,0 1.237,-0.042119 1.633308,-0.438427 0.423129,-0.4231252 0.551006,-0.9813054 0.356111,-1.5544072 -0.111951,-0.3292056 -0.54276,-0.7600182 -0.871966,-0.8719706 -0.30128,-0.1024525 -0.7352,-0.105758 -1.013094,-0.00769 -0.23924,0.084411 -0.263944,0.067366 -0.317073,-0.2187786 -0.01788,-0.096303 -0.113222,-0.329056 -0.211876,-0.5172227 -0.424416,-0.8095451 -1.24535,-1.3021884 -2.169951,-1.3021884 -0.448299,0 -0.775174,0.082356 -1.177037,0.2965464 l -0.304538,0.1623129 -0.1271,-0.1686124 C 14.031267,4.1822202 13.413768,3.7444931 12.807437,3.5523816 12.524392,3.4626986 12.350718,3.4436534 11.825064,3.4446411 11.259022,3.4458574 11.145614,3.460623 10.826251,3.5762368 10.323263,3.758298 9.9720099,3.9801071 9.5948318,4.3538631 9.224579,4.7207531 8.9967779,5.0799072 8.827947,5.5629534 L 8.7103586,5.8993731 8.278405,5.882906 C 7.6783893,5.8600462 7.3646272,5.9796454 6.9580097,6.3862589 6.5880043,6.7562643 6.4465646,7.0902605 6.4465646,7.5939655 c 0,0.5036686 0.1414397,0.8376851 0.5114451,1.2077754 0.5395402,0.5396657 0.2348208,0.5058494 4.5846203,0.5088192 l 3.745304,0.00243 z M 7.8955657,8.7759882 C 7.432183,8.663174 7.0531753,8.2560507 6.9666478,7.7781429 L 6.9333089,7.5939494 h 0.2478167 c 0.2242001,0 0.2478368,0.010519 0.2480027,0.1105155 2.711e-4,0.1614874 0.1716792,0.4162268 0.3554803,0.5282925 0.1207686,0.073633 0.2475416,0.097646 0.5161949,0.097787 l 0.3561116,1.821e-4 V 8.5763221 8.8219134 L 8.3499218,8.8168971 C 8.1810748,8.814065 7.976619,8.7957367 7.8955738,8.7759963 Z M 9.1480938,8.5763228 V 8.3307275 H 9.3936851 9.6392808 V 8.5763228 8.8219141 H 9.3936851 9.1480938 Z M 9.3276627,6.0856381 C 9.1997933,6.0526633 9.2547216,5.7967872 9.4836395,5.3590479 9.80653,4.7416021 10.428313,4.2351457 11.124133,4.0228205 c 0.351997,-0.1074083 1.10567,-0.104273 1.474547,0.00615 0.155342,0.046492 0.282434,0.1057787 0.282434,0.1317453 0,0.054855 -0.135196,0.3881396 -0.157129,0.3873546 -0.0081,-3.722e-4 -0.12329,-0.033461 -0.255905,-0.073682 C 11.938323,4.313681 11.223102,4.4083774 10.715149,4.7064857 10.285651,4.9585464 9.8560356,5.4977267 9.7353246,5.9362023 9.6919545,6.0937328 9.665331,6.1195705 9.5514301,6.1146991 9.4781773,6.1114669 9.377485,6.0985156 9.3276627,6.0856487 Z"
       id="path4358-5" />
    <text
       xml:space="preserve"
       style="font-style:normal;font-variant:normal;font-weight:normal;font-stretch:normal;font-size:2.28373px;line-height:0px;font-family:Arial;-inkscape-font-specification:Arial;text-align:center;text-anchor:middle;display:inline;fill:#283442;fill-opacity:1;stroke-width:0.10705;stroke-opacity:1"
       x="13.313299"
       y="21.621281"
       id="text4362-4"><tspan
         sodipodi:role="line"
         id="tspan4360-0"
         style="font-style:normal;font-variant:normal;font-weight:bold;font-stretch:normal;font-family:Arial;-inkscape-font-specification:'Arial Bold';stroke-width:0.10705"
         x="13.313299"
         y="21.621281">Plano de backup</tspan></text>
    <text
       xml:space="preserve"
       transform="matrix(0.10705005,0,0,0.10705005,-46.944239,-35.517451)"
       id="text4388-4"
       style="font-weight:bold;font-size:16px;line-height:21.3333px;font-family:Arial;-inkscape-font-specification:'Arial Bold';text-align:center;white-space:pre;shape-inside:url(#rect4400-0);display:inline;fill:#283442;fill-opacity:1;stroke-opacity:1;filter:url(#filter4412-7)"><tspan
         x="564.82129"
         y="537.76231"
         id="tspan186004">
</tspan><tspan
         x="451.72278"
         y="559.83098"
         id="tspan186008"><tspan
           style="font-weight:normal;font-size:18.6667px;-inkscape-font-specification:Arial"
           id="tspan186006">Configure definições, como </tspan></tspan><tspan
         x="454.81263"
         y="581.89965"
         id="tspan186012"><tspan
           style="font-weight:normal;font-size:18.6667px;-inkscape-font-specification:Arial"
           id="tspan186010">a frequência de backup ou </tspan></tspan><tspan
         x="475.57569"
         y="603.96831"
         id="tspan186016"><tspan
           style="font-weight:normal;font-size:18.6667px;-inkscape-font-specification:Arial"
           id="tspan186014">a política de retenção </tspan></tspan><tspan
         x="530.05821"
         y="626.03698"
         id="tspan186020"><tspan
           style="font-weight:normal;font-size:18.6667px;-inkscape-font-specification:Arial"
           id="tspan186018">eficiente</tspan></tspan></text>
    <text
       xml:space="preserve"
       style="font-style:normal;font-variant:normal;font-weight:normal;font-stretch:normal;font-size:5.64444px;line-height:0px;font-family:Arial;-inkscape-font-specification:Arial;text-align:center;text-anchor:middle;display:inline;fill:#283442;fill-opacity:1;stroke-width:0.264583;stroke-opacity:1;filter:url(#filter4412-7)"
       x="149.21753"
       y="-135.23132"
       id="text4394-9"
       transform="matrix(0.4045986,0,0,0.4045986,-47.048103,76.347485)"><tspan
         sodipodi:role="line"
         id="tspan4392-2"
         style="font-style:normal;font-variant:normal;font-weight:bold;font-stretch:normal;font-family:Arial;-inkscape-font-specification:'Arial Bold';stroke-width:0.264583"
         x="149.21753"
         y="-135.23132">Plano de backup</tspan></text>
  </g>
</svg>
