<?xml version="1.0" encoding="UTF-8" standalone="no"?>
<!-- Created with Inkscape (http://www.inkscape.org/) -->

<svg
   width="105"
   height="125"
   viewBox="0 0 27.781249 33.072916"
   version="1.1"
   id="svg5"
   inkscape:version="1.2.2 (b0a8486541, 2022-12-01)"
   sodipodi:docname="relat.svg"
   xmlns:inkscape="http://www.inkscape.org/namespaces/inkscape"
   xmlns:sodipodi="http://sodipodi.sourceforge.net/DTD/sodipodi-0.dtd"
   xmlns="http://www.w3.org/2000/svg"
   xmlns:svg="http://www.w3.org/2000/svg">
  <sodipodi:namedview
     id="namedview7"
     pagecolor="#ffffff"
     bordercolor="#eeeeee"
     borderopacity="1"
     inkscape:showpageshadow="0"
     inkscape:pageopacity="0"
     inkscape:pagecheckerboard="0"
     inkscape:deskcolor="#d1d1d1"
     inkscape:document-units="px"
     showgrid="false"
     inkscape:zoom="2.7616441"
     inkscape:cx="90.525786"
     inkscape:cy="68.256442"
     inkscape:window-width="1920"
     inkscape:window-height="1043"
     inkscape:window-x="0"
     inkscape:window-y="0"
     inkscape:window-maximized="1"
     inkscape:current-layer="layer1"
     showguides="true" />
  <defs
     id="defs2">
    <rect
       x="447.80301"
       y="522.68451"
       width="234.03755"
       height="144.0538"
       id="rect4368" />
    <filter
       style="color-interpolation-filters:sRGB"
       inkscape:label="Drop Shadow"
       id="filter4412"
       x="-0.035373698"
       y="-0.028412441"
       width="1.0854864"
       height="1.0686634">
      <feFlood
         flood-opacity="1"
         flood-color="rgb(0,0,0)"
         result="flood"
         id="feFlood4402" />
      <feComposite
         in="flood"
         in2="SourceGraphic"
         operator="out"
         result="composite1"
         id="feComposite4404" />
      <feGaussianBlur
         in="composite1"
         stdDeviation="1"
         result="blur"
         id="feGaussianBlur4406" />
      <feOffset
         dx="1"
         dy="1"
         result="offset"
         id="feOffset4408" />
      <feComposite
         in="offset"
         in2="SourceGraphic"
         operator="in"
         result="composite2"
         id="feComposite4410" />
    </filter>
    <rect
       x="447.80301"
       y="522.68451"
       width="234.03755"
       height="144.0538"
       id="rect4400" />
    <rect
       x="251.54297"
       y="738.31445"
       width="157.14275"
       height="78.953087"
       id="rect7650" />
    <filter
       style="color-interpolation-filters:sRGB"
       inkscape:label="Drop Shadow"
       id="filter7700"
       x="-0.035373699"
       y="-0.028412441"
       width="1.0854864"
       height="1.0686634">
      <feFlood
         flood-opacity="1"
         flood-color="rgb(0,0,0)"
         result="flood"
         id="feFlood7690" />
      <feComposite
         in="flood"
         in2="SourceGraphic"
         operator="out"
         result="composite1"
         id="feComposite7692" />
      <feGaussianBlur
         in="composite1"
         stdDeviation="1"
         result="blur"
         id="feGaussianBlur7694" />
      <feOffset
         dx="1"
         dy="1"
         result="offset"
         id="feOffset7696" />
      <feComposite
         in="offset"
         in2="SourceGraphic"
         operator="in"
         result="composite2"
         id="feComposite7698" />
    </filter>
    <rect
       x="251.54297"
       y="738.31445"
       width="157.14275"
       height="78.953087"
       id="rect7688" />
    <filter
       style="color-interpolation-filters:sRGB"
       inkscape:label="Drop Shadow"
       id="filter29884-9-6"
       x="-0.035373696"
       y="-0.02841244"
       width="1.0854864"
       height="1.0686634">
      <feFlood
         flood-opacity="1"
         flood-color="rgb(167,177,181)"
         result="flood"
         id="feFlood29874-7-49" />
      <feComposite
         in="SourceGraphic"
         in2="flood"
         operator="in"
         result="composite1"
         id="feComposite29876-5-50" />
      <feGaussianBlur
         in="composite1"
         stdDeviation="1"
         result="blur"
         id="feGaussianBlur29878-3-48" />
      <feOffset
         dx="1"
         dy="1"
         result="offset"
         id="feOffset29880-8-7" />
      <feComposite
         in="offset"
         in2="offset"
         operator="atop"
         result="composite2"
         id="feComposite29882-8-1" />
    </filter>
    <rect
       x="251.54297"
       y="738.31445"
       width="187.13176"
       height="112.90445"
       id="rect48695-3-72" />
    <filter
       inkscape:label="Blend Opposites"
       inkscape:menu="Color"
       inkscape:menu-tooltip="Blend an image with its hue opposite"
       style="color-interpolation-filters:sRGB"
       id="filter251492-1-1-7"
       x="0"
       y="0"
       width="1"
       height="1">
      <feColorMatrix
         type="hueRotate"
         values="180"
         result="fbSourceGraphic"
         in="SourceGraphic"
         id="feColorMatrix251486-5-89-22" />
      <feColorMatrix
         values="1 0 0 0 0 0 1 0 0 0 0 0 1 0 0 -0.2125 -0.7154 -0.0721 1 0 "
         in="SourceGraphic"
         result="result1"
         id="feColorMatrix251487-9-6-61" />
      <feColorMatrix
         type="hueRotate"
         values="0"
         id="feColorMatrix251488-7-4-06" />
      <feColorMatrix
         values="1 0 0 0 0 0 1 0 0 0 0 0 1 0 0 0 0 0 1 0 "
         result="result3"
         id="feColorMatrix251489-7-3-1" />
      <feComposite
         in2="result3"
         result="result6"
         operator="atop"
         id="feComposite251489-6-3-5" />
      <feComposite
         in2="result6"
         operator="arithmetic"
         k2="0.5"
         k1="0.5"
         k3="0.5"
         in="result6"
         result="result4"
         id="feComposite251490-7-3-94"
         k4="0" />
      <feBlend
         in2="fbSourceGraphic"
         mode="normal"
         result="result2"
         in="result4"
         id="feBlend251490-3-8-9" />
      <feComposite
         in2="result2"
         operator="arithmetic"
         k2="1"
         result="result5"
         id="feComposite251491-6-6-0"
         k1="0"
         k3="0"
         k4="0" />
      <feComposite
         in2="SourceGraphic"
         operator="in"
         result="result5"
         id="feComposite251492-5-04-9" />
    </filter>
    <filter
       inkscape:label="Blend Opposites"
       inkscape:menu="Color"
       inkscape:menu-tooltip="Blend an image with its hue opposite"
       style="color-interpolation-filters:sRGB"
       id="filter8421"
       x="0"
       y="0"
       width="1"
       height="1">
      <feColorMatrix
         type="hueRotate"
         values="180"
         result="fbSourceGraphic"
         in="SourceGraphic"
         id="feColorMatrix8403" />
      <feColorMatrix
         values="1 0 0 0 0 0 1 0 0 0 0 0 1 0 0 -0.2125 -0.7154 -0.0721 1 0 "
         in="SourceGraphic"
         result="result1"
         id="feColorMatrix8405" />
      <feColorMatrix
         type="hueRotate"
         values="0"
         id="feColorMatrix8407" />
      <feColorMatrix
         values="1 0 0 0 0 0 1 0 0 0 0 0 1 0 0 0 0 0 1 0 "
         result="result3"
         id="feColorMatrix8409" />
      <feComposite
         in2="result3"
         result="result6"
         operator="atop"
         id="feComposite8411" />
      <feComposite
         in2="result6"
         operator="arithmetic"
         k2="0.5"
         k1="0.5"
         k3="0.5"
         in="result6"
         result="result4"
         id="feComposite8413"
         k4="0" />
      <feBlend
         in2="fbSourceGraphic"
         mode="normal"
         result="result2"
         in="result4"
         id="feBlend8415" />
      <feComposite
         in2="result2"
         operator="arithmetic"
         k2="1"
         result="result5"
         id="feComposite8417"
         k1="0"
         k3="0"
         k4="0" />
      <feComposite
         in2="SourceGraphic"
         operator="in"
         result="result5"
         id="feComposite8419" />
    </filter>
    <filter
       inkscape:label="Blend Opposites"
       inkscape:menu="Color"
       inkscape:menu-tooltip="Blend an image with its hue opposite"
       style="color-interpolation-filters:sRGB"
       id="filter8441"
       x="0"
       y="0"
       width="1"
       height="1">
      <feColorMatrix
         type="hueRotate"
         values="180"
         result="fbSourceGraphic"
         in="SourceGraphic"
         id="feColorMatrix8423" />
      <feColorMatrix
         values="1 0 0 0 0 0 1 0 0 0 0 0 1 0 0 -0.2125 -0.7154 -0.0721 1 0 "
         in="SourceGraphic"
         result="result1"
         id="feColorMatrix8425" />
      <feColorMatrix
         type="hueRotate"
         values="0"
         id="feColorMatrix8427" />
      <feColorMatrix
         values="1 0 0 0 0 0 1 0 0 0 0 0 1 0 0 0 0 0 1 0 "
         result="result3"
         id="feColorMatrix8429" />
      <feComposite
         in2="result3"
         result="result6"
         operator="atop"
         id="feComposite8431" />
      <feComposite
         in2="result6"
         operator="arithmetic"
         k2="0.5"
         k1="0.5"
         k3="0.5"
         in="result6"
         result="result4"
         id="feComposite8433"
         k4="0" />
      <feBlend
         in2="fbSourceGraphic"
         mode="normal"
         result="result2"
         in="result4"
         id="feBlend8435" />
      <feComposite
         in2="result2"
         operator="arithmetic"
         k2="1"
         result="result5"
         id="feComposite8437"
         k1="0"
         k3="0"
         k4="0" />
      <feComposite
         in2="SourceGraphic"
         operator="in"
         result="result5"
         id="feComposite8439" />
    </filter>
    <filter
       style="color-interpolation-filters:sRGB"
       inkscape:label="Drop Shadow"
       id="filter24492-8-17"
       x="-0.035373696"
       y="-0.028412441"
       width="1.0854864"
       height="1.0686634">
      <feFlood
         flood-opacity="1"
         flood-color="rgb(0,0,0)"
         result="flood"
         id="feFlood24482-8-7" />
      <feComposite
         in="flood"
         in2="SourceGraphic"
         operator="out"
         result="composite1"
         id="feComposite24484-8-1" />
      <feGaussianBlur
         in="composite1"
         stdDeviation="1"
         result="blur"
         id="feGaussianBlur24486-9-1" />
      <feOffset
         dx="1"
         dy="1"
         result="offset"
         id="feOffset24488-7-5" />
      <feComposite
         in="offset"
         in2="SourceGraphic"
         operator="in"
         result="composite2"
         id="feComposite24490-7-97" />
    </filter>
    <rect
       x="251.54297"
       y="738.31445"
       width="187.13176"
       height="112.90445"
       id="rect48697-6-7" />
    <filter
       inkscape:label="Blend Opposites"
       inkscape:menu="Color"
       inkscape:menu-tooltip="Blend an image with its hue opposite"
       style="color-interpolation-filters:sRGB"
       id="filter8468"
       x="0"
       y="0"
       width="1"
       height="1">
      <feColorMatrix
         type="hueRotate"
         values="180"
         result="fbSourceGraphic"
         in="SourceGraphic"
         id="feColorMatrix8450" />
      <feColorMatrix
         values="1 0 0 0 0 0 1 0 0 0 0 0 1 0 0 -0.2125 -0.7154 -0.0721 1 0 "
         in="SourceGraphic"
         result="result1"
         id="feColorMatrix8452" />
      <feColorMatrix
         type="hueRotate"
         values="0"
         id="feColorMatrix8454" />
      <feColorMatrix
         values="1 0 0 0 0 0 1 0 0 0 0 0 1 0 0 0 0 0 1 0 "
         result="result3"
         id="feColorMatrix8456" />
      <feComposite
         in2="result3"
         result="result6"
         operator="atop"
         id="feComposite8458" />
      <feComposite
         in2="result6"
         operator="arithmetic"
         k2="0.5"
         k1="0.5"
         k3="0.5"
         in="result6"
         result="result4"
         id="feComposite8460"
         k4="0" />
      <feBlend
         in2="fbSourceGraphic"
         mode="normal"
         result="result2"
         in="result4"
         id="feBlend8462" />
      <feComposite
         in2="result2"
         operator="arithmetic"
         k2="1"
         result="result5"
         id="feComposite8464"
         k1="0"
         k3="0"
         k4="0" />
      <feComposite
         in2="SourceGraphic"
         operator="in"
         result="result5"
         id="feComposite8466" />
    </filter>
    <filter
       inkscape:label="Blend Opposites"
       inkscape:menu="Color"
       inkscape:menu-tooltip="Blend an image with its hue opposite"
       style="color-interpolation-filters:sRGB"
       id="filter8488"
       x="0"
       y="0"
       width="1"
       height="1">
      <feColorMatrix
         type="hueRotate"
         values="180"
         result="fbSourceGraphic"
         in="SourceGraphic"
         id="feColorMatrix8470" />
      <feColorMatrix
         values="1 0 0 0 0 0 1 0 0 0 0 0 1 0 0 -0.2125 -0.7154 -0.0721 1 0 "
         in="SourceGraphic"
         result="result1"
         id="feColorMatrix8472" />
      <feColorMatrix
         type="hueRotate"
         values="0"
         id="feColorMatrix8474" />
      <feColorMatrix
         values="1 0 0 0 0 0 1 0 0 0 0 0 1 0 0 0 0 0 1 0 "
         result="result3"
         id="feColorMatrix8476" />
      <feComposite
         in2="result3"
         result="result6"
         operator="atop"
         id="feComposite8478" />
      <feComposite
         in2="result6"
         operator="arithmetic"
         k2="0.5"
         k1="0.5"
         k3="0.5"
         in="result6"
         result="result4"
         id="feComposite8480"
         k4="0" />
      <feBlend
         in2="fbSourceGraphic"
         mode="normal"
         result="result2"
         in="result4"
         id="feBlend8482" />
      <feComposite
         in2="result2"
         operator="arithmetic"
         k2="1"
         result="result5"
         id="feComposite8484"
         k1="0"
         k3="0"
         k4="0" />
      <feComposite
         in2="SourceGraphic"
         operator="in"
         result="result5"
         id="feComposite8486" />
    </filter>
    <filter
       inkscape:label="Blend Opposites"
       inkscape:menu="Color"
       inkscape:menu-tooltip="Blend an image with its hue opposite"
       style="color-interpolation-filters:sRGB"
       id="filter8508"
       x="0"
       y="0"
       width="1"
       height="1">
      <feColorMatrix
         type="hueRotate"
         values="180"
         result="fbSourceGraphic"
         in="SourceGraphic"
         id="feColorMatrix8490" />
      <feColorMatrix
         values="1 0 0 0 0 0 1 0 0 0 0 0 1 0 0 -0.2125 -0.7154 -0.0721 1 0 "
         in="SourceGraphic"
         result="result1"
         id="feColorMatrix8492" />
      <feColorMatrix
         type="hueRotate"
         values="0"
         id="feColorMatrix8494" />
      <feColorMatrix
         values="1 0 0 0 0 0 1 0 0 0 0 0 1 0 0 0 0 0 1 0 "
         result="result3"
         id="feColorMatrix8496" />
      <feComposite
         in2="result3"
         result="result6"
         operator="atop"
         id="feComposite8498" />
      <feComposite
         in2="result6"
         operator="arithmetic"
         k2="0.5"
         k1="0.5"
         k3="0.5"
         in="result6"
         result="result4"
         id="feComposite8500"
         k4="0" />
      <feBlend
         in2="fbSourceGraphic"
         mode="normal"
         result="result2"
         in="result4"
         id="feBlend8502" />
      <feComposite
         in2="result2"
         operator="arithmetic"
         k2="1"
         result="result5"
         id="feComposite8504"
         k1="0"
         k3="0"
         k4="0" />
      <feComposite
         in2="SourceGraphic"
         operator="in"
         result="result5"
         id="feComposite8506" />
    </filter>
    <rect
       x="251.54297"
       y="738.31445"
       width="158.74907"
       height="227.82014"
       id="rect11810" />
    <filter
       style="color-interpolation-filters:sRGB"
       inkscape:label="Drop Shadow"
       id="filter11853"
       x="-0.035373701"
       y="-0.028412441"
       width="1.0854864"
       height="1.0686634">
      <feFlood
         flood-opacity="1"
         flood-color="rgb(0,0,0)"
         result="flood"
         id="feFlood11843" />
      <feComposite
         in="flood"
         in2="SourceGraphic"
         operator="out"
         result="composite1"
         id="feComposite11845" />
      <feGaussianBlur
         in="composite1"
         stdDeviation="1"
         result="blur"
         id="feGaussianBlur11847" />
      <feOffset
         dx="1"
         dy="1"
         result="offset"
         id="feOffset11849" />
      <feComposite
         in="offset"
         in2="SourceGraphic"
         operator="in"
         result="composite2"
         id="feComposite11851" />
    </filter>
    <rect
       x="251.54297"
       y="738.31445"
       width="158.74907"
       height="227.82014"
       id="rect11841" />
    <rect
       x="251.54297"
       y="738.31445"
       width="158.74907"
       height="227.82014"
       id="rect11810-0" />
    <filter
       style="color-interpolation-filters:sRGB"
       inkscape:label="Drop Shadow"
       id="filter11853-5"
       x="-0.052612656"
       y="-0.55964255"
       width="1.1271473"
       height="2.3524695">
      <feFlood
         flood-opacity="1"
         flood-color="rgb(0,0,0)"
         result="flood"
         id="feFlood11843-1" />
      <feComposite
         in="flood"
         in2="SourceGraphic"
         operator="out"
         result="composite1"
         id="feComposite11845-1" />
      <feGaussianBlur
         in="composite1"
         stdDeviation="1"
         result="blur"
         id="feGaussianBlur11847-0" />
      <feOffset
         dx="1"
         dy="1"
         result="offset"
         id="feOffset11849-8" />
      <feComposite
         in="offset"
         in2="SourceGraphic"
         operator="in"
         result="composite2"
         id="feComposite11851-5" />
    </filter>
    <rect
       x="251.54297"
       y="738.31445"
       width="158.74907"
       height="227.82014"
       id="rect11841-0" />
    <filter
       style="color-interpolation-filters:sRGB"
       inkscape:label="Drop Shadow"
       id="filter133065"
       x="-0.070859201"
       y="-0.55964255"
       width="1.1712431"
       height="2.3524694">
      <feFlood
         flood-opacity="1"
         flood-color="rgb(0,0,0)"
         result="flood"
         id="feFlood133055" />
      <feComposite
         in="flood"
         in2="SourceGraphic"
         operator="out"
         result="composite1"
         id="feComposite133057" />
      <feGaussianBlur
         in="composite1"
         stdDeviation="1"
         result="blur"
         id="feGaussianBlur133059" />
      <feOffset
         dx="1"
         dy="1"
         result="offset"
         id="feOffset133061" />
      <feComposite
         in="offset"
         in2="SourceGraphic"
         operator="in"
         result="composite2"
         id="feComposite133063" />
    </filter>
    <rect
       x="251.54297"
       y="738.31445"
       width="158.74907"
       height="227.82014"
       id="rect11810-2" />
    <filter
       style="color-interpolation-filters:sRGB"
       inkscape:label="Drop Shadow"
       id="filter11853-58"
       x="-0.052612656"
       y="-0.55964255"
       width="1.1271473"
       height="2.3524695">
      <feFlood
         flood-opacity="1"
         flood-color="rgb(0,0,0)"
         result="flood"
         id="feFlood11843-6" />
      <feComposite
         in="flood"
         in2="SourceGraphic"
         operator="out"
         result="composite1"
         id="feComposite11845-2" />
      <feGaussianBlur
         in="composite1"
         stdDeviation="1"
         result="blur"
         id="feGaussianBlur11847-8" />
      <feOffset
         dx="1"
         dy="1"
         result="offset"
         id="feOffset11849-4" />
      <feComposite
         in="offset"
         in2="SourceGraphic"
         operator="in"
         result="composite2"
         id="feComposite11851-7" />
    </filter>
    <rect
       x="251.54297"
       y="738.31445"
       width="158.74907"
       height="227.82014"
       id="rect11841-2" />
    <filter
       style="color-interpolation-filters:sRGB"
       inkscape:label="Drop Shadow"
       id="filter135053"
       x="-0.070859201"
       y="-0.55964255"
       width="1.1712431"
       height="2.3524694">
      <feFlood
         flood-opacity="1"
         flood-color="rgb(0,0,0)"
         result="flood"
         id="feFlood135043" />
      <feComposite
         in="flood"
         in2="SourceGraphic"
         operator="out"
         result="composite1"
         id="feComposite135045" />
      <feGaussianBlur
         in="composite1"
         stdDeviation="1"
         result="blur"
         id="feGaussianBlur135047" />
      <feOffset
         dx="1"
         dy="1"
         result="offset"
         id="feOffset135049" />
      <feComposite
         in="offset"
         in2="SourceGraphic"
         operator="in"
         result="composite2"
         id="feComposite135051" />
    </filter>
    <filter
       style="color-interpolation-filters:sRGB"
       inkscape:label="Drop Shadow"
       id="filter26032-4"
       x="-0.035373695"
       y="-0.028412441"
       width="1.0854864"
       height="1.0686634">
      <feFlood
         flood-opacity="1"
         flood-color="rgb(0,0,0)"
         result="flood"
         id="feFlood26022-4" />
      <feComposite
         in="flood"
         in2="SourceGraphic"
         operator="out"
         result="composite1"
         id="feComposite26024-7" />
      <feGaussianBlur
         in="composite1"
         stdDeviation="1"
         result="blur"
         id="feGaussianBlur26026-6" />
      <feOffset
         dx="1"
         dy="1"
         result="offset"
         id="feOffset26028-3" />
      <feComposite
         in="offset"
         in2="SourceGraphic"
         operator="in"
         result="composite2"
         id="feComposite26030-1" />
    </filter>
    <filter
       style="color-interpolation-filters:sRGB;"
       inkscape:label="Drop Shadow"
       id="filter36830"
       x="-0.20383476"
       y="-0.18950634"
       width="1.4926007"
       height="1.4579737">
      <feFlood
         flood-opacity="1"
         flood-color="rgb(0,0,0)"
         result="flood"
         id="feFlood36820" />
      <feComposite
         in="flood"
         in2="SourceGraphic"
         operator="out"
         result="composite1"
         id="feComposite36822" />
      <feGaussianBlur
         in="composite1"
         stdDeviation="1"
         result="blur"
         id="feGaussianBlur36824" />
      <feOffset
         dx="1"
         dy="1"
         result="offset"
         id="feOffset36826" />
      <feComposite
         in="offset"
         in2="SourceGraphic"
         operator="in"
         result="composite2"
         id="feComposite36828" />
    </filter>
  </defs>
  <g
     inkscape:label="Layer 1"
     inkscape:groupmode="layer"
     id="layer1">
    <rect
       style="fill:none;fill-opacity:1;stroke-width:0.29401"
       id="rect134840"
       width="73.647034"
       height="90.270012"
       x="-87.729141"
       y="-7.4197545" />
    <path
       id="path25420"
       style="fill:#ececec;fill-opacity:1;stroke-width:0.0950537"
       d="m -10.72802,-23.559421 -0.522982,0.04753 -0.04214,2.421458 0.228909,0.398224 7.7998008,0.04214 0.567909,-0.154277 0.01634,-2.530436 -0.308554,-0.217027 z m -0.24636,3.903332 -0.299828,0.202361 -0.0017,2.518741 0.24636,0.288689 5.1908328,-0.01281 0.0828,-0.705664 -0.02711,2.429443 -0.101923,-0.758945 c 0,0 -2.422481,0.02358 -2.474928,0.02358 l -2.5818628,-0.01745 -0.353482,0.262326 -0.01857,2.433529 0.274208,0.331203 0.57515,0.04753 1.6292828,-0.03565 1.967169,0.03249 0.222783,-0.761175 0.338629,-0.588144 0.550459,-0.585176 0.730912,-0.189365 0.902455,-0.03546 0.463016,0.164488 a 2.4788652,2.3724004 0 0 0 -0.707705,-0.09914 2.4788652,2.3724004 0 0 0 -2.478827,2.372448 2.4788652,2.3724004 0 0 0 2.478827,2.37245 2.4788652,2.3724004 0 0 0 2.478825,-2.37245 2.4788652,2.3724004 0 0 0 -0.01801,-0.284976 l 3.975926,-0.0072 0.343828,-0.09784 c 0,0 0.088,-5.308024 0.03342,-5.253397 l -4.948186,0.0037 -0.198277,-0.872193 -2.171572,-0.01522 -0.212757,0.461159 -0.138496,0.175998 0.355523,-0.734254 2.125532,0.07816 0.08132,-0.542104 -0.423472,-0.209415 z m 5.7383198,1.444745 -0.170615,0.216841 -0.282748,0.06312 0.0032,-0.02729 z m 1.88307,3.708772 0.381142,0.13534 0.159661,0.181753 a 2.4788652,2.3724004 0 0 0 -0.540803,-0.317093 z" />
    <path
       id="path25432"
       style="display:inline;fill:#283442;fill-opacity:1;stroke:none;stroke-width:0.236072;stroke-opacity:1;filter:url(#filter26032-4)"
       d="m 84.218645,190.19281 -3.7375,2.23462 v 80.00177 l 0.90372,1.55366 32.916195,0.67992 32.91568,-0.67992 1.11143,-5.06199 -0.95692,-3.45243 -0.95692,3.26783 -0.3308,2.61048 c -0.0386,0.0205 -12.20123,0.0333 -22.49342,0.0461 H 87.557985 c -0.73761,-0.003 -5.0284,9.9e-4 -5.03383,-0.004 l -0.33636,-38.96035 0.31154,-36.07081 c 0.004,-0.21484 0.0161,-1.60529 0.0192,-1.69827 h 63.571025 l 0.32472,32.28714 0.2548,33.68543 1.3247,-0.12665 0.33434,-33.86952 -0.20719,-34.20846 -0.90424,-1.55366 -28.80686,-0.68096 -28.444145,0.53378 -0.0461,1.24346 h -3.13063 l 0.0775,-0.0441 z"
       transform="matrix(0.35925868,0,0,0.35925868,-65.655471,-87.440255)" />
    <g
       id="g657">
      <rect
         style="display:inline;fill:none;fill-opacity:1;stroke-width:0.105626"
         id="rect119233"
         width="26.458332"
         height="32.430283"
         x="0.66145831"
         y="0.32131732" />
      <path
         id="path11784-4"
         style="display:inline;fill:#283442;fill-opacity:1;stroke:none;stroke-width:0.0848109;stroke-opacity:1"
         d="M 3.0460417,1.3631872 1.7033125,2.1659938 V 30.90732 l 0.3246692,0.558166 11.8254253,0.244267 11.825239,-0.244267 0.39929,-1.818564 -0.343781,-1.240315 -0.343782,1.173996 -0.118843,0.937838 c -0.01387,0.0074 -4.383393,0.01196 -8.080948,0.01656 H 4.2457284 c -0.2649928,-0.0011 -1.8064961,3.56e-4 -1.8084469,-0.0014 L 2.3164413,16.536723 2.4283647,3.5779736 c 0.00144,-0.077183 0.00578,-0.5767143 0.0069,-0.6101182 H 25.273696 l 0.116659,11.5994336 0.09154,12.101782 0.47591,-0.0455 L 26.077918,14.455653 26.003484,2.1659686 25.678628,1.6078029 15.329518,1.3631621 5.1107154,1.5549272 5.0941536,2.0016509 H 3.9694477 l 0.027843,-0.015843 z" />
      <g
         id="g37042"
         transform="translate(21.5042,-12.087128)">
        <g
           id="g36833"
           transform="translate(6.0817367,-7.308828)">
          <path
             id="path74816-0"
             style="fill:#ececec;fill-opacity:1;stroke-width:0.0950537"
             d="m -12.759944,24.687498 -6.212289,0.04344 -0.411962,0.173956 -0.321921,0.393582 0.04493,10.176889 0.286832,0.363135 0.421242,0.185095 4.511717,0.01912 0.817241,0.825966 1.030182,0.370561 c 0,0 0.657432,0.129004 0.912111,0.11102 0.254678,-0.01798 1.194197,-0.291885 1.288053,-0.338815 0.09386,-0.04693 0.7932761,-0.588287 0.8270781,-0.66482 0.03381,-0.07653 0.529109,-0.801646 0.529109,-0.801646 0,0 0.178139,-0.772692 0.194934,-0.868851 0.01681,-0.09616 0.05031,-0.398595 0.05031,-0.398595 0,0 -3.0248171,0.228238 -3.0099761,-0.0143 0.01484,-0.242531 -0.04493,-3.025757 -0.04493,-3.025757 0,0.0033 -0.107814,-0.0019 -0.261401,0.0045 l 0.324892,-0.07519 0.741683,-1.562634 0.04363,-3.144017 z m 1.835913,5.659418 c 0,0 -0.02716,2.838179 -0.0711,3.079781 l 3.0632581,-0.04716 c 0,0 -0.138426,-0.929235 -0.149634,-0.966133 -0.01124,-0.0369 -0.505905,-0.890388 -0.505905,-0.890388 l -1.04726,-0.856227 z m -3.357517,2.113834 -0.232993,0.331389 0.05198,-0.131813 z m -0.371121,0.681528 -0.228352,1.586583 0.09895,0.32025 -0.106563,-0.288875 0.01412,-1.055432 z" />
        </g>
        <path
           id="path36818"
           style="fill:#ececec;fill-opacity:1;stroke-width:0.0950537;filter:url(#filter36830)"
           d="m -6.6548173,17.422083 -6.2122887,0.04344 -0.411962,0.173956 -0.321921,0.393582 0.04493,10.176889 0.286832,0.363135 0.421242,0.185095 4.5117167,0.01912 0.817241,0.825966 1.030182,0.370561 c 0,0 0.657432,0.129004 0.912111,0.11102 0.254678,-0.01798 1.194197,-0.291885 1.288053,-0.338815 0.09386,-0.04693 0.7932763,-0.588287 0.8270783,-0.66482 0.03381,-0.07653 0.529109,-0.801646 0.529109,-0.801646 0,0 0.178139,-0.772692 0.194934,-0.868851 0.01681,-0.09616 0.05031,-0.398595 0.05031,-0.398595 0,0 -3.0248173,0.228238 -3.0099763,-0.0143 0.01484,-0.242531 -0.04493,-3.025757 -0.04493,-3.025757 0,0.0033 -0.107814,-0.0019 -0.261401,0.0045 l 0.324892,-0.07519 0.741683,-1.562634 0.04363,-3.144017 z m 1.835913,5.659418 c 0,0 -0.02716,2.838179 -0.0711,3.079781 l 3.0632583,-0.04716 c 0,0 -0.138426,-0.929235 -0.149634,-0.966133 -0.01124,-0.0369 -0.505905,-0.890388 -0.505905,-0.890388 l -1.04726,-0.856227 z m -3.357517,2.113834 -0.232993,0.331389 0.05198,-0.131813 z m -0.371121,0.681528 -0.228352,1.586583 0.09895,0.32025 -0.106563,-0.288875 0.01412,-1.055432 z" />
      </g>
      <path
         style="display:inline;fill:#283442;fill-opacity:1;stroke-width:0.0435684"
         d="m 15.409299,18.163199 c -1.323236,-0.191104 -2.374822,-1.134212 -2.726184,-2.444967 -0.102148,-0.381037 -0.102148,-1.182385 0,-1.563418 0.369551,-1.378598 1.482926,-2.32163 2.908209,-2.463272 0.258411,-0.02569 0.301059,-0.01882 0.381231,0.06136 0.08767,0.08767 0.09026,0.131732 0.09026,1.528027 v 1.437757 h 1.43776 c 1.396295,0 1.440358,0.0025 1.528024,0.09027 0.08013,0.08018 0.08703,0.12282 0.06134,0.381224 -0.121005,1.217685 -0.827135,2.218386 -1.912685,2.710595 -0.519014,0.235333 -1.227461,0.340491 -1.76797,0.262432 z m 1.307047,-0.518705 c 0.606253,-0.196015 1.245582,-0.702236 1.560659,-1.23571 0.167479,-0.283588 0.336478,-0.749758 0.37974,-1.047469 l 0.03007,-0.206951 h -1.4427 c -1.384615,0 -1.446217,-0.0036 -1.529842,-0.08714 -0.08363,-0.08362 -0.08713,-0.145226 -0.08713,-1.529838 v -1.442704 l -0.203941,0.03057 c -1.043402,0.156468 -1.958943,0.933099 -2.286864,1.939889 -0.129272,0.396895 -0.15603,1.068536 -0.0598,1.501076 0.226469,1.017934 1.021483,1.842088 2.04356,2.118473 0.417229,0.112821 1.182572,0.09354 1.596254,-0.04021 z M 8.6344174,16.856359 C 8.3338078,16.783175 8.0515886,16.551564 7.8877379,16.243572 7.8099979,16.097364 7.8065814,15.882 7.8065814,11.015367 V 5.9396536 L 7.9007933,5.7653808 C 8.0118546,5.5599388 8.225459,5.3497833 8.4383161,5.2365449 c 0.1446914,-0.076968 0.314204,-0.081121 3.3112039,-0.081121 3.002346,0 3.166254,0.00402 3.31119,0.081491 0.212315,0.1134539 1.593344,1.4876073 1.735248,1.726597 l 0.116411,0.1960582 0.01344,1.5114405 c 0.01315,1.4768724 0.01135,1.5134924 -0.0762,1.6011364 -0.111834,0.111834 -0.15428,0.112247 -0.263969,0.0025 C 16.50201,10.191037 16.4985,10.129421 16.4985,8.7537509 V 7.3200007 l -0.650434,-0.014873 c -0.70765,-0.016203 -0.773344,-0.03728 -0.98069,-0.3147573 -0.07945,-0.106319 -0.09155,-0.19539 -0.104717,-0.7706457 l -0.01484,-0.6504341 -3.034898,1.617e-4 c -2.9515076,1.544e-4 -3.0387967,0.00251 -3.1768921,0.086739 -0.078081,0.047616 -0.1809622,0.1504718 -0.2285712,0.2285675 -0.085083,0.1395073 -0.086578,0.2294585 -0.086578,5.1305762 0,4.901114 0.0018,4.991065 0.086578,5.130572 0.047584,0.0781 0.1504755,0.180955 0.2285712,0.228572 0.1358285,0.08281 0.2228553,0.08658 2.0045371,0.08674 1.804348,1.8e-4 1.865275,0.0029 1.949686,0.0873 0.04792,0.04792 0.08713,0.106739 0.08713,0.130702 0,0.02396 -0.03921,0.08278 -0.08713,0.130705 -0.08449,0.08451 -0.142119,0.087 -1.906118,0.08268 -1.0004315,-0.0025 -1.8777986,-0.01879 -1.9496826,-0.03628 z M 15.713566,6.3744571 15.213233,5.8725405 l -0.0125,0.4410941 c -0.0085,0.2876764 0.0051,0.4622509 0.03802,0.5019203 0.03742,0.045055 0.170299,0.060822 0.512784,0.060822 h 0.462316 z M 9.1790176,15.067226 c -0.047925,-0.04792 -0.087138,-0.106743 -0.087138,-0.130705 0,-0.02396 0.039213,-0.08278 0.087138,-0.130706 0.083035,-0.08306 0.1452339,-0.08713 1.3288404,-0.08713 1.183602,0 1.245769,0.0041 1.328833,0.08713 0.04792,0.04792 0.08713,0.106743 0.08713,0.130706 0,0.02396 -0.03921,0.08278 -0.08713,0.130705 -0.08304,0.08306 -0.145231,0.08714 -1.328833,0.08714 -1.1836065,0 -1.2457798,-0.0041 -1.3288404,-0.08714 z m 7.4066234,-0.871367 c -0.08389,-0.0839 -0.08713,-0.145227 -0.08713,-1.655597 0,-1.528512 0.0025,-1.570761 0.09027,-1.658729 0.08013,-0.08018 0.12282,-0.08703 0.38122,-0.06135 1.62765,0.16175 2.829579,1.363682 2.991328,2.991328 0.02572,0.258404 0.01879,0.301052 -0.06134,0.381224 -0.08798,0.08797 -0.130216,0.09027 -1.658736,0.09027 -1.510363,0 -1.571688,-0.0032 -1.65559,-0.08713 z m 2.941958,-0.552482 c -0.182342,-1.215951 -1.173526,-2.207135 -2.389472,-2.389476 l -0.203941,-0.03057 v 1.311994 1.311998 h 1.311995 1.312002 z M 9.1790176,13.760175 c -0.047925,-0.04793 -0.087138,-0.106743 -0.087138,-0.130705 0,-0.02396 0.039213,-0.08278 0.087138,-0.130702 0.079874,-0.07988 0.1452339,-0.08714 0.7842328,-0.08714 0.6390026,0 0.7043556,0.0073 0.7842296,0.08714 0.04793,0.04792 0.08714,0.106739 0.08714,0.130702 0,0.02396 -0.03921,0.08278 -0.08714,0.130705 -0.07987,0.07987 -0.145227,0.08714 -0.7842296,0.08714 -0.6389989,0 -0.7043588,-0.0073 -0.7842328,-0.08714 z m 2.1784224,0 c -0.04792,-0.04793 -0.08714,-0.106743 -0.08714,-0.130705 0,-0.02396 0.03921,-0.08278 0.08714,-0.130702 0.06775,-0.06778 0.145226,-0.08714 0.348545,-0.08714 0.203316,0 0.280775,0.01936 0.348546,0.08714 0.04792,0.04792 0.08713,0.106739 0.08713,0.130702 0,0.02396 -0.03921,0.08278 -0.08713,0.130705 -0.06775,0.06778 -0.14523,0.08714 -0.348546,0.08714 -0.203319,0 -0.280775,-0.01936 -0.348545,-0.08714 z M 9.1790176,12.453124 c -0.047925,-0.04793 -0.087138,-0.106743 -0.087138,-0.130702 0,-0.02396 0.039213,-0.08278 0.087138,-0.130709 0.084145,-0.08412 0.1452339,-0.08713 1.7645204,-0.08713 1.619294,0 1.6804,0.0029 1.764517,0.08713 0.04793,0.04792 0.08714,0.106743 0.08714,0.130709 0,0.02396 -0.03921,0.08278 -0.08714,0.130702 -0.08414,0.08412 -0.145223,0.08714 -1.764517,0.08714 -1.6192865,0 -1.6804,-0.0029 -1.7645204,-0.08714 z m 0,-1.307051 c -0.076544,-0.07658 -0.087138,-0.145227 -0.087138,-0.566386 0,-0.421162 0.010598,-0.489813 0.087138,-0.566389 0.07654,-0.07658 0.1452339,-0.087138 0.5663928,-0.087138 0.6472906,0 0.6535166,0.00625 0.6535166,0.653527 0,0.647291 -0.006,0.653524 -0.6535166,0.653524 -0.4211589,0 -0.4898168,-0.01056 -0.5663928,-0.08714 z m 0.7842328,-0.566386 v -0.217843 h -0.21784 -0.2178401 v 0.217843 0.21784 h 0.2178401 0.21784 z m 0.9585016,0.566386 c -0.0809,-0.08085 -0.08713,-0.145227 -0.08713,-0.89315 0,-1.0223166 -0.02802,-0.9802906 0.653527,-0.9802906 0.681539,0 0.65352,-0.04203 0.65352,0.9802906 0,1.022314 0.02802,0.980288 -0.65352,0.980288 -0.421166,0 -0.489817,-0.01056 -0.566393,-0.08714 z m 0.784233,-0.89315 V 9.7083197 h -0.21784 -0.217847 v 0.5446033 0.544604 h 0.217847 0.21784 z m 0.958502,0.89315 c -0.08269,-0.08267 -0.08713,-0.145227 -0.08713,-1.2199132 0,-1.3986657 -0.04579,-1.3070512 0.65352,-1.3070512 0.699333,0 0.653531,-0.091615 0.653531,1.3070512 0,1.3986652 0.04579,1.3070512 -0.653531,1.3070512 -0.421159,0 -0.489806,-0.01056 -0.566386,-0.08714 z M 13.448724,9.9261598 V 9.0547924 h -0.217851 -0.21784 v 0.8713674 0.8713672 h 0.21784 0.217851 z m 1.394182,1.2199132 c -0.04792,-0.04792 -0.08713,-0.10674 -0.08713,-0.130706 0,-0.02396 0.03921,-0.08278 0.08713,-0.130702 0.06775,-0.06777 0.145227,-0.08714 0.348545,-0.08714 0.203326,0 0.280772,0.01936 0.348553,0.08714 0.04792,0.04792 0.08713,0.10674 0.08713,0.130702 0,0.02396 -0.03921,0.08278 -0.08713,0.130706 -0.06775,0.06777 -0.145227,0.08714 -0.348553,0.08714 -0.203318,0 -0.280767,-0.01936 -0.348545,-0.08714 z m 0,-1.3070514 c -0.04792,-0.047925 -0.08713,-0.1067429 -0.08713,-0.1307019 0,-0.023962 0.03921,-0.08278 0.08713,-0.1307054 0.06775,-0.067771 0.145227,-0.087138 0.348545,-0.087138 0.203326,0 0.280772,0.019364 0.348553,0.087138 0.04792,0.047925 0.08713,0.1067429 0.08713,0.1307054 0,0.023963 -0.03921,0.082777 -0.08713,0.1307019 -0.06775,0.067778 -0.145227,0.087138 -0.348553,0.087138 -0.203318,0 -0.280767,-0.019364 -0.348545,-0.087138 z M 9.3968648,9.4033415 c -0.047925,-0.047925 -0.087145,-0.1110073 -0.087145,-0.1401791 0,-0.071927 1.4475352,-1.5154212 1.5196602,-1.5154212 0.03151,0 0.193418,0.1314312 0.359805,0.2920665 l 0.302531,0.2920701 0.509907,-0.5099102 0.50991,-0.5099101 h -0.206717 c -0.201577,0 -0.380991,-0.1025863 -0.380991,-0.2178401 0,-0.023962 0.03921,-0.08278 0.08713,-0.1307054 0.07654,-0.076576 0.145227,-0.087138 0.566393,-0.087138 0.647294,0 0.65352,0.00625 0.65352,0.6535273 0,0.4211589 -0.01049,0.4898133 -0.08713,0.5663892 -0.109203,0.1092003 -0.152207,0.1092003 -0.261407,0 -0.06245,-0.06245 -0.08714,-0.1452303 -0.08714,-0.2921419 V 7.5991411 l -0.624226,0.6189056 c -0.343326,0.3403975 -0.64912,0.6189056 -0.679542,0.6189056 -0.03043,0 -0.191075,-0.131054 -0.356984,-0.291233 L 10.832778,8.2544899 10.209476,8.872483 C 9.8666566,9.2123812 9.5631764,9.4904761 9.5350788,9.4904761 c -0.028094,0 -0.090289,-0.03921 -0.138214,-0.087135 z m 5.4460412,-0.871371 c -0.04792,-0.047921 -0.08713,-0.1067394 -0.08713,-0.1307019 0,-0.023963 0.03921,-0.08278 0.08713,-0.1307055 0.06775,-0.06777 0.145227,-0.087138 0.348545,-0.087138 0.203326,0 0.280772,0.019364 0.348553,0.087138 0.04792,0.047925 0.08713,0.1067429 0.08713,0.1307055 0,0.023962 -0.03921,0.082777 -0.08713,0.1307019 -0.06775,0.06777 -0.145227,0.087138 -0.348553,0.087138 -0.203318,0 -0.280767,-0.019364 -0.348545,-0.087138 z"
         id="path11782-6" />
      <text
         xml:space="preserve"
         style="font-weight:bold;font-size:2.02781px;line-height:0;font-family:'FiraCode Nerd Font';-inkscape-font-specification:'FiraCode Nerd Font Bold';text-align:start;writing-mode:lr-tb;direction:ltr;text-anchor:start;display:inline;fill:none;stroke:#000000;stroke-width:0.111135"
         x="6.8114004"
         y="19.457348"
         id="text11788-2"
         transform="scale(0.925279,1.0807551)"><tspan
           sodipodi:role="line"
           id="tspan11786-9"
           style="font-style:normal;font-variant:normal;font-weight:bold;font-stretch:normal;font-size:2.02781px;line-height:0;font-family:Roboto;-inkscape-font-specification:'Roboto, Bold';font-variant-ligatures:normal;font-variant-caps:normal;font-variant-numeric:normal;font-variant-east-asian:normal;fill:#283442;fill-opacity:1;stroke:none;stroke-width:0.111135"
           x="6.8114004"
           y="19.457348">Auditar Relatórios</tspan></text>
      <text
         xml:space="preserve"
         transform="matrix(0.13892191,0,0,0.13892191,-32.115272,-80.42619)"
         id="text11806-9"
         style="font-style:italic;font-size:12.7722px;line-height:14.5968px;font-family:Roboto;-inkscape-font-specification:'Roboto Italic';text-align:center;word-spacing:0px;white-space:pre;shape-inside:url(#rect11810-2);display:inline;fill:#040607;fill-opacity:1;stroke:#283442"
         x="173.98344"
         y="0"><tspan
           x="265.29765"
           y="749.13484"
           id="tspan828"><tspan
             style="font-style:normal;font-family:Arial;-inkscape-font-specification:Arial;letter-spacing:0.03px;stroke:none"
             id="tspan826">Uma visão detalhada e </tspan></tspan><tspan
           x="267.77098"
           y="764.06056"
           id="tspan832"><tspan
             style="font-style:normal;font-family:Arial;-inkscape-font-specification:Arial;letter-spacing:0.03px;stroke:none"
             id="tspan830">rastreável de todas as </tspan></tspan><tspan
           x="251.71514"
           y="778.98628"
           id="tspan836"><tspan
             style="font-style:normal;font-family:Arial;-inkscape-font-specification:Arial;letter-spacing:0.03px;stroke:none"
             id="tspan834">atividades relacionadas aos </tspan></tspan><tspan
           x="268.87365"
           y="793.912"
           id="tspan840"><tspan
             style="font-style:normal;font-family:Arial;-inkscape-font-specification:Arial;letter-spacing:0.03px;stroke:none"
             id="tspan838">processos do sistema</tspan></tspan></text>
      <text
         xml:space="preserve"
         style="font-weight:bold;font-size:5.64444px;line-height:0;font-family:'FiraCode Nerd Font';-inkscape-font-specification:'FiraCode Nerd Font Bold';text-align:start;writing-mode:lr-tb;direction:ltr;text-anchor:start;display:inline;fill:none;stroke:#000000;stroke-width:0.309346;filter:url(#filter11853-58)"
         x="86.271332"
         y="53.135578"
         id="text11819-0"
         transform="matrix(0.33241447,0,0,0.3882706,-22.364925,0.40812332)"><tspan
           sodipodi:role="line"
           id="tspan11817-8"
           style="font-style:normal;font-variant:normal;font-weight:bold;font-stretch:normal;font-size:5.64444px;line-height:0;font-family:Roboto;-inkscape-font-specification:'Roboto, Bold';font-variant-ligatures:normal;font-variant-caps:normal;font-variant-numeric:normal;font-variant-east-asian:normal;fill:#283442;fill-opacity:1;stroke:none;stroke-width:0.309346"
           x="86.271332"
           y="53.135578">Auditar Relatórios</tspan></text>
      <path
         id="path452"
         style="display:inline;fill:#283442;fill-opacity:1;stroke:none;stroke-width:0.236072;stroke-opacity:1;filter:url(#filter26032-4)"
         d="m 84.218645,190.19281 -3.7375,2.23462 v 80.00177 l 0.90372,1.55366 32.916195,0.67992 32.91568,-0.67992 1.11143,-5.06199 -0.95692,-3.45243 -0.95692,3.26783 -0.3308,2.61048 c -0.0386,0.0205 -12.20123,0.0333 -22.49342,0.0461 H 87.557985 c -0.73761,-0.003 -5.0284,9.9e-4 -5.03383,-0.004 l -0.33636,-38.96035 0.31154,-36.07081 c 0.004,-0.21484 0.0161,-1.60529 0.0192,-1.69827 h 63.571025 l 0.32472,32.28714 0.2548,33.68543 1.3247,-0.12665 0.33434,-33.86952 -0.20719,-34.20846 -0.90424,-1.55366 -28.80686,-0.68096 -28.444145,0.53378 -0.0461,1.24346 h -3.13063 l 0.0775,-0.0441 z"
         transform="matrix(0.35925868,0,0,0.35925868,-27.213835,-66.968124)" />
    </g>
  </g>
</svg>
